<svg width="20" height="20" viewBox="0 0 20 20" fill="none" xmlns="http://www.w3.org/2000/svg">
<path fill-rule="evenodd" clip-rule="evenodd" d="M10 1.45835C10.3452 1.45835 10.625 1.73817 10.625 2.08335L10.625 17.9167C10.625 18.2619 10.3452 18.5417 10 18.5417C9.65482 18.5417 9.375 18.2619 9.375 17.9167L9.375 2.08335C9.375 1.73817 9.65482 1.45835 10 1.45835Z" fill="white"/>
<path fill-rule="evenodd" clip-rule="evenodd" d="M18.5417 10C18.5417 10.3452 18.2618 10.625 17.9167 10.625H2.08333C1.73815 10.625 1.45833 10.3452 1.45833 10C1.45833 9.65484 1.73815 9.37502 2.08333 9.37502H17.9167C18.2618 9.37502 18.5417 9.65484 18.5417 10Z" fill="white"/>
</svg>
