<svg width="21" height="20" viewBox="0 0 21 20" fill="none" xmlns="http://www.w3.org/2000/svg">
<path fill-rule="evenodd" clip-rule="evenodd" d="M2.375 17.5C2.375 17.1548 2.65482 16.875 3 16.875H18C18.3452 16.875 18.625 17.1548 18.625 17.5C18.625 17.8452 18.3452 18.125 18 18.125H3C2.65482 18.125 2.375 17.8452 2.375 17.5Z" fill="#424242"/>
<path fill-rule="evenodd" clip-rule="evenodd" d="M14.1228 1.875C14.2887 1.87497 14.4477 1.94086 14.565 2.05815L17.6087 5.10321C17.8527 5.34727 17.8527 5.74285 17.6087 5.9869L8.99087 14.6085C8.87365 14.7258 8.71464 14.7917 8.54883 14.7917H5.5C5.15482 14.7917 4.875 14.5118 4.875 14.1667V11.1333C4.875 10.9676 4.94075 10.8088 5.05779 10.6916L13.6807 2.05832C13.7979 1.94098 13.957 1.87503 14.1228 1.875ZM14.1231 3.38424L6.125 11.3919V13.5417H8.28986L16.283 5.54506L14.1231 3.38424Z" fill="#424242"/>
<path fill-rule="evenodd" clip-rule="evenodd" d="M11.0997 4.55806C11.3438 4.31398 11.7395 4.31398 11.9836 4.55806L15.1086 7.68306C15.3526 7.92714 15.3526 8.32286 15.1086 8.56694C14.8645 8.81102 14.4688 8.81102 14.2247 8.56694L11.0997 5.44194C10.8556 5.19786 10.8556 4.80214 11.0997 4.55806Z" fill="#424242"/>
</svg>
