<svg width="24" height="24" viewBox="0 0 24 24" fill="none" xmlns="http://www.w3.org/2000/svg">
<path fill-rule="evenodd" clip-rule="evenodd" d="M17.8474 2.25C18.0464 2.24996 18.2373 2.32903 18.378 2.46979L22.0304 6.12386C22.3232 6.41672 22.3232 6.89142 22.0304 7.18429L11.689 17.5302C11.5484 17.6709 11.3576 17.75 11.1586 17.75H7.5C7.08579 17.75 6.75 17.4142 6.75 17V13.3599C6.75 13.1612 6.82889 12.9705 6.96935 12.8299L17.3169 2.46999C17.4575 2.32918 17.6484 2.25004 17.8474 2.25ZM17.8477 4.06109L8.25 13.6703V16.25H10.8478L20.4396 6.65407L17.8477 4.06109Z" fill="#424242"/>
<path fill-rule="evenodd" clip-rule="evenodd" d="M14.2197 5.46967C14.5126 5.17678 14.9874 5.17678 15.2803 5.46967L19.0303 9.21967C19.3232 9.51256 19.3232 9.98744 19.0303 10.2803C18.7374 10.5732 18.2626 10.5732 17.9697 10.2803L14.2197 6.53033C13.9268 6.23744 13.9268 5.76256 14.2197 5.46967Z" fill="#424242"/>
<path fill-rule="evenodd" clip-rule="evenodd" d="M1.25 5.5C1.25 4.25736 2.25736 3.25 3.5 3.25H9.5C9.69891 3.25 9.88968 3.32902 10.0303 3.46967L11.5303 4.96967C11.8232 5.26256 11.8232 5.73744 11.5303 6.03033C11.2374 6.32322 10.7626 6.32322 10.4697 6.03033L9.18934 4.75H3.5C3.08579 4.75 2.75 5.08579 2.75 5.5V19.5C2.75 19.9142 3.08579 20.25 3.5 20.25H20.5C20.9142 20.25 21.25 19.9142 21.25 19.5V11C21.25 10.5858 21.5858 10.25 22 10.25C22.4142 10.25 22.75 10.5858 22.75 11V19.5C22.75 20.7426 21.7426 21.75 20.5 21.75H3.5C2.25736 21.75 1.25 20.7426 1.25 19.5V5.5Z" fill="#424242"/>
</svg>
