<svg width="24" height="24" viewBox="0 0 24 24" fill="none" xmlns="http://www.w3.org/2000/svg">
<path fill-rule="evenodd" clip-rule="evenodd" d="M12.4685 2.41435C12.1946 2.19522 11.8054 2.19522 11.5315 2.41435L4.03151 8.41435L1.53151 10.4143C1.20806 10.6731 1.15562 11.1451 1.41438 11.4685C1.67313 11.792 2.1451 11.8444 2.46855 11.5857L3.75003 10.5605V19.5C3.75003 20.7426 4.75739 21.75 6.00003 21.75H9.5H14.5H18C19.2427 21.75 20.25 20.7426 20.25 19.5V10.5605L21.5315 11.5857C21.855 11.8444 22.3269 11.792 22.5857 11.4685C22.8444 11.1451 22.792 10.6731 22.4685 10.4143L12.4685 2.41435ZM15.25 20.25H18C18.4142 20.25 18.75 19.9142 18.75 19.5V9.36047L12 3.96047L5.25003 9.36047V19.5C5.25003 19.9142 5.58581 20.25 6.00003 20.25H8.75V14.5C8.75 14.0858 9.08579 13.75 9.5 13.75H14.5C14.9142 13.75 15.25 14.0858 15.25 14.5V20.25ZM10.25 20.25H13.75V15.25H10.25V20.25Z" fill="#424242"/>
</svg>
