<svg width="85" height="28" viewBox="0 0 85 28" fill="none" xmlns="http://www.w3.org/2000/svg">
<g clip-path="url(#clip0_935_623)">
<path d="M70.7672 13.6671V5.82428H75.0056C75.2828 5.82428 75.5091 5.59292 75.5091 5.30961V2.36796C75.5091 2.08465 75.2828 1.85329 75.0056 1.85329H59.3337C59.0566 1.85329 58.8302 2.08465 58.8302 2.36796V5.30961C58.8302 5.59292 59.0566 5.82428 59.3337 5.82428H63.5791V13.6624L58.0403 21.5949C57.8901 21.8357 57.9594 22.1521 58.195 22.3056L61.3386 24.3524C61.5742 24.5059 61.8837 24.4351 62.0339 24.1966L67.0068 17.0361C67.0831 16.9133 67.2563 16.9133 67.3325 17.0361L72.3055 24.1966C72.4556 24.4374 72.7674 24.5059 73.0007 24.3524L76.1513 22.2985C76.3869 22.145 76.4538 21.8263 76.306 21.5879L70.7672 13.6671Z" fill="#231F20"/>
<path d="M84.6166 0.00944519H78.1931C77.9806 0.00944519 77.8097 0.18415 77.8097 0.401351V27.5987C77.8097 27.8135 77.9806 27.9882 78.1908 27.9882H84.6189C84.8291 27.9882 85 27.8135 85 27.5987V0.401351C85 0.186511 84.8291 0.00944519 84.6166 0.00944519Z" fill="#231F20"/>
<path d="M27.1284 0H20.527C20.3654 0 20.2337 0.13457 20.2337 0.299831V6.79697H16.1639V2.19089C16.1639 1.97369 15.9929 1.79899 15.7804 1.79899H0.383424C0.170924 1.79899 0 1.97369 0 2.19089V23.9062C0 24.1234 0.170924 24.2981 0.383424 24.2981H15.7804C15.9929 24.2981 16.1639 24.1234 16.1639 23.9062V10.7444H20.2337V27.6978C20.2337 27.8631 20.3654 27.9953 20.5247 27.9953H27.1284C27.2901 27.9953 27.4194 27.8607 27.4194 27.6978V0.299831C27.4194 0.13457 27.2878 0 27.1261 0H27.1284ZM12.2742 20.3177C12.2603 20.5207 12.094 20.6789 11.8931 20.6789H8.43302C8.21128 20.6789 8.03573 20.4853 8.0519 20.261L9.45856 5.99899C9.47242 5.79595 9.63872 5.63777 9.83967 5.63777H13.2997C13.5215 5.63777 13.697 5.83137 13.6808 6.05565L12.2742 20.3177Z" fill="#231F20"/>
<path d="M55.8205 17.2887H30.2997C30.0895 17.2887 29.9186 17.4634 29.9186 17.6782V20.889C29.9186 21.1039 30.0895 21.2786 30.2997 21.2786H49.7296V27.7734C49.7296 27.8961 49.8266 27.9976 49.949 27.9976H55.8228C55.9429 27.9976 56.0422 27.8985 56.0422 27.7734V17.513C56.0422 17.3879 55.9429 17.2887 55.8228 17.2887H55.8205Z" fill="#231F20"/>
<path d="M56.1786 0.00944519H49.5772C49.4155 0.00944519 49.2839 0.144015 49.2839 0.309277V6.80641H45.214V2.20034C45.214 1.98314 45.0431 1.80843 44.8306 1.80843H29.4336C29.2211 1.80843 29.0502 1.98314 29.0502 2.20034V14.9255C29.0502 15.1427 29.2211 15.3174 29.4336 15.3174H44.8306C45.0431 15.3174 45.214 15.1427 45.214 14.9255V10.7538H49.2839V16.1838C49.2839 16.3491 49.4155 16.4813 49.5749 16.4813H56.1786C56.3403 16.4813 56.4696 16.3467 56.4696 16.1838V0.309277C56.4696 0.144015 56.3379 0.00944519 56.1763 0.00944519H56.1786ZM42.3499 11.3983C42.336 11.6014 42.1697 11.7595 41.9688 11.7595H38.5087C38.287 11.7595 38.1115 11.5659 38.1276 11.3417L38.5087 6.00843C38.5226 5.8054 38.6889 5.64722 38.8898 5.64722H42.3499C42.5716 5.64722 42.7472 5.84081 42.731 6.06509L42.3499 11.3983Z" fill="#231F20"/>
</g>
<defs>
<clipPath id="clip0_935_623">
<rect width="85" height="28" fill="white"/>
</clipPath>
</defs>
</svg>
