<svg width="24" height="24" viewBox="0 0 24 24" fill="none" xmlns="http://www.w3.org/2000/svg">
<path d="M16 21C16 21 16 19.7858 16.0008 19.7821C16.3493 19.6041 16.6851 19.4036 17.0062 19.1825C17.4948 18.846 17.9495 18.4616 18.364 18.036C19.9926 16.3633 21 14.0525 21 11.5H3C3 14.0525 4.00736 16.3633 5.63604 18.036C6.0543 18.4655 6.51355 18.853 7.00723 19.1917C7.32652 19.4107 7.66022 19.6094 8.00656 19.7858L8 21H12H16Z" stroke="#424242" stroke-width="1.5" stroke-linecap="round" stroke-linejoin="round"/>
<path d="M3.7221 10.5C3.7221 10.5 3.04192 8.567 4.06219 7.60051C5.08247 6.63402 7.12302 6.95618 7.12302 6.95618C7.12302 6.95618 7.12303 5.0232 8.4834 4.37888C9.84377 3.73455 11.8843 4.70103 11.8843 4.70103C11.8843 4.70103 13.2447 2.53792 15.2853 3.09024C17.3258 3.64256 17.3258 5.98972 17.3258 5.98972C17.3258 5.98972 19.0263 5.98974 20.0465 7.27837C21.0668 8.567 20.0465 10.5 20.0465 10.5" stroke="#424242" stroke-width="1.5" stroke-linecap="round" stroke-linejoin="round"/>
</svg>
