<svg width="24" height="24" viewBox="0 0 24 24" fill="none" xmlns="http://www.w3.org/2000/svg">
<path fill-rule="evenodd" clip-rule="evenodd" d="M2.25 11.5C2.25 11.0858 2.58579 10.75 3 10.75H21C21.4142 10.75 21.75 11.0858 21.75 11.5C21.75 14.2529 20.6628 16.75 18.9013 18.5592C18.453 19.0196 17.9609 19.4356 17.4316 19.8002C17.2108 19.9522 16.9835 20.0954 16.7502 20.229L16.75 20.9991C16.75 21.198 16.671 21.3897 16.5303 21.5303C16.3897 21.671 16.1989 21.75 16 21.75H8C7.80039 21.75 7.60901 21.6704 7.46824 21.5289C7.32747 21.3874 7.24893 21.1956 7.25001 20.9959L7.25414 20.2315C7.02447 20.1001 6.80058 19.9595 6.58294 19.8101C6.04815 19.4433 5.55109 19.0238 5.09869 18.5592C3.33717 16.75 2.25 14.2529 2.25 11.5ZM16.7507 19.7928C16.7507 19.7926 16.7507 19.7926 16.7507 19.7928ZM3.78169 12.25C3.95594 14.3019 4.83831 16.1416 6.17339 17.5127C6.55752 17.9073 6.97894 18.2628 7.43151 18.5732C7.7242 18.774 8.0299 18.956 8.34696 19.1175C8.5996 19.2462 8.75808 19.5063 8.75655 19.7898L8.75406 20.25H15.2502L15.2505 19.8338L15.2506 19.7929L15.2507 19.7789L15.2508 19.7697L15.2512 19.7575C15.2512 19.7558 15.2513 19.7521 15.2516 19.7472C15.2517 19.7448 15.2518 19.7422 15.252 19.7393L15.2537 19.7153C15.255 19.7025 15.2606 19.6611 15.2658 19.6328C15.3112 19.4089 15.4563 19.2179 15.6597 19.1141C15.9789 18.9512 16.2864 18.7675 16.5808 18.5648C17.0287 18.2563 17.446 17.9037 17.8266 17.5127C19.1617 16.1416 20.0441 14.3019 20.2183 12.25H3.78169Z" fill="#424242"/>
<path fill-rule="evenodd" clip-rule="evenodd" d="M12.7688 4.85146C12.5667 5.1722 12.1572 5.29173 11.8144 5.1301C11.8143 5.13007 11.8144 5.13013 11.8144 5.1301C11.8143 5.13005 11.8133 5.12958 11.8132 5.12953L11.8014 5.12418C11.7902 5.11909 11.7719 5.11093 11.7473 5.1003C11.6978 5.07901 11.6231 5.04802 11.5284 5.01211C11.3377 4.93985 11.0719 4.85006 10.7711 4.77883C10.1325 4.62761 9.4953 4.59852 9.05434 4.80738C8.65136 4.99824 8.40397 5.40246 8.26102 5.87641C8.19245 6.10373 8.15725 6.31868 8.13959 6.4776C8.13085 6.55618 8.12667 6.61873 8.12467 6.65933C8.12368 6.67958 8.12324 6.69418 8.12305 6.7024L8.12291 6.70964L8.12291 6.70859L8.12292 6.70736C8.12292 6.70815 8.12291 6.70885 8.12291 6.70964C8.12208 6.92793 8.02617 7.13518 7.86014 7.27705C7.69361 7.41936 7.47319 7.48173 7.25681 7.44782L7.24594 7.44626C7.23535 7.44478 7.21781 7.44243 7.19405 7.43959C7.14645 7.43389 7.07439 7.42626 6.98363 7.41965C6.8008 7.40632 6.549 7.39763 6.27238 7.4151C5.68276 7.45234 5.14143 7.59866 4.82787 7.89568C4.56736 8.14246 4.46988 8.57487 4.50759 9.11072C4.52509 9.35939 4.56943 9.58805 4.61035 9.75604C4.63058 9.83907 4.64938 9.90487 4.66247 9.94803C4.669 9.96955 4.67405 9.98526 4.67708 9.99448L4.67996 10.0031L4.67962 10.0022C4.81682 10.3928 4.61154 10.8207 4.22094 10.9582C3.83021 11.0957 3.40201 10.8904 3.26452 10.4996L3.972 10.2507C3.26452 10.4996 3.2646 10.4999 3.26452 10.4996L3.26378 10.4975L3.2628 10.4947L3.26013 10.4869L3.25213 10.463C3.2457 10.4434 3.23714 10.4167 3.22706 10.3834C3.20694 10.3171 3.18057 10.2244 3.15297 10.1111C3.09824 9.88641 3.0363 9.57141 3.01129 9.21602C2.96398 8.54376 3.03654 7.52642 3.7963 6.80671C4.50302 6.13725 5.4921 5.96139 6.17784 5.91809C6.36891 5.90602 6.54909 5.90355 6.71072 5.90639C6.73867 5.7629 6.77573 5.60636 6.82492 5.44326C7.02206 4.78964 7.45487 3.9052 8.41226 3.45175C9.33166 3.01628 10.3949 3.14827 11.1167 3.3192C11.4091 3.38844 11.6717 3.47058 11.8841 3.54526C12.0624 3.33847 12.3041 3.08885 12.6036 2.85143C13.2991 2.30017 14.3924 1.75463 15.7311 2.11697C17.0533 2.47486 17.7094 3.42818 18.0196 4.22593C18.1384 4.53129 18.2104 4.82129 18.2544 5.06163C18.4069 5.08925 18.5791 5.12775 18.7633 5.18146C19.4073 5.36916 20.2459 5.75706 20.8844 6.56349C21.5949 7.46089 21.5597 8.53625 21.4147 9.26873C21.3399 9.64693 21.2287 9.97349 21.1372 10.2046C21.0911 10.321 21.0491 10.4155 21.0176 10.4829C21.0018 10.5167 20.9885 10.5438 20.9787 10.5636L20.9664 10.5879L20.9623 10.5958L20.9608 10.5986L20.9602 10.5998C20.9601 10.6 20.9597 10.6008 20.2964 10.2507L20.9597 10.6008C20.7663 10.9671 20.3126 11.1073 19.9463 10.914C19.5807 10.721 19.4403 10.2686 19.632 9.90266C19.6324 9.90197 19.6328 9.90128 19.6331 9.90059L20.263 10.2331C19.6331 9.9006 19.6332 9.90038 19.6331 9.90059C19.6328 9.90128 19.6324 9.90197 19.632 9.90266L19.6366 9.89371C19.6411 9.88458 19.6488 9.86891 19.6589 9.84728C19.6792 9.80393 19.7089 9.73737 19.7425 9.65246C19.8105 9.48084 19.8906 9.24361 19.9433 8.97748C20.0534 8.42131 20.0182 7.88585 19.7084 7.49462C19.3267 7.01244 18.8049 6.75599 18.3436 6.62153C18.1158 6.55514 17.9141 6.52199 17.7718 6.50565C17.7011 6.49753 17.6463 6.4937 17.6119 6.49191C17.5947 6.49102 17.5827 6.49064 17.5765 6.49049L17.5724 6.4904L17.5738 6.4904L17.5752 6.4904C17.574 6.4904 17.5736 6.4904 17.5724 6.4904C17.1612 6.48831 16.8277 6.15529 16.8257 5.74405C16.8257 5.74467 16.8257 5.74448 16.8257 5.74405C16.8257 5.74316 16.8257 5.74227 16.8257 5.74138C16.8257 5.74126 16.8257 5.7415 16.8257 5.74138L16.8257 5.74254L16.8257 5.74405L16.8255 5.73547C16.8252 5.72572 16.8246 5.7083 16.8231 5.68419C16.8202 5.63579 16.8139 5.56142 16.801 5.4686C16.7748 5.28074 16.7227 5.02955 16.6216 4.76964C16.4218 4.25573 16.0575 3.7593 15.3392 3.56488C14.6374 3.3749 14.0302 3.63476 13.5353 4.02697C13.2905 4.22106 13.094 4.43298 12.9583 4.59829C12.8911 4.68008 12.8407 4.74819 12.8084 4.79372C12.7923 4.81643 12.7808 4.83334 12.7742 4.8433L12.7681 4.85258L12.7688 4.85146ZM17.5757 5.7404L16.8257 5.74138C16.8257 5.74126 16.8257 5.7415 16.8257 5.74138C16.8257 5.74108 16.8257 5.7404 17.5757 5.7404ZM7.37292 6.70686C7.25677 7.44254 7.25663 7.44776 7.25681 7.44782C7.25664 7.4478 7.25697 7.44785 7.25681 7.44782L7.37292 6.70686ZM7.37292 6.70686C8.12292 6.70687 8.12292 6.70712 8.12292 6.70736C8.12292 6.70753 8.12292 6.7072 8.12292 6.70736L7.37292 6.70686ZM7.25681 7.44782C7.25664 7.4478 7.25697 7.44785 7.25681 7.44782ZM4.67996 10.0031C4.68017 10.0038 4.68005 10.0034 4.67996 10.0031Z" fill="#424242"/>
</svg>
