<svg width="24" height="24" viewBox="0 0 24 24" fill="none" xmlns="http://www.w3.org/2000/svg">
<path fill-rule="evenodd" clip-rule="evenodd" d="M22 12C22 17.5228 17.5228 22 12 22C6.47715 22 2 17.5228 2 12C2 6.47715 6.47715 2 12 2C17.5228 2 22 6.47715 22 12ZM15.5355 8.46446C15.145 8.07394 14.5118 8.07394 14.1213 8.46446L12 10.5858L9.87873 8.46446C9.4882 8.07394 8.85504 8.07394 8.46451 8.46446C8.07399 8.85498 8.07399 9.48815 8.46451 9.87867L10.5858 12L8.46446 14.1213C8.07394 14.5118 8.07394 15.145 8.46446 15.5355C8.85499 15.9261 9.48815 15.9261 9.87868 15.5355L12 13.4142L14.1214 15.5355C14.5119 15.9261 15.1451 15.9261 15.5356 15.5355C15.9261 15.145 15.9261 14.5118 15.5356 14.1213L13.4142 12L15.5355 9.87867C15.9261 9.48815 15.9261 8.85498 15.5355 8.46446Z" fill="#A5A5A5"/>
</svg>
