<svg width="24" height="24" viewBox="0 0 24 24" fill="none" xmlns="http://www.w3.org/2000/svg">
<path fill-rule="evenodd" clip-rule="evenodd" d="M3.875 19.5C3.875 19.1548 4.15482 18.875 4.5 18.875H19.5C19.8452 18.875 20.125 19.1548 20.125 19.5C20.125 19.8452 19.8452 20.125 19.5 20.125H4.5C4.15482 20.125 3.875 19.8452 3.875 19.5Z" fill="#808080"/>
<path fill-rule="evenodd" clip-rule="evenodd" d="M15.6228 3.875C15.7887 3.87497 15.9477 3.94086 16.065 4.05815L19.1087 7.10321C19.3527 7.34727 19.3527 7.74285 19.1087 7.9869L10.4909 16.6085C10.3736 16.7258 10.2146 16.7917 10.0488 16.7917H7C6.65482 16.7917 6.375 16.5118 6.375 16.1667V13.1333C6.375 12.9676 6.44075 12.8088 6.55779 12.6916L15.1807 4.05832C15.2979 3.94098 15.457 3.87503 15.6228 3.875ZM15.6231 5.38424L7.625 13.3919V15.5417H9.78986L17.783 7.54506L15.6231 5.38424Z" fill="#808080"/>
<path fill-rule="evenodd" clip-rule="evenodd" d="M12.5997 6.55806C12.8438 6.31398 13.2395 6.31398 13.4836 6.55806L16.6086 9.68306C16.8526 9.92714 16.8526 10.3229 16.6086 10.5669C16.3645 10.811 15.9688 10.811 15.7247 10.5669L12.5997 7.44194C12.3556 7.19786 12.3556 6.80214 12.5997 6.55806Z" fill="#808080"/>
</svg>
