<svg width="24" height="24" viewBox="0 0 24 24" fill="none" xmlns="http://www.w3.org/2000/svg">
<g clip-path="url(#clip0_1597_3152)">
<g clip-path="url(#clip1_1597_3152)">
<path d="M11.7692 2.50795C11.8546 2.30263 12.1454 2.30263 12.2308 2.50795L14.247 7.35537C14.499 7.96128 15.0688 8.37528 15.7229 8.42772L20.9561 8.84726C21.1778 8.86503 21.2677 9.14166 21.0988 9.28633L17.1117 12.7017C16.6133 13.1287 16.3956 13.7985 16.5479 14.4368L17.766 19.5436C17.8176 19.7599 17.5823 19.9308 17.3925 19.8149L12.9122 17.0783C12.3522 16.7363 11.6478 16.7363 11.0878 17.0783L6.60746 19.8149C6.41769 19.9308 6.18237 19.7599 6.23397 19.5436L7.45211 14.4368C7.60437 13.7985 7.38672 13.1287 6.88834 12.7017L2.90119 9.28633C2.73231 9.14166 2.82219 8.86503 3.04386 8.84726L8.27705 8.42772C8.93119 8.37528 9.501 7.96128 9.75301 7.35537L11.7692 2.50795Z" stroke="#808080" stroke-width="1.5"/>
</g>
</g>
<defs>
<clipPath id="clip0_1597_3152">
<rect width="24" height="24" fill="white"/>
</clipPath>
<clipPath id="clip1_1597_3152">
<rect width="24" height="24" fill="white"/>
</clipPath>
</defs>
</svg>
