<svg width="24" height="24" viewBox="0 0 24 24" fill="none" xmlns="http://www.w3.org/2000/svg">
<g clip-path="url(#clip0_1597_2848)">
<g clip-path="url(#clip1_1597_2848)">
<path d="M11.0767 2.21993C11.4183 1.39863 12.5817 1.39864 12.9233 2.21993L14.9395 7.06735C15.0835 7.41358 15.4091 7.65015 15.7829 7.68012L21.0161 8.09966C21.9027 8.17074 22.2623 9.27725 21.5867 9.85592L17.5996 13.2713C17.3148 13.5153 17.1904 13.8981 17.2774 14.2628L18.4956 19.3695C18.702 20.2348 17.7607 20.9186 17.0016 20.455L12.5213 17.7184C12.2012 17.5229 11.7988 17.5229 11.4787 17.7184L6.9984 20.455C6.2393 20.9186 5.29805 20.2348 5.50444 19.3695L6.72257 14.2628C6.80958 13.8981 6.68521 13.5153 6.40042 13.2713L2.41328 9.85592C1.73774 9.27725 2.09727 8.17074 2.98392 8.09966L8.21712 7.68012C8.59091 7.65015 8.91652 7.41358 9.06052 7.06735L11.0767 2.21993Z" fill="#F9603E"/>
</g>
</g>
<defs>
<clipPath id="clip0_1597_2848">
<rect width="24" height="24" fill="white"/>
</clipPath>
<clipPath id="clip1_1597_2848">
<rect width="24" height="24" fill="white"/>
</clipPath>
</defs>
</svg>
