<svg width="24" height="24" viewBox="0 0 24 24" fill="none" xmlns="http://www.w3.org/2000/svg">
<path fill-rule="evenodd" clip-rule="evenodd" d="M10.1482 10.4491C10.4934 10.4491 10.7732 10.7289 10.7732 11.0741V16.6297C10.7732 16.9748 10.4934 17.2547 10.1482 17.2547C9.80302 17.2547 9.52319 16.9748 9.52319 16.6297V11.0741C9.52319 10.7289 9.80302 10.4491 10.1482 10.4491ZM13.8519 10.4491C14.1971 10.4491 14.4769 10.7289 14.4769 11.0741V16.6297C14.4769 16.9748 14.1971 17.2547 13.8519 17.2547C13.5067 17.2547 13.2269 16.9748 13.2269 16.6297V11.0741C13.2269 10.7289 13.5067 10.4491 13.8519 10.4491Z" fill="#808080"/>
<path fill-rule="evenodd" clip-rule="evenodd" d="M5.81946 6.74536H18.1806V19.0833C18.1806 20.1189 17.3411 20.9583 16.3056 20.9583H7.69446C6.65892 20.9583 5.81946 20.1189 5.81946 19.0833V6.74536ZM7.06946 7.99536V19.0833C7.06946 19.4285 7.34928 19.7083 7.69446 19.7083H16.3056C16.6507 19.7083 16.9306 19.4285 16.9306 19.0833V7.99536H7.06946Z" fill="#808080"/>
<path fill-rule="evenodd" clip-rule="evenodd" d="M8.59717 7.99536H15.4027V6.16666C15.4027 4.44077 14.0036 3.04166 12.2777 3.04166H11.7222C9.99628 3.04166 8.59717 4.44077 8.59717 6.16666V7.99536ZM9.84717 6.74536V6.16666C9.84717 5.13112 10.6866 4.29166 11.7222 4.29166H12.2777C13.3133 4.29166 14.1527 5.13112 14.1527 6.16666V6.74536H9.84717Z" fill="#808080"/>
<path fill-rule="evenodd" clip-rule="evenodd" d="M3.875 7.41669C3.875 7.07151 4.15482 6.79169 4.5 6.79169H19.5C19.8452 6.79169 20.125 7.07151 20.125 7.41669C20.125 7.76186 19.8452 8.04169 19.5 8.04169H4.5C4.15482 8.04169 3.875 7.76186 3.875 7.41669Z" fill="#808080"/>
</svg>
