<?xml version="1.0" encoding="utf-8"?>
<!-- Generator: Adobe Illustrator 27.8.1, SVG Export Plug-In . SVG Version: 6.00 Build 0)  -->
<svg version="1.1" id="Layer_1" xmlns="http://www.w3.org/2000/svg" xmlns:xlink="http://www.w3.org/1999/xlink" x="0px" y="0px"
	 viewBox="0 0 32 32" style="enable-background:new 0 0 32 32;" xml:space="preserve">
<style type="text/css">
	.st0{fill:#F85F3E;}
	.st1{fill:#FFFFFF;}
</style>
<g>
	<rect class="st0" width="32" height="32"/>
	<g>
		<ellipse class="st1" cx="9.34" cy="13.91" rx="5.91" ry="7.07"/>
	</g>
	<g>
		<ellipse class="st1" cx="21.95" cy="13.91" rx="5.91" ry="7.07"/>
	</g>
	<g>
		<path class="st0" d="M15.49,19.46c-1.21,0.04-2.42,0.07-3.63,0.11c0.62,1.28,1.77,2.37,2.91,3.43c0.26-0.99,0.6-1.97,1.03-2.93"/>
	</g>
	<g>
		<path d="M23.47,24.24c0.01-0.03,0-0.06-0.02-0.09l-0.05-0.06c-0.02-0.02-0.04-0.04-0.07-0.04l-0.04-0.01c0,0,0,0-0.01,0
			l-0.09-0.08c0.01-0.05-0.03-0.1-0.1-0.12l-0.04-0.01c-0.04-0.01-0.09-0.01-0.12,0.01c-0.01-0.01-0.02-0.01-0.03-0.02l-0.12-0.05
			c-0.01-0.02-0.03-0.03-0.06-0.04c-0.06-0.03-0.16-0.03-0.21,0c-0.02,0.02-0.04,0.04-0.05,0.05c-0.01,0-0.02,0-0.03,0.01l0.01,0.02
			c-0.01,0.02-0.02,0.04-0.01,0.06c-0.02,0-0.03,0-0.05,0l-0.09,0.01c-0.04,0.01-0.07,0.02-0.1,0.05c-0.04,0.03-0.05,0.06-0.04,0.1
			c0,0-0.01,0-0.01,0.01c0,0-0.01,0-0.01,0c-0.06-0.01-0.14,0.01-0.18,0.04c-0.01,0.01-0.01,0.01-0.02,0.02
			c-0.02,0-0.04,0.01-0.05,0.01c-0.01,0-0.02,0.01-0.03,0.01c-0.02,0.01-0.03,0.02-0.04,0.03c-0.02,0.01-0.04,0.01-0.05,0.02
			c-0.03,0.01-0.06,0.03-0.07,0.06c-0.05,0.01-0.09,0.04-0.1,0.08c-0.03,0-0.05,0.01-0.07,0.03c-0.02,0.01-0.03,0.03-0.04,0.04
			c-0.02,0-0.04,0-0.06,0.01c-0.05-0.01-0.11,0-0.15,0.03c-0.03,0.01-0.06,0.02-0.07,0.04c-0.04,0-0.08,0.01-0.1,0.02
			c-0.02,0.01-0.03,0.02-0.04,0.03c-0.01,0-0.01,0-0.02,0c0,0,0,0,0,0c-0.02,0-0.05,0-0.07,0c-0.04,0.01-0.08,0.04-0.09,0.07
			c-0.02,0-0.04,0-0.06,0.01c0,0-0.01,0-0.01,0c-0.05,0.01-0.09,0.04-0.1,0.07c0,0,0,0-0.01,0c0,0,0,0,0,0
			c-0.04-0.01-0.08-0.01-0.12,0c-0.04,0.01-0.07,0.03-0.08,0.06c-0.01,0.01-0.02,0.01-0.02,0.02c-0.01,0-0.02,0-0.03,0
			c-0.04,0.01-0.06,0.02-0.08,0.05c-0.01,0-0.02,0-0.03,0c-0.04,0-0.07,0.01-0.1,0.02c-0.01,0-0.02,0-0.03,0
			c-0.02,0-0.03-0.01-0.05-0.01c-0.03,0-0.09,0.01-0.14,0.05c-0.01,0-0.03,0-0.04,0c-0.01,0-0.02,0.01-0.03,0.01
			c-0.02,0-0.03,0-0.05,0.01c-0.04,0-0.08,0-0.11,0.02c-0.01,0.01-0.02,0.02-0.03,0.03c0,0-0.01,0-0.01,0
			c-0.05-0.02-0.11-0.02-0.15,0.01c-0.01,0-0.02,0.01-0.02,0.02c-0.03,0-0.06,0.01-0.08,0.03l-0.02,0.01l-0.1,0
			c-0.04,0-0.07,0.01-0.1,0.03c-0.01,0-0.03,0.01-0.04,0.02c0,0,0,0,0,0c-0.04-0.01-0.08-0.02-0.12-0.01c-0.01,0-0.02,0-0.02,0.01
			c-0.05,0-0.1,0.02-0.13,0.05c-0.04-0.01-0.08-0.01-0.12,0c-0.02,0.01-0.04,0.01-0.05,0.03c-0.03-0.01-0.06-0.02-0.1-0.02
			c-0.03,0-0.06,0.01-0.08,0.02c-0.03-0.01-0.06-0.01-0.08,0c-0.01,0-0.02,0-0.03,0.01c-0.01,0-0.03,0-0.05,0
			c-0.01,0-0.03,0-0.04,0.01c-0.03,0-0.06,0.01-0.09,0.03c-0.01,0-0.03,0-0.04,0c-0.01,0-0.02-0.01-0.04-0.01
			c-0.08-0.01-0.16,0.03-0.18,0.09l-0.01,0.04c-0.03-0.01-0.06-0.01-0.09,0c-0.01,0-0.01,0-0.02,0c-0.02,0-0.04,0.01-0.05,0.01
			c-0.01-0.02-0.03-0.03-0.05-0.05c-0.03-0.04-0.08-0.06-0.14-0.06c-0.06,0-0.1,0.03-0.13,0.06c-0.03,0-0.06,0-0.09,0.01
			c-0.02-0.05-0.09-0.09-0.16-0.08c-0.03,0-0.06,0.01-0.08,0.03c-0.02,0-0.04-0.01-0.06,0c-0.02,0-0.03,0.01-0.04,0.01
			c-0.02-0.01-0.05-0.02-0.08-0.02c-0.02,0-0.04,0.01-0.06,0.01c-0.01,0-0.02,0-0.04,0c-0.04,0-0.07,0.02-0.09,0.04
			c-0.03,0-0.05,0-0.08,0.01c-0.02-0.02-0.05-0.04-0.08-0.04c-0.06-0.01-0.11,0-0.15,0.03c-0.04-0.04-0.1-0.06-0.17-0.05l-0.01,0
			c-0.01,0-0.01,0-0.02,0c-0.03-0.03-0.09-0.04-0.14-0.04c0,0,0,0,0,0c-0.01,0-0.03-0.01-0.04-0.01c-0.02,0-0.05,0-0.07,0.01
			c-0.01,0-0.02,0-0.03,0c-0.01,0-0.02-0.01-0.03-0.01C16,25.1,15.98,25.1,15.96,25.1c-0.02-0.01-0.04-0.03-0.06-0.03
			c-0.04-0.01-0.08-0.01-0.12,0c-0.02,0-0.04-0.01-0.05-0.01c0,0-0.01,0-0.01,0c-0.04-0.02-0.09-0.02-0.14,0l0,0
			c-0.03-0.03-0.07-0.04-0.11-0.04c-0.02,0-0.03-0.01-0.05-0.01c-0.01,0-0.02,0-0.03-0.01c-0.05-0.01-0.1-0.01-0.14,0.01
			c0,0-0.01-0.01-0.01-0.01c-0.02-0.02-0.05-0.03-0.08-0.04c-0.02-0.01-0.04-0.01-0.06-0.01c0,0,0,0-0.01,0
			c-0.03-0.01-0.07-0.02-0.11-0.02c0,0-0.01,0-0.01,0c-0.01-0.01-0.03-0.02-0.05-0.02c-0.01,0-0.02,0-0.03-0.01
			c-0.06-0.02-0.13-0.02-0.17,0.02l0,0l-0.01-0.02c-0.01-0.02-0.02-0.03-0.04-0.04c-0.02-0.02-0.04-0.03-0.07-0.04
			c-0.05-0.01-0.1,0-0.14,0.02c0,0,0-0.01,0-0.01c-0.02-0.03-0.08-0.06-0.12-0.08c-0.02,0-0.03-0.01-0.05-0.01
			c-0.03-0.02-0.06-0.03-0.1-0.03c-0.04-0.02-0.09-0.02-0.13-0.02c-0.01-0.02-0.03-0.04-0.06-0.05c-0.02-0.01-0.05-0.02-0.07-0.02
			c-0.02-0.02-0.05-0.03-0.07-0.03c-0.02-0.01-0.04-0.02-0.07-0.02c-0.01-0.01-0.02-0.02-0.04-0.02c-0.03-0.01-0.06-0.01-0.09-0.01
			c-0.01-0.01-0.02-0.03-0.04-0.04c-0.02-0.01-0.05-0.02-0.08-0.02c0,0,0,0-0.01,0c-0.03-0.02-0.06-0.02-0.1-0.02
			c-0.01,0-0.01-0.01-0.02-0.01c-0.01-0.02-0.03-0.04-0.05-0.05c-0.02-0.01-0.04-0.02-0.06-0.02c-0.01-0.01-0.03-0.03-0.05-0.03
			c-0.01,0-0.02-0.01-0.03-0.01c-0.03-0.02-0.08-0.03-0.13-0.02c0,0-0.01,0-0.01,0l-0.04-0.03c-0.02-0.01-0.04-0.02-0.06-0.03
			c-0.02-0.03-0.05-0.05-0.09-0.06c0,0,0,0,0,0c-0.01-0.03-0.04-0.06-0.1-0.07c0,0-0.01,0-0.01,0c-0.01-0.03-0.04-0.05-0.08-0.07
			c-0.03-0.01-0.05-0.01-0.08-0.01c-0.01-0.01-0.02-0.01-0.03-0.02c-0.01-0.02-0.02-0.03-0.04-0.04l-0.06-0.04
			c-0.01-0.01-0.02-0.01-0.03-0.01c-0.03-0.03-0.07-0.05-0.11-0.05c-0.01-0.01-0.02-0.03-0.03-0.04c-0.01,0-0.01-0.01-0.02-0.01
			c-0.01-0.01-0.02-0.02-0.03-0.03c-0.01,0-0.01-0.01-0.02-0.01c-0.01,0-0.01-0.01-0.02-0.01c-0.04-0.03-0.1-0.03-0.15-0.02
			c0-0.01-0.01-0.01-0.01-0.02c-0.05-0.05-0.15-0.06-0.21-0.02c-0.06,0.03-0.08,0.06-0.09,0.09c-0.01,0-0.01,0-0.02,0
			c-0.06-0.01-0.11,0.01-0.15,0.04l-0.03,0.03c-0.02,0.02-0.03,0.03-0.03,0.05c-0.01,0-0.02,0.01-0.03,0.02l-0.06,0.05
			c0,0,0,0-0.01,0.01c-0.07,0-0.14,0.05-0.14,0.11l0,0.03c0,0.02,0,0.04,0,0.06l-0.01-0.01c-0.05,0.05-0.03,0.11,0.03,0.15
			c0,0,0,0,0,0c-0.01,0.01-0.02,0.03-0.02,0.05c-0.05,0.04-0.04,0.11,0.01,0.15l0.02,0.01c0,0.05,0.04,0.1,0.11,0.11l0.08,0.02
			c0.01,0,0.03,0,0.04,0c0,0,0,0,0,0c0.01,0,0.01,0,0.02,0c0.01,0.02,0.02,0.04,0.04,0.05c-0.02,0.05,0.01,0.09,0.06,0.12
			c0.02,0.01,0.03,0.01,0.05,0.02c0.03,0.03,0.06,0.04,0.11,0.04c0.01,0,0.01,0.01,0.02,0.01c0.03,0.01,0.05,0.01,0.07,0.01
			c0.02,0,0.03,0,0.05-0.01c0,0.04,0.03,0.07,0.07,0.09c0.02,0.01,0.05,0.02,0.08,0.02c0.01,0,0.02,0,0.03,0
			c0,0.02,0.01,0.04,0.02,0.06c0.02,0.02,0.04,0.03,0.07,0.04c0.01,0.01,0.01,0.01,0.02,0.02c0.02,0.02,0.05,0.02,0.08,0.02
			c0.01,0,0.02,0.01,0.04,0.01c0.01,0,0.01,0,0.02,0c0.02,0.03,0.06,0.06,0.1,0.07l0.05,0.03c0.03,0.02,0.06,0.03,0.09,0.03
			c0.03,0.03,0.07,0.05,0.13,0.05c0,0,0.01,0,0.01,0c0.01,0,0.02,0,0.03,0c0.02,0.03,0.05,0.05,0.09,0.06
			c0.02,0,0.03,0.01,0.05,0.01c0.01,0,0.01,0,0.02,0c0.02,0.05,0.08,0.08,0.14,0.08c0,0,0,0,0.01,0c0.01,0,0.01,0,0.02,0l0.03,0.02
			c0.02,0.02,0.05,0.03,0.08,0.03c0.01,0.01,0.03,0.02,0.05,0.02c0,0,0.01,0,0.01,0.01c0.02,0.01,0.04,0.01,0.06,0.01
			c0.05,0,0.1-0.02,0.13-0.05c0.01,0.01,0.01,0.02,0.02,0.03c0.03,0.03,0.07,0.04,0.12,0.04c0,0,0,0,0,0
			c0.01,0.05,0.07,0.09,0.14,0.09c0,0,0,0,0.01,0c0.02,0,0.03,0,0.05-0.01c0.01,0.01,0.03,0.01,0.05,0.01c0.01,0,0.02,0,0.03,0
			c0.02,0,0.04,0,0.06-0.01l0.01,0.02c0,0,0,0,0,0c0.01,0.05,0.08,0.09,0.15,0.09c0.01,0,0.01,0,0.02,0l0.04,0
			c0.01,0.02,0.04,0.05,0.08,0.06c0.03,0.01,0.06,0.02,0.08,0.02c0.01,0,0.01,0,0.02,0c0.02,0.01,0.04,0.02,0.06,0.02
			c0.02,0.01,0.05,0.01,0.07,0.01c0.01,0,0.02,0,0.03,0l0.02,0c0.02,0.03,0.07,0.05,0.11,0.05c0,0,0.01,0,0.01,0
			c0.01,0,0.02,0,0.04,0c0,0,0,0,0,0l0.04,0.01c0.01,0,0.03,0,0.04,0c0.02,0,0.04,0,0.06-0.01c0.01,0,0.01,0.01,0.02,0.01l0.05,0.02
			c0.02,0.01,0.04,0.02,0.06,0.02c0.03,0.01,0.06,0.02,0.09,0.02c0.01,0,0.01,0,0.02,0l0.12-0.01c0,0,0.01,0.01,0.01,0.01
			c0,0,0.01,0.01,0.01,0.01c0.02,0.02,0.05,0.03,0.08,0.03l0.02,0c0.01,0,0.01,0,0.02,0c0.02,0,0.03,0.01,0.05,0.01
			c0.01,0,0.03,0,0.04,0l0.06-0.01c0,0,0,0,0.01,0l0,0.04c0.01,0,0.02,0,0.03,0c0.03,0,0.06-0.01,0.08-0.02
			c0.03,0.02,0.06,0.03,0.1,0.03c0.01,0,0.02,0,0.03,0c0.02,0.02,0.06,0.03,0.1,0.03c0,0,0.01,0,0.01,0c0.02,0,0.05,0,0.06-0.01
			c0.01,0,0.01,0,0.02,0c0.02,0.02,0.05,0.03,0.07,0.04c0.01,0,0.03,0.01,0.05,0.01c0.01,0,0.01,0,0.02,0
			c0.02,0.01,0.05,0.01,0.07,0.01c0,0,0.01,0,0.01,0c0.02,0,0.04,0,0.05-0.01c0.02,0.01,0.05,0.02,0.08,0.02c0,0,0,0,0,0
			c0.01,0,0.01,0,0.02,0l0.05,0c0.01,0,0.01,0,0.02,0c0.05,0,0.1-0.02,0.12-0.05c0.01,0,0.02,0,0.03,0c0,0,0.01,0,0.01,0
			c0.03,0,0.05-0.01,0.07-0.02c0.02,0.01,0.04,0.02,0.06,0.03c0,0,0,0,0,0c0,0,0,0,0.01,0c0.03,0.03,0.07,0.05,0.12,0.05
			c0,0,0,0,0,0c0.05,0,0.1-0.02,0.12-0.05c0.02,0.01,0.03,0.01,0.05,0.01c0.01,0.01,0.03,0.02,0.05,0.02
			c0.03,0.02,0.06,0.03,0.1,0.03c0.01,0,0.03,0,0.04,0c0.03-0.01,0.06-0.02,0.08-0.04c0.06-0.01,0.1-0.04,0.12-0.07l0.04-0.02
			l0.04,0.05c0.03,0.04,0.08,0.06,0.13,0.06c0.02,0,0.05,0,0.07-0.01c0.02-0.01,0.03-0.02,0.04-0.03c0.02,0.01,0.05,0.02,0.08,0.02
			c0.01,0,0.02,0,0.03,0c0.03,0.01,0.07,0.02,0.1,0.01c0.01,0,0.03,0,0.04,0c0.02,0,0.03,0,0.05,0c0.02,0,0.04,0.01,0.07,0.01
			c0.03,0,0.06,0,0.1-0.02c0.03-0.01,0.05-0.03,0.07-0.05c0.01,0,0.01,0,0.02-0.01c0.03,0.01,0.06,0.01,0.09,0.02
			c0,0,0.01,0,0.01,0.01c0.03,0.02,0.06,0.03,0.1,0.03c0.02,0,0.04,0,0.06-0.01c0.01,0,0.01,0,0.01-0.01
			c0.02,0.01,0.04,0.01,0.06,0.01c0.02,0,0.03,0,0.05-0.01c0.02,0,0.03-0.01,0.05-0.02c0.01,0,0.01,0,0.02,0
			c0.01,0,0.02,0,0.03,0.01c0.01,0,0.01,0,0.02,0c0.02,0,0.04,0,0.06-0.01c0.01,0,0.01,0,0.02,0c0,0,0,0,0.01,0
			c0.02,0,0.04-0.01,0.06-0.01c0.01,0,0.02,0,0.02,0c0.01,0,0.03,0,0.04,0c0,0,0.01,0,0.01,0c0.01,0,0.02,0,0.02,0
			c0.02,0,0.04-0.01,0.06-0.02c0.01,0,0.02,0,0.02,0c0.04,0,0.07-0.01,0.1-0.03c0.02,0.01,0.04,0.01,0.05,0.01
			c0.05,0,0.1-0.02,0.13-0.06c0,0,0,0,0,0c0.01,0,0.02,0,0.04,0c0.01,0,0.01,0,0.02,0c0.01,0,0.01,0,0.02,0
			c0.02,0.01,0.05,0.01,0.07,0.01c0,0,0,0,0,0l0.01-0.04c0,0,0.01,0,0.01,0v0.04c0.06,0,0.1-0.03,0.11-0.07
			c0.02,0,0.03,0.01,0.05,0.01c0.02,0,0.05-0.01,0.07-0.01l0.07,0c0.02,0,0.04,0,0.06-0.01c0.01,0,0.02,0,0.03,0
			c0.03,0,0.06-0.01,0.08-0.02c0.02-0.01,0.04-0.02,0.05-0.04c0.01,0,0.02-0.01,0.02-0.01c0,0,0.01-0.01,0.01-0.01
			c0.02,0.01,0.04,0.01,0.07,0.01c0,0,0,0,0,0c0.04,0,0.08-0.02,0.11-0.04c0.01,0,0.01,0,0.02,0c0,0,0,0,0.01,0l0.04,0
			c0.01,0,0.02,0,0.02,0c0.03,0,0.06-0.01,0.08-0.02c0.04,0,0.09-0.02,0.11-0.05c0.01,0,0.03,0,0.04-0.01l0.05-0.01
			c0.01,0,0.01,0,0.02-0.01c0.01,0,0.03,0.01,0.04,0.01c0.02,0,0.05,0,0.07-0.01c0.02-0.01,0.03-0.01,0.04-0.02
			c0.02,0,0.04-0.01,0.06-0.01c0,0,0.01,0,0.01-0.01c0.04,0,0.08-0.02,0.11-0.04c0.02-0.01,0.03-0.02,0.05-0.03
			c0.01,0,0.02,0,0.02,0c0.05-0.01,0.09-0.04,0.11-0.07c0.02-0.02,0.03-0.04,0.04-0.06c0,0,0,0,0.01,0
			c0.03,0.03,0.08,0.05,0.12,0.05c0.02,0,0.04,0,0.07-0.01c0.03-0.01,0.06-0.03,0.07-0.05c0.03,0,0.05-0.01,0.07-0.01l-0.01-0.02
			c0.01,0,0.02,0,0.02,0c0,0,0.01,0,0.01,0c0.05,0,0.09-0.02,0.12-0.04c0.01-0.01,0.02-0.01,0.03-0.02c0,0,0,0,0,0
			c0.05,0,0.09-0.02,0.12-0.05c0.02-0.01,0.03-0.02,0.04-0.03c0.02,0,0.04-0.01,0.06-0.02c0.03-0.01,0.05-0.04,0.06-0.06
			c0.02,0,0.03,0.01,0.05,0.01c0.03,0,0.06-0.01,0.09-0.02c0.02-0.01,0.03-0.02,0.04-0.03c0.04,0,0.09-0.02,0.12-0.05c0,0,0,0,0,0
			c0.02-0.01,0.05-0.02,0.07-0.03l0.05-0.04c0.01-0.01,0.01-0.01,0.02-0.02c0.01,0,0.02,0,0.02,0c0.03,0,0.06-0.01,0.09-0.02
			l0.03-0.02c0.03-0.02,0.05-0.04,0.06-0.06c0.03,0,0.06,0,0.09-0.01c0.05,0,0.09-0.03,0.12-0.06c0.01-0.02,0.02-0.04,0.02-0.06
			c0.01,0,0.02,0,0.03,0c0.01,0,0.02,0,0.03,0c0.06-0.01,0.11-0.05,0.12-0.09c0.01-0.01,0.01-0.02,0.02-0.02
			c0.03-0.01,0.08-0.04,0.1-0.09c0-0.01,0-0.01,0.01-0.02c0.01,0,0.01-0.01,0.02-0.01l0.03-0.03c0.02,0.01,0.04,0.01,0.06,0.01
			c0.05,0,0.09-0.02,0.12-0.04c0,0,0,0,0.01-0.01c0.02,0,0.04-0.01,0.06-0.03c0.05-0.03,0.12-0.1,0.06-0.24
			C23.52,24.27,23.5,24.25,23.47,24.24z M11.34,24.2l-0.06-0.03c0.01-0.02,0.02-0.03,0.02-0.04l0.05,0.05
			C11.35,24.19,11.34,24.19,11.34,24.2z M20.95,24.95c-0.01,0-0.01-0.01-0.02-0.01c0.01,0,0.03,0,0.04-0.01l0.01,0c0,0,0,0,0,0
			C20.97,24.94,20.96,24.95,20.95,24.95z"/>
		<g>
			<path d="M28.91,13.33c-0.01-0.04-0.03-0.07-0.07-0.09c0.26-0.16,0.17-0.35,0.09-0.47c0.06-0.05,0.08-0.12,0.03-0.19
				c0,0,0,0-0.01-0.01c0.02-0.03,0.03-0.07,0.02-0.11c-0.03-0.08-0.06-0.17-0.09-0.25l-0.04-0.09l-0.06,0.01
				c0.03-0.01,0.05-0.03,0.07-0.05l0.04-0.05c0.04-0.05,0.04-0.11,0-0.16c-0.02-0.02-0.04-0.04-0.07-0.05
				c0.03-0.03,0.04-0.07,0.04-0.11l-0.02-0.13c0-0.03-0.02-0.05-0.04-0.07c-0.01-0.03-0.04-0.07-0.08-0.09
				c-0.04-0.02-0.08-0.03-0.12-0.03c0.04-0.04,0.05-0.09,0.03-0.14c0.05-0.03,0.09-0.08,0.08-0.13l-0.02-0.15
				c0-0.05-0.04-0.09-0.09-0.11c0.04-0.04,0.05-0.09,0.03-0.14c-0.06-0.12-0.12-0.23-0.18-0.35c-0.02-0.03-0.04-0.05-0.07-0.07
				c0,0,0-0.01,0-0.01c0-0.07-0.01-0.15-0.02-0.22c0-0.03-0.01-0.05-0.02-0.08c0-0.02,0-0.04-0.01-0.07L28.3,9.88
				c-0.01-0.02-0.02-0.04-0.04-0.05c0-0.03-0.01-0.06-0.03-0.09l-0.13-0.17c0.02-0.03,0.02-0.07,0-0.11l-0.05-0.09
				c-0.03-0.06-0.1-0.08-0.18-0.08c-0.02-0.02-0.04-0.03-0.07-0.04l-0.13-0.04c-0.02-0.01-0.03-0.01-0.05-0.01
				c0.03-0.02,0.05-0.04,0.06-0.06l0.07-0.15c0.04-0.08-0.02-0.16-0.12-0.19c-0.04-0.01-0.09-0.01-0.13,0
				c0.05-0.12,0.09-0.24-0.01-0.33c-0.04-0.04-0.1-0.06-0.15-0.07c0.01-0.05-0.01-0.1-0.05-0.14c0-0.04-0.02-0.07-0.05-0.1
				l-0.09-0.07l0.01-0.03c0.02-0.06,0-0.13-0.07-0.16l-0.04-0.02C27.05,7.86,27.02,7.85,27,7.85l-0.01-0.08
				c-0.01-0.05-0.06-0.1-0.12-0.12c-0.01-0.05-0.05-0.09-0.11-0.12c-0.03-0.01-0.06-0.02-0.09-0.02c0,0-0.01-0.01-0.01-0.01
				l-0.01-0.08c-0.01-0.05-0.05-0.1-0.1-0.12c-0.01-0.02-0.02-0.04-0.04-0.06l-0.14-0.13c-0.07-0.06-0.2-0.07-0.28-0.02
				c-0.09,0.05-0.1,0.15-0.03,0.21l0.02,0.02c-0.05-0.01-0.11-0.02-0.16-0.04c-0.01,0-0.02,0-0.03,0c0,0-0.01-0.01-0.01-0.01
				c0-0.02,0-0.03-0.01-0.05c0.01-0.01,0.01-0.02,0.02-0.03c0.04-0.02,0.06-0.05,0.07-0.08c0.04-0.08-0.02-0.15-0.07-0.19
				c0.02-0.05,0-0.11-0.06-0.14c-0.06-0.04-0.15-0.05-0.22-0.03c-0.07-0.07-0.15-0.14-0.22-0.21c-0.03-0.02-0.06-0.04-0.09-0.04
				c0-0.04-0.03-0.08-0.08-0.11c-0.03-0.02-0.07-0.03-0.11-0.03c-0.02-0.05-0.07-0.09-0.13-0.11c-0.02-0.04-0.06-0.07-0.11-0.09
				c-0.1-0.03-0.21,0-0.25,0.07c-0.05-0.01-0.1-0.01-0.14,0c-0.03-0.02-0.07-0.05-0.12-0.07c-0.03-0.01-0.05-0.02-0.08-0.03
				c-0.09-0.14-0.28-0.2-0.41-0.23c-0.04-0.01-0.08-0.02-0.11-0.03c-0.02-0.01-0.05-0.02-0.08-0.02c0,0,0,0,0,0
				c-0.01,0-0.02,0-0.02,0l-0.02,0l-0.07-0.04c-0.05-0.03-0.12-0.03-0.17-0.02c-0.05,0.01-0.09,0.04-0.12,0.08
				c-0.07-0.05-0.13-0.06-0.19-0.07c-0.04,0-0.1,0-0.16,0.02l-0.01-0.02c-0.04-0.05-0.11-0.08-0.19-0.08
				c-0.04,0-0.08,0.01-0.11,0.03c0,0-0.01,0-0.01-0.01c-0.07-0.03-0.15-0.02-0.21,0.01c-0.04-0.01-0.08,0-0.11,0
				c-0.09,0.02-0.14,0.07-0.18,0.13c-0.02,0.01-0.04,0.02-0.06,0.03l0,0c-0.01-0.02-0.03-0.05-0.05-0.06
				c-0.04-0.04-0.11-0.07-0.19-0.06l-0.06,0.01c-0.05,0-0.09,0.02-0.12,0.05l-0.03-0.01c-0.08-0.02-0.16-0.01-0.22,0.04
				c-0.01,0-0.02-0.01-0.03-0.01c-0.07-0.02-0.15-0.01-0.2,0.02c-0.02,0-0.04,0-0.06,0c-0.05,0-0.09,0.02-0.12,0.05
				c-0.05,0-0.1,0.02-0.13,0.05c-0.02,0.02-0.04,0.04-0.04,0.06c0,0-0.01,0-0.01,0c-0.01,0-0.01,0-0.02-0.01c0,0,0,0,0,0l0-0.01
				l-0.05-0.01c-0.07-0.02-0.15,0-0.2,0.04c-0.07,0.02-0.15,0.03-0.22,0.05c-0.04,0.01-0.07,0.03-0.1,0.06
				c-0.03,0.01-0.06,0.02-0.1,0.03c-0.06,0-0.12,0.02-0.16,0.06c-0.05,0.02-0.1,0.05-0.14,0.08c-0.02,0-0.03,0.01-0.05,0.01
				c-0.12,0.04-0.29,0.09-0.39,0.2c-0.08,0-0.15,0.04-0.18,0.09c-0.03,0.01-0.06,0.03-0.08,0.05c0,0-0.01,0.01-0.01,0.01
				c-0.02,0-0.03,0.01-0.05,0.01l-0.11,0.04c-0.05,0.02-0.08,0.05-0.09,0.09c-0.05,0.01-0.09,0.03-0.12,0.06
				c-0.01,0-0.01,0.01-0.02,0.01c-0.05,0.03-0.07,0.08-0.06,0.12c-0.03,0.02-0.04,0.03-0.05,0.03c-0.01,0.01-0.01,0.02-0.02,0.02
				c-0.09,0.02-0.13,0.06-0.15,0.09c-0.11,0.01-0.19,0.07-0.19,0.15c0,0.01,0,0.01,0,0.02c-0.07,0.03-0.13,0.08-0.16,0.1
				C18,7.51,17.97,7.53,17.96,7.54c-0.07,0.02-0.12,0.06-0.14,0.12c0,0.02,0,0.04,0,0.06c-0.01,0.01-0.02,0.01-0.04,0.02l-0.13,0.11
				c-0.04,0.03-0.05,0.07-0.05,0.11c-0.03,0.01-0.05,0.02-0.07,0.03c-0.09,0.03-0.13,0.1-0.11,0.18l0.01,0.02l0,0
				c-0.04,0-0.08,0.02-0.11,0.04c-0.03,0.02-0.05,0.05-0.06,0.08c-0.01,0-0.01,0.01-0.02,0.01c-0.05,0.05-0.07,0.1-0.07,0.14
				c-0.03,0.02-0.06,0.04-0.08,0.07c0,0,0,0,0,0c0,0,0,0.01,0,0.01c0,0,0,0.01,0,0.01c0,0,0,0,0,0c0,0.01-0.01,0.02-0.01,0.03
				c-0.03,0.03-0.05,0.06-0.05,0.09l0,0.04C17,8.72,16.97,8.75,16.95,8.78c-0.01,0.02-0.02,0.04-0.02,0.05
				c-0.03,0.02-0.06,0.06-0.06,0.09c0,0,0,0,0,0C16.84,8.96,16.83,9,16.83,9.04l-0.02,0.03C16.8,9.1,16.8,9.13,16.8,9.16l-0.02,0.02
				c-0.02,0.03-0.03,0.05-0.02,0.08c0,0-0.01,0.01-0.01,0.01l-0.1,0.1c-0.02,0.02-0.04,0.05-0.04,0.08
				c-0.03,0.03-0.04,0.07-0.03,0.1l-0.02,0.2c0,0.01,0,0.03,0,0.04c-0.02,0.02-0.05,0.04-0.06,0.07c0,0-0.01,0.01-0.01,0.01
				c-0.01,0.01-0.02,0.02-0.03,0.03c0,0,0,0.01-0.01,0.01c-0.01,0.01-0.02,0.02-0.02,0.04l-0.01,0.03c0,0.01-0.01,0.02-0.01,0.03
				c-0.01,0.02-0.02,0.04-0.02,0.06c-0.01,0.01-0.02,0.03-0.03,0.04l-0.07,0.15c-0.03,0.06,0,0.13,0.07,0.17
				c-0.09,0.03-0.13,0.11-0.1,0.18c0,0.01,0.01,0.02,0.01,0.02c-0.06,0.03-0.1,0.07-0.1,0.13c0,0.03,0.01,0.06,0.03,0.09l-0.01,0.02
				c-0.02,0.02-0.04,0.05-0.04,0.08c-0.03,0.02-0.06,0.05-0.07,0.07c-0.02,0.03-0.02,0.07-0.01,0.1c-0.03,0.03-0.05,0.07-0.04,0.1
				c0,0.01,0,0.01,0,0.02C16,11.28,16,11.3,16,11.32c0,0.01,0.01,0.02,0.01,0.03c-0.03,0.03-0.04,0.06-0.04,0.09
				c0,0.01,0,0.01,0,0.02c-0.01-0.01-0.02-0.02-0.03-0.02c-0.04-0.02-0.08-0.03-0.12-0.03c0.04-0.04,0.05-0.09,0.03-0.14
				c0.05-0.03,0.09-0.08,0.08-0.13l-0.02-0.15c0-0.05-0.04-0.09-0.09-0.11c0.04-0.04,0.05-0.09,0.03-0.14
				c-0.06-0.12-0.12-0.23-0.18-0.35c-0.01-0.03-0.04-0.05-0.07-0.07c0,0,0-0.01,0-0.01c0-0.07-0.01-0.15-0.02-0.22
				c0-0.03-0.01-0.05-0.02-0.08c0-0.02,0-0.05-0.01-0.07l-0.02-0.06c-0.01-0.02-0.02-0.04-0.04-0.05c0-0.03,0-0.06-0.03-0.09
				l-0.13-0.17c0.02-0.03,0.02-0.07,0-0.11l-0.05-0.09C15.26,9.32,15.18,9.3,15.1,9.3c-0.02-0.02-0.04-0.03-0.07-0.04L14.9,9.21
				c-0.02-0.01-0.03-0.01-0.05-0.01c0.03-0.02,0.05-0.04,0.06-0.06l0.07-0.15c0.04-0.08-0.02-0.16-0.12-0.19
				c-0.04-0.01-0.09-0.01-0.13,0c0.05-0.12,0.09-0.24-0.01-0.33c-0.04-0.04-0.1-0.06-0.15-0.07c0.01-0.04-0.02-0.1-0.05-0.14
				c0-0.04-0.02-0.07-0.05-0.1l-0.09-0.07l0.01-0.03c0.02-0.06,0-0.12-0.07-0.16l-0.04-0.02c-0.02-0.01-0.04-0.02-0.07-0.03
				l-0.01-0.08c-0.01-0.05-0.06-0.1-0.12-0.12c-0.01-0.05-0.05-0.09-0.11-0.12c-0.03-0.01-0.06-0.02-0.09-0.02
				c0,0-0.01-0.01-0.01-0.01l-0.01-0.08c-0.01-0.05-0.05-0.1-0.1-0.12c-0.01-0.02-0.02-0.04-0.04-0.06l-0.14-0.13
				c-0.07-0.06-0.2-0.07-0.28-0.02c-0.09,0.05-0.1,0.15-0.03,0.21l0.02,0.02c-0.05-0.01-0.11-0.02-0.16-0.04c-0.01,0-0.02,0-0.03,0
				c0,0-0.01-0.01-0.01-0.01c0-0.02,0-0.03-0.01-0.05c0.01-0.01,0.01-0.02,0.02-0.03c0.04-0.02,0.06-0.05,0.07-0.08
				c0.04-0.08-0.02-0.15-0.07-0.19c0.02-0.05,0-0.11-0.06-0.14c-0.06-0.04-0.15-0.05-0.22-0.03c-0.07-0.07-0.15-0.14-0.22-0.21
				c-0.03-0.02-0.06-0.04-0.09-0.04c0-0.04-0.03-0.08-0.08-0.11c-0.03-0.02-0.07-0.03-0.11-0.03c-0.02-0.05-0.07-0.1-0.14-0.11
				c-0.02-0.03-0.06-0.06-0.11-0.07c-0.08-0.03-0.18,0-0.24,0.05c-0.05-0.01-0.1-0.02-0.15,0c-0.03-0.02-0.07-0.05-0.12-0.07
				c-0.03-0.01-0.05-0.02-0.08-0.03c-0.09-0.14-0.28-0.2-0.41-0.23c-0.04-0.01-0.08-0.02-0.12-0.04c-0.04-0.01-0.08-0.02-0.12-0.01
				l-0.07-0.04c-0.05-0.03-0.12-0.03-0.17-0.02c-0.05,0.01-0.09,0.04-0.12,0.08c-0.07-0.05-0.13-0.06-0.19-0.07
				c-0.07-0.01-0.16,0.01-0.25,0.07c-0.03-0.01-0.06-0.01-0.08,0C9.75,5.89,9.56,5.92,9.38,5.95c-0.01,0-0.02,0-0.02,0.01
				C9.32,5.94,9.28,5.94,9.24,5.93l-0.2,0c0,0-0.01,0-0.01,0C9.02,5.93,9.01,5.92,8.99,5.92L8.78,5.86
				c-0.1-0.03-0.22,0.01-0.26,0.09c0,0,0,0.01-0.01,0.01l-0.1,0.07C8.32,6,8.22,6.02,8.16,6.08L8.11,6.13c-0.01,0-0.01,0-0.02,0
				C8.06,6.11,8.01,6.08,7.95,6.06c-0.1-0.03-0.21,0.01-0.25,0.09C7.68,6.17,7.68,6.19,7.68,6.21c0,0,0,0.01-0.01,0.01c0,0,0,0,0,0
				c0,0,0,0,0,0C7.6,6.15,7.48,6.13,7.39,6.18C7.36,6.2,7.31,6.21,7.26,6.23c-0.09,0.03-0.2,0.06-0.29,0.13
				c-0.02,0-0.03,0.01-0.05,0.01c-0.16,0.05-0.4,0.13-0.45,0.31C6.42,6.69,6.38,6.71,6.35,6.74L6.32,6.77
				C6.3,6.77,6.29,6.78,6.28,6.79L6.25,6.78C6.17,6.76,6.08,6.77,6.03,6.81C6,6.83,5.99,6.85,5.98,6.88c0,0,0,0,0,0
				C5.91,6.89,5.85,6.93,5.84,6.99C5.81,7,5.79,7.02,5.78,7.03C5.75,7.06,5.74,7.09,5.74,7.12c0,0,0,0,0,0
				C5.66,7.14,5.62,7.17,5.59,7.2c-0.02,0-0.04,0.01-0.05,0.02C5.46,7.24,5.39,7.3,5.4,7.37c0,0.01,0,0.01,0,0.02
				C5.35,7.41,5.31,7.44,5.28,7.46c-0.01,0-0.01,0-0.02,0C5.21,7.48,5.17,7.51,5.15,7.55C5.09,7.57,5.05,7.61,5.04,7.66
				c0,0.01,0,0.01,0,0.02C5.02,7.69,5.01,7.72,5,7.74c0,0,0,0,0,0L4.93,7.8c-0.06,0.02-0.1,0.06-0.11,0.1L4.72,8
				C4.7,8.01,4.7,8.02,4.69,8.03C4.66,8.06,4.65,8.09,4.65,8.13c-0.05,0.02-0.09,0.06-0.1,0.1c-0.06,0.04-0.07,0.1-0.05,0.15
				C4.47,8.4,4.44,8.42,4.43,8.45C4.35,8.48,4.3,8.54,4.31,8.6c0,0,0,0.01,0,0.01c-0.06,0.03-0.1,0.08-0.1,0.14
				C4.2,8.77,4.19,8.79,4.19,8.81c-0.01,0-0.01,0.01-0.02,0.01L4.11,8.89C4.1,8.91,4.09,8.93,4.08,8.95
				C4.07,8.96,4.06,8.98,4.05,9.01C4.04,9.02,4.03,9.04,4.02,9.06c0,0-0.01,0.01-0.01,0.01c-0.02,0.04-0.02,0.07,0,0.11l0,0
				C3.99,9.21,3.98,9.24,3.98,9.26c0,0-0.01,0.01-0.01,0.01l-0.1,0.1C3.85,9.4,3.83,9.42,3.83,9.45C3.79,9.5,3.79,9.56,3.82,9.61
				C3.79,9.64,3.77,9.68,3.78,9.72c0.01,0.03,0.03,0.06,0.06,0.09c0,0-0.01,0-0.01,0.01l-0.01,0c-0.06,0-0.11,0.04-0.15,0.08
				c-0.03,0.04-0.03,0.09-0.02,0.14c-0.04,0.02-0.07,0.05-0.08,0.08l-0.07,0.15c-0.01,0.03-0.01,0.06,0,0.09
				c-0.02,0.01-0.03,0.03-0.05,0.05c-0.03,0.04-0.03,0.09-0.02,0.13c-0.03,0.03-0.04,0.06-0.04,0.09c-0.02,0.03-0.03,0.06-0.02,0.1
				l0.01,0.03c-0.02,0.02-0.03,0.04-0.03,0.06c0,0.01,0,0.01,0,0.02c-0.03,0.03-0.05,0.07-0.05,0.11c0,0.01,0.01,0.03,0.01,0.04
				c0,0.01-0.01,0.02-0.01,0.02L3.3,11.07c0,0.02,0,0.04,0,0.05c-0.01,0.02-0.02,0.05-0.03,0.07c-0.01,0.03-0.01,0.06,0,0.08
				l-0.03,0.04c-0.01,0.02-0.02,0.05-0.02,0.07c0,0,0,0,0,0c-0.05,0.04-0.05,0.1-0.03,0.15c0,0.01,0.01,0.01,0.01,0.02l0,0.03
				c-0.02,0.04-0.02,0.08,0,0.11c-0.01,0.01-0.02,0.02-0.02,0.03c-0.01,0.01-0.01,0.02-0.01,0.02c-0.02,0.02-0.04,0.05-0.04,0.07
				l0,0.03c0,0.01,0,0.02,0,0.03c-0.01,0.03-0.01,0.05,0,0.08l0.01,0.02c-0.02,0.02-0.03,0.04-0.03,0.07L3.1,12.1
				c0,0.01,0,0.02,0,0.03c-0.02,0.05-0.02,0.1,0,0.17c0,0.01,0,0.02,0,0.03c-0.01,0.03,0,0.06,0.01,0.08c0,0,0,0,0,0
				c-0.01,0.01-0.02,0.02-0.02,0.03c-0.03,0.03-0.04,0.06-0.03,0.1c0,0.01,0.01,0.03,0.01,0.04c-0.01,0.01-0.02,0.02-0.02,0.04
				l-0.03,0.1c-0.01,0.02-0.01,0.04,0,0.06c0,0,0,0,0,0c-0.01,0.03-0.01,0.06,0,0.09C3,12.91,2.99,12.94,3,12.98c0,0,0,0.01,0,0.01
				C3,12.99,3,13,3,13c0,0.01,0,0.03,0,0.05c0,0.01,0.01,0.02,0.01,0.03C3,13.1,3,13.14,3,13.17c0,0.01,0,0.02,0,0.03l0,0.07
				c0,0.03,0.01,0.05,0.03,0.08c0,0.01,0,0.02,0,0.03l0,0.15c0,0.03,0.02,0.06,0.04,0.09l-0.02,0.04c-0.02,0.03-0.02,0.06-0.01,0.08
				C2.99,13.77,2.98,13.82,3,13.87c0.01,0.02,0.02,0.04,0.04,0.05c0.02,0.02,0.04,0.04,0.07,0.05l0.01,0.03
				c-0.09,0.03-0.13,0.12-0.1,0.19c0,0,0,0,0,0C3.01,14.22,3,14.26,3.02,14.3c-0.01,0.02-0.01,0.05,0,0.08l0.02,0.04
				c0.01,0.01,0.01,0.03,0.03,0.04c-0.01,0.03-0.01,0.06,0,0.09l0.07,0.16c-0.03,0.02-0.04,0.04-0.05,0.07
				c-0.01,0.04,0,0.08,0.02,0.11c0.01,0.01,0.01,0.02,0.03,0.03c0.01,0.03,0.03,0.06,0.04,0.1c-0.03,0.04-0.04,0.08-0.01,0.13
				c-0.03,0.04-0.03,0.08-0.02,0.12c0,0,0,0,0,0c-0.01,0.05,0,0.09,0.01,0.12c-0.01,0.04-0.03,0.12,0.04,0.2
				c0.02,0.02,0.05,0.04,0.08,0.06c0,0,0,0.01,0,0.01c-0.06,0.03-0.09,0.08-0.08,0.14c0.01,0.04,0.03,0.07,0.07,0.1
				c0,0,0,0.01,0,0.01c-0.04,0.05-0.04,0.11-0.01,0.16c0.01,0.01,0.02,0.02,0.03,0.03c-0.03,0.04-0.04,0.09-0.01,0.14
				c0.01,0.01,0.02,0.03,0.04,0.04l0,0.01c0,0.01,0,0.01,0.01,0.02c0,0.02,0,0.03,0.01,0.04c0,0.01-0.01,0.01-0.01,0.02
				c-0.01,0.04,0,0.08,0.03,0.11c0,0.01,0,0.02,0,0.03c0,0.03,0.01,0.06,0.04,0.08c-0.01,0.03-0.01,0.05,0,0.08
				c0,0.02-0.01,0.04,0,0.06c0.01,0.03,0.03,0.06,0.05,0.08c-0.02,0.06,0.01,0.12,0.08,0.15c0,0,0,0.01,0,0.01l-0.01,0.02
				c-0.02,0.04-0.02,0.07,0,0.11c0.01,0.03,0.02,0.06,0.05,0.08c0,0.02,0.01,0.04,0.03,0.06l0.03,0.04c0,0,0,0.01,0,0.01
				c0,0.01,0,0.02,0.01,0.03c-0.01,0.02-0.01,0.04-0.01,0.07c0,0,0.01,0.04,0.01,0.04l0.07,0.01c0.01,0.01,0.01,0.02,0.02,0.03
				c-0.02,0.03-0.02,0.07,0,0.11c0.01,0.02,0.02,0.03,0.04,0.04c-0.01,0.02-0.02,0.03-0.02,0.05c0,0.05,0.03,0.09,0.07,0.12
				l0.01,0.08c0,0.03,0.01,0.05,0.03,0.07c-0.02,0.04-0.02,0.09,0.02,0.13c0.01,0.02,0.03,0.03,0.05,0.04c0,0,0,0.01,0,0.01
				l0.03,0.05c0.01,0.03,0.04,0.05,0.06,0.07c0,0.01,0,0.02-0.01,0.03c0,0.06,0.03,0.11,0.09,0.15c0,0.01,0,0.02,0.01,0.04
				c-0.02,0.04-0.01,0.08,0.01,0.12c0.01,0.02,0.02,0.04,0.04,0.06c0,0.05,0.03,0.09,0.08,0.12c0,0.02,0.01,0.03,0.02,0.05
				l0.01,0.02c0,0.01,0.01,0.02,0.01,0.03l0.04,0.07c0.01,0.02,0.03,0.03,0.04,0.05C4.37,19,4.38,19.05,4.41,19.09
				c0.02,0.02,0.04,0.03,0.07,0.04c0,0.03,0.01,0.06,0.04,0.09c0.01,0.01,0.02,0.01,0.02,0.02c0,0,0,0.01,0,0.01
				c0.01,0.04,0.05,0.09,0.1,0.11c0,0,0.01,0,0.01,0c0.01,0.02,0.03,0.03,0.04,0.04c0,0.02,0.01,0.03,0.02,0.05l0.08,0.1
				c0.02,0.03,0.06,0.05,0.1,0.07c0.01,0.05,0.05,0.1,0.12,0.12l0.02,0.01c-0.03,0.05-0.03,0.1,0.01,0.15
				c0.03,0.03,0.07,0.05,0.11,0.06c0,0.01,0.01,0.01,0.01,0.02c0.01,0.02,0.01,0.03,0.03,0.05c0.02,0.04,0.05,0.08,0.07,0.12
				c0.03,0.05,0.09,0.08,0.16,0.09c0.01,0.02,0.03,0.03,0.05,0.05c0,0.01,0.01,0.01,0.02,0.02c0.01,0.04,0.04,0.08,0.1,0.11
				l0.02,0.01c0.02,0.03,0.06,0.05,0.1,0.07c0.01,0.03,0.02,0.05,0.05,0.08c0.02,0.02,0.05,0.03,0.08,0.04
				c-0.02,0.07,0.04,0.15,0.13,0.17C5.98,20.79,5.99,20.8,6,20.8c0.02,0.02,0.05,0.03,0.08,0.04c0.01,0.01,0.01,0.01,0.02,0.02
				c0,0.06,0.05,0.11,0.12,0.13c0.01,0,0.01,0,0.02,0c0.02,0.02,0.04,0.04,0.07,0.06l0.11,0.06c0.01,0,0.02,0.01,0.02,0.01
				c0.04,0.03,0.09,0.05,0.14,0.07c0,0,0,0,0,0c0,0.04,0.02,0.09,0.07,0.12l0.06,0.04c0.03,0.02,0.08,0.03,0.12,0.03
				c0.03,0.01,0.06,0.03,0.09,0.03c0.05,0.05,0.09,0.11,0.14,0.16c0.03,0.03,0.08,0.06,0.14,0.06c0.01,0,0.01,0,0.02,0
				c0.05,0,0.1-0.01,0.13-0.04l0.02-0.01c0.01,0.03,0.03,0.06,0.06,0.08c0.01,0.01,0.02,0.01,0.03,0.02c0,0.01,0.01,0.02,0.02,0.04
				c0.04,0.05,0.11,0.08,0.18,0.08c0.01,0,0.02,0,0.04,0c0.01,0,0.01,0,0.02,0c0.01,0,0.01,0,0.02,0c0.03,0.01,0.07,0.01,0.11,0.01
				c0,0,0,0,0.01,0.01c0.02,0.01,0.05,0.02,0.08,0.03c0.03,0.03,0.08,0.07,0.14,0.09c0.11,0.03,0.23,0.05,0.35,0.05
				c0.02,0,0.03,0,0.05,0c0.04,0.03,0.09,0.06,0.16,0.06c0,0,0.01,0,0.01,0c0.01,0,0.03,0,0.04,0c0.03,0.02,0.06,0.04,0.11,0.05
				c0.03,0,0.06,0.01,0.09,0.01c0.09,0,0.19-0.02,0.27-0.07c0.01,0.02,0.03,0.03,0.05,0.04c0.01,0.02,0.04,0.04,0.07,0.06
				c0.03,0.02,0.07,0.03,0.11,0.03c0.02,0,0.04,0,0.06-0.01c0.04,0.02,0.08,0.04,0.13,0.04c0.01,0,0.01,0,0.02,0
				c0.05,0,0.09-0.02,0.12-0.05c0.01,0,0.02,0,0.03-0.01c0,0,0.01,0,0.01,0c0.01,0,0.02,0,0.02,0c0,0,0,0,0,0
				c0.02,0.01,0.05,0.01,0.07,0.01c0,0,0,0,0,0c0.01,0,0.03,0,0.04,0c0,0,0.01,0,0.01,0c0.02,0,0.05-0.01,0.07-0.02c0,0,0,0,0,0
				c0.02,0,0.03,0,0.05,0c0,0,0.01,0,0.01,0c0.03,0,0.05,0,0.07-0.01c0.02,0,0.05,0,0.07-0.01c0.02-0.01,0.03-0.01,0.04-0.02
				c0.01,0,0.03,0,0.04,0c0.03,0,0.06,0,0.09-0.02c0,0,0,0,0.01,0c0.01,0,0.02,0,0.03-0.01c0.02,0,0.04,0,0.05-0.01c0,0,0,0,0,0
				c0,0,0,0,0,0c0,0,0,0,0,0c0,0,0,0,0,0c0.05-0.01,0.09-0.04,0.12-0.07c0.03,0,0.05-0.01,0.08-0.01c0.01,0,0.02-0.01,0.03-0.01
				c0,0,0.01,0,0.01,0c0.01,0,0.03,0,0.04,0c0.02,0,0.04,0,0.06-0.01c0.01,0,0.02,0,0.04,0c0.02,0,0.04,0,0.07-0.01
				c0.03-0.01,0.05-0.02,0.07-0.03c0.01,0,0.02-0.01,0.03-0.01c0.01,0,0.02,0,0.03-0.01c0.02,0,0.03-0.01,0.04-0.01
				c0.03-0.01,0.05-0.03,0.07-0.05c0,0,0.01,0,0.01,0c0.05,0,0.09-0.02,0.13-0.05c0.01,0,0.02-0.01,0.02-0.01
				c0.01,0,0.02,0,0.02-0.01l0.01,0c0,0,0,0,0.01,0c0.01,0,0.02-0.01,0.03-0.01c0.01,0,0.02-0.01,0.03-0.01
				c0.02-0.01,0.04-0.02,0.06-0.03c0.02,0,0.03-0.01,0.05-0.01c0,0,0,0,0,0c0.03,0,0.06-0.01,0.09-0.02
				c0.01-0.01,0.03-0.01,0.04-0.02c0.01,0,0.01,0,0.02-0.01c0.01,0,0.01-0.01,0.02-0.01c0,0,0.01,0,0.01,0
				c0.01,0,0.02-0.01,0.02-0.01c0,0,0,0,0.01,0l0.02-0.01c0.03-0.01,0.06-0.03,0.07-0.06c0.02,0,0.04,0,0.05-0.01
				c0.01,0.01,0.01,0.03,0.02,0.04c0.01,0.01,0.03,0.03,0.04,0.04c0,0,0,0,0,0c0.01,0.04,0.05,0.07,0.1,0.1
				c0.02,0.03,0.05,0.05,0.08,0.07c-0.01,0.04-0.01,0.08,0.02,0.11c0.02,0.02,0.04,0.04,0.07,0.05c0,0,0.01,0.01,0.01,0.01l0.01,0
				c0,0,0,0,0,0c0.01,0.03,0.03,0.07,0.06,0.09c0.01,0.04,0.05,0.08,0.09,0.1c0,0.01,0.01,0.02,0.02,0.02
				c0.01,0.01,0.02,0.02,0.03,0.03c0,0.03,0.01,0.06,0.03,0.08c0,0,0,0,0,0.01c0,0.03,0.02,0.06,0.05,0.09
				c0.01,0.01,0.03,0.02,0.05,0.03c0.02,0.02,0.04,0.03,0.06,0.04c0,0.03,0.01,0.06,0.03,0.08c0.01,0.01,0.02,0.02,0.03,0.03
				c-0.01,0.05,0.02,0.1,0.07,0.14c0.01,0.01,0.03,0.01,0.04,0.02c0,0,0,0.01,0,0.01c0.02,0.06,0.09,0.1,0.17,0.1
				c0.02,0.02,0.04,0.03,0.06,0.04c-0.01,0.04,0,0.08,0.03,0.12c0,0.02,0.01,0.03,0.03,0.05c0.04,0.04,0.1,0.08,0.21,0.08
				c0.05,0,0.12-0.01,0.2-0.03c0.04-0.01,0.08-0.04,0.1-0.06c0,0,0,0,0,0c0.01,0,0.02,0,0.03,0c0.03,0,0.07-0.01,0.1-0.02l0.11-0.05
				c0.02-0.01,0.04-0.02,0.05-0.03l0.03-0.03c0.01,0,0.01-0.01,0.01-0.01l0.2-0.1c0.06,0,0.12-0.02,0.16-0.06l0.03-0.03
				c0.03-0.03,0.04-0.06,0.04-0.1c0.02-0.01,0.03-0.01,0.04-0.02l0.15-0.11c0.02-0.01,0.05-0.02,0.07-0.03
				c0.07-0.05,0.11-0.16,0.05-0.22c-0.01-0.01-0.02-0.02-0.04-0.03c-0.01-0.03-0.04-0.06-0.08-0.08c-0.01-0.04-0.04-0.08-0.09-0.11
				c0,0,0,0,0,0c-0.02-0.01-0.04-0.02-0.06-0.02c0-0.04-0.02-0.07-0.04-0.09c0,0-0.01-0.01-0.01-0.01c0-0.01-0.01-0.02-0.02-0.03
				c0,0-0.01-0.01-0.01-0.01c0,0,0,0,0,0c-0.01-0.01-0.02-0.03-0.04-0.04c-0.02-0.04-0.05-0.07-0.09-0.08
				c-0.01-0.01-0.01-0.02-0.02-0.02c-0.03-0.02-0.06-0.04-0.1-0.05c0,0,0,0,0,0c0.03-0.05,0.02-0.12-0.04-0.17
				c-0.01-0.01-0.01-0.01-0.02-0.02c0-0.03-0.02-0.05-0.04-0.07c-0.01-0.01-0.01-0.01-0.02-0.02c0-0.02,0-0.04-0.02-0.07
				c-0.02-0.03-0.05-0.05-0.08-0.07c0-0.01-0.01-0.01-0.01-0.02c-0.01-0.03-0.04-0.05-0.06-0.06c0-0.02-0.01-0.04-0.02-0.07
				c-0.03-0.04-0.07-0.07-0.13-0.08c-0.01-0.01-0.03-0.03-0.04-0.04c0,0,0,0,0,0c0-0.01-0.01-0.02-0.02-0.03
				c0.01-0.02,0.01-0.05,0-0.07c-0.01-0.03-0.04-0.06-0.08-0.09c0,0,0-0.01-0.01-0.01c0,0-0.01-0.01-0.01-0.01
				c0-0.03-0.01-0.07-0.04-0.1c0,0,0,0-0.01-0.01c0-0.03,0-0.06-0.02-0.09c0.02-0.02,0.03-0.04,0.04-0.06
				c0.01-0.01,0.02-0.02,0.03-0.03c0.03-0.02,0.05-0.05,0.06-0.08c0.01,0,0.02-0.01,0.03-0.01c0.04-0.01,0.08-0.03,0.1-0.06
				c0.02-0.02,0.03-0.04,0.03-0.07c0.01,0,0.01-0.01,0.02-0.01c0.01,0,0.02,0,0.02-0.01c0,0,0,0,0,0c0.05,0,0.09-0.01,0.12-0.03
				c0.03,0.01,0.06,0.02,0.1,0.02c0.01,0,0.02,0,0.03,0c0.04,0,0.07-0.02,0.1-0.03c0.03,0.01,0.06,0.01,0.09,0.01
				c0.01,0,0.01,0,0.02,0c0.02,0,0.03,0,0.05-0.01c0,0,0,0,0.01,0c0.02,0,0.04,0,0.06-0.01c0,0,0,0,0.01,0
				c0.03,0,0.06-0.01,0.09-0.02c0.02,0.01,0.05,0.01,0.07,0.01c0,0,0,0,0,0c0.02,0,0.04,0,0.06-0.01c0.01,0,0.01,0,0.02,0
				c0.01,0,0.03,0,0.04,0c0,0,0,0,0,0c0.02,0,0.04,0,0.06-0.01c0.01,0,0.02,0,0.02,0c0.01,0,0.01,0,0.02,0
				c0.03,0,0.05-0.01,0.07-0.02c0.01,0,0.03,0,0.04,0c0,0,0,0,0,0c0.03,0,0.06-0.01,0.09-0.02c0.02,0,0.05-0.01,0.07-0.02
				c0.02,0.01,0.05,0.01,0.08,0.01c0,0,0,0,0.01,0c0.02,0,0.04,0,0.06-0.01c0.01,0,0.01,0,0.02,0c0.01,0,0.02,0,0.02,0
				c0.01,0,0.03,0,0.04-0.01c0.05,0,0.09-0.02,0.13-0.05c0,0,0.01,0,0.01,0c0.01,0,0.01,0,0.02,0c0.02,0.01,0.05,0.01,0.08,0.01
				c0.01,0,0.02,0,0.03,0c0.03,0.01,0.05,0.01,0.08,0.01c0.02,0,0.03,0,0.05,0c0.02,0.01,0.05,0.01,0.08,0.01c0.01,0,0.03,0,0.04,0
				c0.03-0.01,0.06-0.02,0.09-0.03c0.01,0,0.02,0,0.04,0c0.01,0,0.01,0,0.02,0l0.06-0.01c0.01,0,0.02,0,0.03,0c0,0,0.01,0,0.01,0
				c0.04,0,0.07-0.01,0.1-0.02c0.01,0,0.01,0,0.02,0c0,0,0,0,0.01,0c0.02,0,0.04,0.01,0.06,0.01c0,0,0.01,0,0.01,0
				c0.04,0,0.12-0.01,0.18-0.09c0.1-0.01,0.18-0.07,0.18-0.15c0-0.07-0.01-0.1-0.05-0.15c0,0,0,0,0-0.01
				c0.01-0.01,0.02-0.01,0.03-0.02c0.03-0.03,0.05-0.07,0.04-0.11l-0.01-0.05c0-0.02-0.02-0.05-0.04-0.07
				c0.01-0.02,0.01-0.03,0.01-0.05l-0.01-0.09c0-0.01,0-0.02-0.01-0.03c0.03-0.04,0.03-0.1,0-0.14l-0.08-0.11l-0.04,0.02
				c0-0.01,0-0.01,0-0.02l0.06-0.01c-0.01-0.06-0.06-0.1-0.12-0.11c0-0.02-0.01-0.03-0.02-0.04c0,0,0-0.01,0-0.01
				c-0.01-0.06-0.07-0.11-0.14-0.13c0,0-0.01-0.01-0.01-0.01c-0.08-0.05-0.19-0.05-0.27,0c-0.04-0.04-0.11-0.06-0.17-0.05
				c-0.04,0-0.08,0.02-0.11,0.03c-0.01,0-0.01,0-0.02,0.01c0,0,0,0,0,0c-0.03,0-0.06,0.01-0.08,0.02c-0.02,0-0.05-0.01-0.08-0.01
				c-0.02,0-0.03,0-0.04,0.01c-0.02-0.01-0.04-0.01-0.06-0.01c-0.02,0-0.05,0-0.07,0c-0.01,0-0.01,0-0.02,0
				c-0.03,0-0.07,0.01-0.09,0.02c-0.03-0.01-0.06,0-0.1,0l0,0c-0.04-0.01-0.08,0-0.11,0.01c-0.01,0-0.01,0-0.02,0
				c0-0.01,0-0.03,0-0.04c0-0.01,0.01-0.01,0.01-0.02l0.17-0.28c0.03-0.05,0.02-0.1-0.01-0.14c0.02-0.03,0.03-0.06,0.02-0.09
				l0.12-0.08c0.08-0.06,0.08-0.15,0.01-0.21c-0.01-0.01-0.02-0.02-0.03-0.02c0-0.01,0-0.02,0-0.04c0.01-0.02,0.01-0.03,0.01-0.05
				l0-0.04c0-0.04-0.03-0.08-0.07-0.1c0.01,0,0.03,0,0.04,0c0.09,0,0.17-0.03,0.2-0.05c0.07-0.03,0.11-0.09,0.1-0.15
				c0-0.01-0.01-0.02-0.01-0.04l0.03-0.26l0.13-0.11c0.06-0.05,0.07-0.12,0.03-0.17c0.03-0.03,0.05-0.06,0.05-0.1
				c0-0.03,0-0.06-0.01-0.09c0.03-0.02,0.05-0.04,0.06-0.07l0.07-0.14c0.03-0.06,0-0.12-0.06-0.16l0.02-0.01
				c0.08-0.03,0.12-0.09,0.12-0.15c0.01-0.01,0.01-0.02,0.02-0.04c0.02-0.08-0.05-0.16-0.16-0.18l-0.09-0.01
				c0.06-0.05,0.06-0.13,0.01-0.18c-0.02-0.02-0.03-0.03-0.06-0.04c0.01-0.02,0.02-0.05,0.02-0.07c0-0.04-0.02-0.08-0.06-0.11
				c-0.01-0.02-0.03-0.04-0.05-0.05c0.01-0.03,0.02-0.06,0.01-0.09l0-0.01l0.05,0.07c0.03,0.05,0.11,0.08,0.18,0.08
				c0.03,0,0.06,0,0.09-0.02c0.06-0.02,0.1-0.06,0.11-0.11c0,0.01,0.01,0.03,0.02,0.04c-0.01,0.01-0.01,0.02-0.01,0.04
				c0,0.04,0.01,0.07,0.04,0.1c-0.02,0.03-0.02,0.06-0.01,0.1c-0.01,0.02-0.01,0.04-0.01,0.06c0.01,0.04,0.03,0.07,0.05,0.09
				c-0.02,0.03-0.02,0.06-0.01,0.1c0,0.01,0,0.01,0,0.02c0.01,0.04,0.03,0.07,0.07,0.09c0,0,0,0,0,0l-0.02,0.03
				c-0.02,0.03-0.02,0.07-0.01,0.1c0,0.04,0.02,0.07,0.05,0.1c0,0.01,0,0.03,0,0.04l0.02,0.07c0,0,0,0.01,0,0.01
				c0,0.03,0.01,0.06,0.03,0.09c0,0.01,0,0.02,0,0.04l0.01,0.08l0,0.01c0,0.03,0.02,0.06,0.05,0.09c0,0.03,0.02,0.06,0.04,0.08
				c0.01,0.06,0.03,0.12,0.04,0.16c0.01,0.02,0.02,0.05,0.02,0.07c0,0,0,0.01,0,0.01l0,0.08c0,0.02,0.01,0.04,0.02,0.06
				c0,0.01,0,0.02,0.01,0.04c-0.02,0.04-0.02,0.09,0.01,0.13c0.01,0.02,0.03,0.03,0.05,0.04c0,0.01,0.01,0.01,0.01,0.02l0.05,0.06
				c0.02,0.02,0.04,0.03,0.07,0.04c-0.03,0.03-0.04,0.06-0.05,0.09c-0.01,0.08,0.05,0.14,0.09,0.17c0,0.02,0,0.03,0,0.05
				c0,0.01,0.01,0.01,0.01,0.02c0,0.01-0.01,0.02-0.01,0.03l0,0.06c0,0.04,0.02,0.07,0.05,0.1c-0.01,0.06,0.03,0.12,0.11,0.15
				c-0.01,0.03-0.01,0.05,0,0.08c0,0.01,0,0.01,0.01,0.02l0.03,0.05c0,0,0,0,0,0l0.01,0.02c0.01,0.02,0.02,0.03,0.03,0.05
				c0,0.01,0,0.02,0,0.02c-0.02,0.04-0.01,0.09,0.02,0.13c0.02,0.02,0.04,0.04,0.07,0.05c-0.01,0.03,0,0.07,0.02,0.1
				c0.01,0.02,0.02,0.04,0.03,0.05c0,0.04,0.03,0.08,0.07,0.11c0.01,0.02,0.02,0.04,0.05,0.06c0,0.02,0.01,0.03,0.02,0.05l0.03,0.04
				c0,0,0,0,0,0.01c0.01,0.03,0.04,0.06,0.07,0.09c0.01,0.02,0.03,0.03,0.04,0.05c0.03,0.03,0.07,0.06,0.12,0.07l0.04,0.01
				c0.01,0.04,0.05,0.08,0.1,0.1c0,0.01,0.01,0.02,0.02,0.03c-0.08,0.04-0.11,0.13-0.06,0.2c0.02,0.02,0.04,0.04,0.07,0.06
				c0,0.01,0.01,0.01,0.01,0.02l0.07,0.09c0,0,0,0,0,0l0,0l0,0c0,0,0,0,0,0l0.03,0.04c0.02,0.02,0.04,0.04,0.07,0.05
				c0,0,0,0.01,0.01,0.01l0,0.02c0.01,0.04,0.04,0.08,0.09,0.1c0.02,0.03,0.05,0.06,0.07,0.08c0.01,0.01,0.01,0.02,0.02,0.02
				c0,0.04,0.03,0.08,0.07,0.11c0.01,0.01,0.02,0.03,0.03,0.04c0.02,0.04,0.05,0.08,0.07,0.12c0.03,0.06,0.1,0.09,0.18,0.09
				c0.01,0,0.02,0,0.02,0l0.02,0c0.01,0,0.03,0,0.04,0c0.02,0,0.04,0,0.06-0.01c0,0.01,0.01,0.03,0.02,0.04
				c-0.05,0.06-0.04,0.14,0.01,0.2c0.03,0.03,0.07,0.05,0.12,0.05c0,0,0,0,0,0c-0.02,0.06,0.02,0.12,0.09,0.15
				c0.02,0.04,0.06,0.07,0.12,0.09c0,0,0,0,0,0l0.09,0.05c0.02,0.03,0.05,0.05,0.09,0.06c0.02,0.01,0.05,0.03,0.08,0.05
				c0,0.04,0.02,0.08,0.05,0.11l0.06,0.05c0.03,0.03,0.08,0.04,0.12,0.05c0.03,0.02,0.06,0.04,0.1,0.05c0,0,0,0,0,0
				c0.05,0.07,0.11,0.14,0.17,0.21c0.03,0.03,0.08,0.06,0.13,0.06c0.01,0,0.03,0,0.04,0c0.04,0,0.08-0.01,0.11-0.03l0.02-0.01
				c0.02,0.01,0.04,0.02,0.06,0.03c0.01,0.03,0.02,0.05,0.04,0.07c0.02,0.01,0.03,0.02,0.06,0.03c0,0.01,0,0.02,0.01,0.02
				c0.03,0.06,0.11,0.1,0.19,0.1c0.01,0,0.02,0,0.03,0c0.03,0.02,0.07,0.03,0.11,0.03c0.03,0.05,0.1,0.08,0.18,0.08
				c0.01,0,0.02,0,0.02,0c0.01,0,0.02,0,0.03,0c0.04,0.01,0.08,0.01,0.12,0.01c0.03,0.04,0.08,0.1,0.18,0.13
				c0.1,0.03,0.21,0.04,0.31,0.05c0.03,0.02,0.08,0.03,0.12,0.03c0,0,0.01,0,0.01,0c0.02,0,0.03,0,0.05-0.01
				c0.03,0.03,0.06,0.05,0.12,0.06c0.04,0.01,0.08,0.01,0.12,0.01c0.11,0,0.22-0.03,0.32-0.09c0.01,0.03,0.04,0.05,0.07,0.07
				c0.01,0.02,0.04,0.04,0.07,0.06c0.03,0.02,0.07,0.03,0.11,0.03c0.02,0,0.04,0,0.06-0.01c0.04,0.02,0.08,0.04,0.13,0.04
				c0.01,0,0.01,0,0.02,0c0.03,0,0.05-0.01,0.07-0.02c0.03-0.01,0.07-0.02,0.09-0.04c0,0,0,0,0,0c0.01,0,0.02,0,0.03,0c0,0,0,0,0,0
				c0.02,0.01,0.05,0.01,0.07,0.01c0,0,0,0,0,0c0.01,0,0.03,0,0.04,0c0,0,0.01,0,0.01,0c0.02,0,0.05-0.01,0.07-0.02c0,0,0,0,0,0
				c0.02,0,0.03,0,0.05,0c0,0,0.01,0,0.01,0c0.03,0,0.05,0,0.07-0.01c0.02,0,0.05,0,0.07-0.01c0.02-0.01,0.03-0.01,0.04-0.02
				c0.01,0,0.03,0,0.04,0c0.03,0,0.06,0,0.09-0.02c0,0,0,0,0.01,0c0.01,0,0.02,0,0.03-0.01c0.02,0,0.04,0,0.06-0.01c0,0,0,0,0,0
				c0,0,0,0,0,0c0,0,0,0,0,0c0,0,0,0,0,0c0.05-0.01,0.09-0.04,0.11-0.07c0.03,0,0.05-0.01,0.08-0.01c0.01,0,0.02-0.01,0.03-0.01
				c0,0,0.01,0,0.01,0c0.01,0,0.03,0,0.04,0c0.02,0,0.04,0,0.06-0.01c0.01,0,0.02,0,0.04,0c0.02,0,0.04,0,0.07-0.01
				c0.03-0.01,0.05-0.02,0.07-0.03c0.01,0,0.03-0.01,0.04-0.02c0.02,0,0.04-0.01,0.06-0.01c0.03-0.01,0.05-0.03,0.07-0.05
				c0,0,0.01,0,0.01,0c0.05,0,0.09-0.02,0.13-0.05c0.01,0,0.02-0.01,0.03-0.01c0.01,0,0.02,0,0.02-0.01l0.01,0c0,0,0,0,0,0
				c0.01,0,0.02-0.01,0.03-0.01c0.01,0,0.02-0.01,0.03-0.01c0.02-0.01,0.04-0.02,0.06-0.03c0.02,0,0.03-0.01,0.05-0.01c0,0,0,0,0,0
				c0.03,0,0.06-0.01,0.09-0.02c0,0,0,0,0.01,0c0.02,0,0.04-0.01,0.06-0.02c0.01-0.01,0.02-0.01,0.03-0.02c0,0,0.01,0,0.01,0
				c0,0,0.01,0,0.01,0l0.02-0.01c0.03-0.01,0.06-0.03,0.07-0.06c0.03,0,0.07-0.01,0.09-0.02c0.01-0.01,0.03-0.02,0.04-0.03
				c0.04,0,0.07-0.01,0.1-0.03c0.03-0.02,0.05-0.05,0.06-0.08c0.03-0.01,0.06-0.02,0.08-0.04c0.01-0.01,0.02-0.01,0.02-0.02
				c0.01,0,0.03-0.01,0.04-0.02c0,0,0.01,0,0.01-0.01c0.05-0.01,0.09-0.03,0.12-0.05c0.01-0.01,0.01-0.01,0.02-0.02
				c0.02,0,0.04-0.01,0.06-0.02c0.03-0.01,0.05-0.02,0.07-0.03c0.01-0.01,0.02-0.02,0.03-0.03c0.01,0,0.01-0.01,0.02-0.01
				c0,0,0,0,0.01,0c0.01,0,0.01-0.01,0.02-0.01c0.01,0,0.02-0.01,0.02-0.02c0,0,0.01-0.01,0.01-0.01c0,0,0,0,0,0
				c0.04-0.01,0.08-0.02,0.11-0.05c0.03-0.03,0.05-0.06,0.05-0.09c0.01,0,0.03-0.01,0.04-0.02c0,0,0,0,0,0
				c0.04-0.01,0.09-0.02,0.12-0.05c0.01-0.01,0.02-0.02,0.02-0.03c0.04-0.02,0.07-0.05,0.09-0.08l0.01-0.02c0,0,0-0.01,0.01-0.01
				c0.04-0.01,0.08-0.02,0.11-0.05c0.01-0.01,0.02-0.02,0.03-0.04c0.03-0.02,0.05-0.06,0.06-0.09c0.03-0.01,0.06-0.02,0.09-0.04
				c0.02-0.02,0.04-0.04,0.04-0.07c0.01-0.01,0.02-0.02,0.03-0.03c0.03-0.02,0.05-0.05,0.06-0.08c0.01,0,0.02-0.01,0.03-0.01
				c0.04-0.01,0.08-0.03,0.1-0.06c0.02-0.02,0.03-0.04,0.03-0.07c0.01,0,0.01-0.01,0.02-0.01c0.05-0.01,0.1-0.04,0.13-0.08
				c0.01-0.01,0.01-0.02,0.01-0.03c0.03-0.02,0.04-0.05,0.05-0.08c0.01-0.01,0.01-0.02,0.02-0.03c0,0,0,0,0,0
				c0.02-0.01,0.05-0.02,0.07-0.04c0.04-0.03,0.06-0.08,0.05-0.12c0-0.04-0.03-0.08-0.07-0.12c0.02-0.01,0.04-0.02,0.05-0.03
				c0.03-0.03,0.05-0.07,0.04-0.11l-0.01-0.07c0.04,0.03,0.09,0.05,0.14,0.05c0.01,0,0.02,0,0.04,0c0.11-0.02,0.18-0.09,0.16-0.18
				c0-0.01,0-0.01-0.01-0.02c0.03-0.01,0.07-0.02,0.09-0.04c0.05-0.04,0.06-0.09,0.04-0.14c0.08-0.04,0.11-0.11,0.07-0.18
				c-0.01-0.01-0.02-0.02-0.03-0.03l0.03-0.03c0.02-0.02,0.03-0.04,0.03-0.06l0.02-0.02c0.01-0.01,0.03-0.01,0.04-0.02l0.11-0.08
				c0.05-0.03,0.07-0.08,0.07-0.12c0-0.01,0.01-0.01,0.01-0.02l0.17-0.28c0.03-0.05,0.02-0.1-0.01-0.14
				c0.02-0.03,0.03-0.06,0.02-0.09l0.12-0.08c0.08-0.06,0.08-0.15,0.01-0.21c-0.01-0.01-0.02-0.02-0.03-0.02c0-0.01,0-0.02,0-0.04
				c0.01-0.02,0.01-0.03,0.01-0.05l0-0.04c0-0.04-0.03-0.08-0.07-0.1c0.01,0,0.03,0,0.04,0c0.09,0,0.17-0.03,0.2-0.05
				c0.07-0.03,0.11-0.09,0.1-0.15c0-0.01-0.01-0.02-0.01-0.04l0.03-0.26l0.13-0.11c0.06-0.05,0.07-0.12,0.03-0.17
				c0.03-0.03,0.05-0.06,0.05-0.1c0-0.03,0-0.06-0.01-0.09c0.03-0.02,0.05-0.04,0.06-0.07l0.07-0.14c0.03-0.06,0-0.12-0.06-0.16
				l0.02-0.01c0.08-0.03,0.12-0.09,0.12-0.15c0.01-0.01,0.01-0.02,0.02-0.04c0.02-0.08-0.05-0.16-0.16-0.18l-0.09-0.01
				c0.06-0.05,0.06-0.13,0.01-0.18c-0.02-0.02-0.03-0.03-0.06-0.04c0.01-0.02,0.02-0.05,0.02-0.07c0-0.04-0.03-0.08-0.06-0.11
				c-0.01-0.02-0.03-0.03-0.05-0.04c0.02-0.03,0.02-0.06,0.01-0.1l0-0.01l0.05,0.07c0.04,0.05,0.11,0.08,0.18,0.08
				c0.03,0,0.06,0,0.09-0.02c0.1-0.04,0.14-0.13,0.09-0.2l-0.02-0.03c0.05-0.04,0.07-0.11,0.04-0.16l-0.04-0.07l0.13-0.08
				c0.09-0.05,0.1-0.15,0.03-0.21c-0.01-0.01-0.02-0.02-0.04-0.03c0.01-0.03,0-0.06-0.02-0.09c0.09-0.04,0.12-0.12,0.08-0.19
				c-0.04-0.06-0.13-0.1-0.21-0.08c0.07-0.07,0.07-0.16,0.08-0.23c0-0.02,0-0.04-0.01-0.06c0,0,0.01,0,0.01,0
				c0.02,0,0.04,0,0.06-0.01c0.05-0.01,0.09-0.04,0.12-0.08l0.06-0.09c0,0,0-0.01,0.01-0.01c0.03-0.03,0.04-0.07,0.04-0.11
				L28.91,13.33z M13.14,18.03c-0.05,0.03-0.08,0.07-0.08,0.11c-0.01,0.07,0.02,0.12,0.05,0.18c-0.01,0.01-0.02,0.02-0.03,0.03
				c-0.05,0.01-0.09,0.03-0.12,0.07l-0.16,0.21c-0.05,0.06-0.03,0.14,0.04,0.19l-0.01,0c-0.01,0-0.02,0-0.03,0
				c-0.04,0-0.09,0.01-0.13,0.03l-0.03,0.02c-0.01,0-0.01,0-0.02,0.01l-0.02-0.04c-0.05,0-0.09,0.02-0.12,0.04
				c-0.05-0.01-0.1-0.01-0.15,0c-0.07-0.03-0.13-0.03-0.21,0.01c0,0,0,0-0.01,0c-0.01,0-0.01,0-0.02,0c0,0,0,0,0,0
				c-0.05-0.04-0.13-0.04-0.2-0.02c-0.04-0.01-0.07,0-0.11,0.01c-0.02,0-0.04,0.01-0.06,0.01c-0.03,0-0.05,0-0.08,0
				c-0.01,0-0.02,0-0.03,0l-0.06,0.01c-0.08,0.01-0.14,0.05-0.17,0.1c-0.01,0-0.02,0.01-0.03,0.01c-0.05-0.02-0.11-0.03-0.16-0.02
				l-0.04-0.02c-0.09-0.05-0.21-0.03-0.27,0.03c-0.03,0-0.05-0.01-0.08-0.01c-0.02-0.01-0.05-0.01-0.07-0.01l-0.03-0.01
				c-0.1-0.03-0.19,0.01-0.24,0.08c-0.01,0.02-0.02,0.03-0.02,0.05c-0.04,0.06-0.03,0.1,0.01,0.14c-0.03,0.02-0.05,0.05-0.06,0.08
				c-0.03,0.08,0.04,0.16,0.15,0.18l0,0c0,0,0,0,0,0c-0.01,0.03,0,0.07,0.02,0.09c0,0.03,0.01,0.06,0.03,0.08
				c0.01,0.02,0.02,0.04,0.04,0.06c0.01,0.09,0.12,0.15,0.23,0.19c0.01,0.01,0.03,0.02,0.04,0.03c0,0,0,0,0,0.01
				c-0.02,0.03-0.04,0.06-0.03,0.1c0,0.04,0.03,0.07,0.07,0.1c0,0,0,0.01,0,0.01c0,0.01,0,0.02,0.01,0.02
				c-0.01,0-0.01,0.01-0.02,0.01c-0.03,0.02-0.05,0.04-0.07,0.07c-0.01,0.01-0.02,0.01-0.03,0.02c-0.03,0.02-0.05,0.04-0.06,0.07
				c-0.05-0.01-0.1,0-0.15,0.03c0,0,0,0,0,0c0,0-0.01,0-0.01,0c-0.03,0-0.06,0-0.09,0.01c-0.04,0.01-0.07,0.04-0.09,0.06
				c-0.01,0-0.03,0.01-0.04,0.01c0,0,0,0,0,0c0,0,0,0,0,0c0,0,0,0,0,0c0,0,0,0,0,0c0,0,0,0,0,0c-0.02,0.01-0.03,0.01-0.04,0.02
				c-0.01,0-0.02,0-0.04,0.01c-0.02,0-0.04,0-0.06,0.01c-0.02,0.01-0.04,0.02-0.06,0.03c-0.02,0-0.03,0-0.05,0.01
				c-0.02,0.01-0.04,0.01-0.05,0.02c-0.01,0-0.01,0-0.02,0c-0.02,0-0.03,0.01-0.05,0.02c-0.01,0-0.02,0-0.03,0.01
				c-0.01,0-0.03,0-0.04,0c-0.01,0-0.02,0-0.03,0.01c-0.01,0-0.02,0-0.03,0.01c0,0,0,0,0,0c-0.01,0-0.02,0-0.03,0
				c-0.01,0-0.02,0-0.03,0.01c-0.01,0-0.01,0-0.02,0c-0.02,0-0.04,0.01-0.05,0.01c-0.01,0-0.03,0-0.04,0c-0.01,0-0.02,0-0.03,0.01
				c0,0-0.01,0-0.01,0c-0.02,0-0.04,0.01-0.06,0.02c-0.01,0-0.02,0.01-0.02,0.01c-0.04-0.02-0.09-0.03-0.14-0.02
				c-0.03,0-0.06,0.01-0.08,0.03c-0.01,0-0.02,0-0.03,0c-0.01,0-0.01,0-0.02,0c-0.02-0.02-0.05-0.03-0.08-0.03
				c-0.05-0.01-0.09-0.01-0.15,0c0,0,0,0,0,0c-0.02-0.01-0.03-0.02-0.05-0.03l-0.03,0.04c-0.01,0-0.01,0.01-0.02,0.01
				c-0.02-0.03-0.06-0.07-0.13-0.08c-0.03-0.01-0.07-0.01-0.1-0.02c-0.04-0.02-0.08-0.04-0.13-0.04c-0.04-0.01-0.09-0.01-0.13,0
				c-0.03-0.03-0.07-0.06-0.1-0.08l-0.04,0.04C8.33,20.43,8.24,20.4,8.2,20.4c-0.01,0-0.03,0-0.04-0.01c0,0-0.01-0.01-0.01-0.01
				c-0.01-0.01-0.02-0.03-0.04-0.04c-0.01-0.01-0.03-0.02-0.04-0.02C8.05,20.31,8.03,20.3,8,20.29c-0.02-0.02-0.04-0.03-0.07-0.04
				c-0.01-0.01-0.02-0.02-0.03-0.02c0,0-0.01-0.01-0.01-0.01c-0.02-0.02-0.05-0.04-0.09-0.05c-0.04-0.05-0.12-0.07-0.19-0.07
				c-0.01-0.03-0.04-0.06-0.08-0.08c-0.04-0.02-0.09-0.03-0.13-0.03c0.01-0.04,0-0.09-0.05-0.13c0,0,0,0,0,0
				c0.01-0.06-0.02-0.12-0.09-0.15c-0.02-0.04-0.07-0.07-0.13-0.08c-0.01-0.02-0.01-0.04-0.02-0.05c-0.01-0.03-0.03-0.06-0.06-0.08
				c-0.02-0.01-0.04-0.02-0.06-0.03c-0.01,0-0.01-0.01-0.02-0.01c-0.01,0-0.02-0.01-0.03-0.01c0-0.01,0-0.02,0-0.04
				c0-0.02-0.01-0.03-0.02-0.04c0-0.02-0.01-0.03-0.02-0.05c-0.03-0.04-0.08-0.07-0.13-0.09c0,0,0-0.01,0-0.01
				c-0.01-0.03-0.03-0.05-0.06-0.07c0-0.01-0.01-0.01-0.01-0.02c-0.01-0.01-0.01-0.02-0.02-0.02c-0.02-0.03-0.06-0.05-0.1-0.07
				c-0.01,0-0.02-0.01-0.03-0.01c0-0.02-0.01-0.05-0.02-0.07c-0.01-0.03-0.02-0.05-0.04-0.08c0,0,0,0,0,0
				c-0.01-0.01-0.02-0.03-0.03-0.04c0,0,0-0.01-0.01-0.01c-0.01-0.01-0.01-0.02-0.02-0.02c-0.01-0.01-0.01-0.02-0.02-0.03
				c-0.01-0.02-0.02-0.03-0.04-0.05c-0.02-0.02-0.05-0.03-0.09-0.04c0-0.01,0-0.02-0.01-0.02c-0.01-0.02-0.03-0.04-0.05-0.06
				c0-0.01-0.01-0.02-0.01-0.03l-0.02-0.07c-0.01-0.03-0.04-0.06-0.07-0.08l-0.03-0.02c0-0.02-0.01-0.03-0.01-0.05
				c0-0.01,0.01-0.02,0.01-0.03c0.01-0.09-0.08-0.15-0.12-0.18c0-0.02,0-0.05-0.01-0.07c-0.01-0.02-0.02-0.03-0.04-0.04
				c0-0.03-0.01-0.05-0.03-0.08c0.01-0.05-0.01-0.09-0.05-0.13c-0.01-0.01-0.03-0.02-0.05-0.03c0-0.01-0.01-0.01-0.01-0.02
				c-0.01-0.01-0.01-0.01-0.02-0.02c0.02-0.02,0.03-0.04,0.04-0.06c0.02-0.05,0-0.1-0.04-0.14c-0.01-0.01-0.02-0.02-0.04-0.03
				c0-0.03-0.01-0.07-0.04-0.09l-0.03-0.03c0.02-0.05,0-0.09-0.04-0.13l-0.01-0.05c0-0.02-0.01-0.04-0.03-0.06
				c0-0.06-0.05-0.11-0.12-0.13c0.04-0.04,0.05-0.1,0.02-0.14c-0.01-0.01-0.01-0.02-0.02-0.03c0.01-0.03,0-0.07-0.03-0.1
				c0-0.03,0-0.07-0.03-0.11c-0.01-0.01-0.02-0.03-0.04-0.04c0.01-0.03,0-0.05-0.02-0.08c-0.01-0.03-0.03-0.06-0.06-0.08
				c-0.01-0.01-0.01-0.01-0.02-0.02l0-0.05c0.02-0.03,0.04-0.06,0.03-0.09c0-0.01,0-0.01,0-0.02c0,0,0,0,0-0.01c0,0,0,0,0,0
				c0-0.02-0.01-0.03-0.02-0.05c0.01-0.01,0.02-0.03,0.02-0.04c0.01-0.05-0.01-0.1-0.06-0.14c0,0-0.01-0.01-0.01-0.01
				c0.01-0.02,0.01-0.04,0.01-0.07c0-0.02-0.01-0.03-0.02-0.05c0-0.04-0.03-0.07-0.06-0.11c0.01-0.03,0.01-0.06,0-0.1
				c0,0,0,0,0-0.01c0.01-0.02,0.02-0.04,0.02-0.05c0-0.01,0-0.02,0-0.03c0-0.02-0.01-0.04-0.02-0.06c0-0.04-0.01-0.09-0.04-0.12
				l-0.09-0.1c-0.01-0.01-0.01-0.01-0.02-0.02l0.06-0.09c0.03-0.04,0.02-0.09,0-0.13C5,15.08,4.98,15.06,4.96,15.04
				c0.03-0.02,0.05-0.04,0.06-0.07c0.01-0.02,0.01-0.04,0-0.05c0,0,0-0.01,0-0.01c0-0.01,0-0.01,0-0.02
				c0.01-0.01,0.01-0.03,0.01-0.04c0-0.04-0.02-0.08-0.06-0.11c0.04-0.05,0.03-0.11-0.02-0.16c0,0-0.01-0.01-0.01-0.01
				c0-0.01,0-0.02,0-0.02c0.07-0.03,0.11-0.09,0.09-0.15c-0.01-0.04-0.04-0.07-0.08-0.09c0.02-0.03,0.03-0.07,0.02-0.11
				c-0.01-0.02-0.02-0.04-0.04-0.06c0.04-0.03,0.05-0.07,0.05-0.12c0-0.02-0.01-0.04-0.02-0.06c0.01-0.03,0.02-0.06,0.01-0.09
				c-0.01-0.03-0.03-0.05-0.05-0.07c0-0.06-0.03-0.12-0.07-0.19c0.05-0.04,0.08-0.09,0.06-0.14c0-0.02-0.01-0.04-0.02-0.05
				c0.06-0.07,0.09-0.17,0.04-0.32c-0.01-0.02-0.02-0.03-0.03-0.05l0.01-0.03c0-0.01,0.01-0.02,0.01-0.03
				c0.05-0.04,0.07-0.1,0.04-0.16c0,0,0-0.01-0.01-0.01c0.01-0.02,0.01-0.04,0.02-0.05c0-0.02,0-0.04-0.01-0.05
				c0.01-0.02,0.01-0.04,0-0.06c0.01-0.02,0.01-0.05,0.01-0.07c0,0,0,0,0-0.01c0.02-0.03,0.02-0.07,0-0.1
				c0.01-0.01,0.02-0.02,0.02-0.03c0.02-0.01,0.03-0.03,0.04-0.05c0.02-0.04,0.02-0.09-0.01-0.13c0.02-0.04,0.02-0.07,0.01-0.1
				c0-0.01-0.01-0.02-0.01-0.03C5.04,12.1,5.05,12.04,5.03,12L5,11.96c0.02-0.01,0.04-0.03,0.06-0.05l0.04-0.06
				c0.03-0.04,0.02-0.09,0-0.13c0,0,0,0,0,0c0.01-0.01,0.01-0.03,0.01-0.04c0.01-0.03,0.01-0.06-0.01-0.09
				c0.03-0.03,0.04-0.06,0.05-0.09l0-0.11c0-0.01,0.01-0.02,0.01-0.03c0.02-0.03,0.03-0.05,0.02-0.08c0,0,0,0,0.01-0.01
				c0.02-0.02,0.06-0.07,0.03-0.14c0.01-0.01,0.01-0.02,0.01-0.03c0,0,0-0.01,0-0.01c0.02-0.02,0.03-0.03,0.04-0.05
				c0.01-0.01,0.01-0.02,0.01-0.04c0.01-0.02,0.02-0.04,0.02-0.07c0.01-0.01,0.01-0.03,0.02-0.04c0.02-0.04,0.01-0.08-0.01-0.11
				c0.03-0.03,0.05-0.07,0.04-0.1c0.02-0.01,0.03-0.02,0.04-0.04c0.02-0.02,0.03-0.04,0.04-0.06c0.01-0.05-0.01-0.1-0.06-0.14
				c0-0.01,0-0.02,0.01-0.02c0.01-0.02,0.02-0.03,0.02-0.05c0.01,0,0.02-0.01,0.03-0.01c0.01,0,0.02-0.01,0.02-0.01
				c0.05-0.02,0.09-0.06,0.1-0.11c0-0.01,0.01-0.01,0.01-0.02c0.01-0.02,0.01-0.05,0-0.07l0.03-0.03c0.02-0.02,0.03-0.04,0.04-0.07
				c0.02-0.02,0.02-0.05,0.02-0.08c0.02-0.04,0.02-0.08,0-0.12C5.63,9.83,5.62,9.81,5.61,9.8C5.67,9.8,5.72,9.77,5.75,9.73
				c0.03-0.03,0.04-0.07,0.03-0.1c0.04-0.02,0.07-0.06,0.08-0.1C5.88,9.5,5.89,9.47,5.89,9.44C5.92,9.42,5.94,9.4,5.94,9.38
				C5.96,9.35,5.96,9.32,5.96,9.3c0.01-0.01,0.02-0.03,0.02-0.05C6,9.24,6.02,9.22,6.04,9.21c0.03-0.03,0.04-0.07,0.04-0.1
				C6.09,9.1,6.1,9.1,6.1,9.09c0.01-0.01,0.04-0.03,0.05-0.06c0,0,0.01-0.01,0.01-0.01C6.2,8.99,6.22,8.95,6.21,8.91
				C6.24,8.9,6.27,8.89,6.29,8.87c0.03-0.03,0.04-0.06,0.04-0.09c0.03-0.01,0.06-0.03,0.08-0.06c0,0,0-0.01,0.01-0.01
				c0.02-0.02,0.04-0.04,0.05-0.05C6.49,8.62,6.5,8.58,6.48,8.54c0,0,0,0,0,0l0.02-0.02l0.04,0C6.62,8.51,6.68,8.45,6.71,8.4
				C6.75,8.38,6.8,8.34,6.82,8.27c0.05-0.01,0.11-0.04,0.14-0.1c0.01-0.01,0.01-0.02,0.01-0.03c0.07,0,0.13-0.03,0.16-0.07
				C7.16,8.05,7.17,8.02,7.17,8c0.06-0.01,0.1-0.03,0.13-0.07c0.02-0.01,0.03-0.01,0.05-0.02c0.03-0.02,0.06-0.04,0.09-0.06
				c0.02-0.01,0.04-0.03,0.05-0.04C7.55,7.79,7.6,7.75,7.62,7.7l0,0c0,0,0.01,0,0.01-0.01c0,0,0,0,0,0c0.03,0,0.07-0.01,0.1-0.02
				c0.02-0.01,0.03-0.02,0.04-0.03c0.03,0,0.06-0.01,0.08-0.02C7.87,7.62,7.88,7.61,7.9,7.6c0.01,0,0.01,0,0.02-0.01
				c0.07-0.03,0.11-0.09,0.1-0.16c0.01,0,0.02,0,0.03,0c0.02,0,0.04,0,0.06-0.01c0.09-0.02,0.15-0.09,0.15-0.16c0,0,0.01,0,0.01,0
				l0.08-0.01c0.01,0.01,0.02,0.01,0.03,0.02c0.04,0.02,0.08,0.04,0.13,0.04c0.02,0,0.04,0,0.05-0.01c0.03,0.01,0.07,0.02,0.1,0.02
				c0.02,0,0.04,0,0.06-0.01c0.07-0.02,0.12-0.06,0.13-0.1c0.02,0,0.04-0.01,0.09-0.02C8.96,7.2,8.99,7.19,9.01,7.17
				c0.01,0,0.01,0,0.02,0c0.01,0,0.03,0,0.04,0c0.02,0,0.03-0.01,0.05-0.01c0.02,0,0.04,0.01,0.06,0.01c0.04,0,0.08-0.01,0.11-0.03
				c0.03-0.02,0.07-0.03,0.1-0.05l0.03,0c0.06-0.01,0.11-0.03,0.14-0.06c0.01,0,0.02,0,0.03,0c0,0.01,0.01,0.01,0.01,0.02l0.11,0.13
				c0.04,0.04,0.1,0.07,0.17,0.07c0.01,0,0.02,0,0.04,0c0.06-0.01,0.1-0.03,0.13-0.07c0.02,0.01,0.05,0.02,0.08,0.03
				c0,0,0.02,0.01,0.03,0.01c0.02,0.01,0.05,0.01,0.07,0.01c0.03,0.02,0.08,0.03,0.12,0.03c0.02,0,0.03,0,0.05,0
				c0.06-0.01,0.1-0.04,0.13-0.07c0.02,0.02,0.05,0.03,0.08,0.05l0.01,0.03c0.02,0.05,0.08,0.08,0.15,0.09c0.01,0,0.03,0,0.04,0
				c0.03,0,0.06-0.01,0.09-0.02c0.01,0.02,0.02,0.03,0.04,0.05l-0.03,0c-0.02,0-0.04,0.01-0.06,0.02c-0.04,0-0.07,0-0.11,0.02
				l-0.07,0.03c-0.03,0.01-0.06,0.03-0.09,0.04c0,0,0,0-0.01,0c-0.02,0.01-0.03,0.01-0.04,0.02C10.51,7.5,10.5,7.5,10.49,7.51
				l-0.04-0.05l-0.06,0.02c-0.08,0.02-0.12,0.09-0.13,0.15c0,0,0,0.01,0,0.01c-0.01,0.01-0.02,0.03-0.03,0.04l-0.02,0.04
				c0,0,0,0,0,0l-0.17-0.05c-0.1-0.03-0.22,0-0.26,0.08C9.77,7.77,9.77,7.79,9.77,7.82C9.65,7.8,9.54,7.79,9.45,7.86
				C9.41,7.9,9.4,7.93,9.39,7.97C9.35,7.98,9.3,8,9.27,8.03c-0.05,0.01-0.1,0.05-0.13,0.08C9.14,8.11,9.13,8.12,9.13,8.12l-0.01,0
				c-0.09-0.01-0.2,0.06-0.23,0.14c0,0.01-0.01,0.02-0.01,0.03L8.84,8.3C8.79,8.32,8.75,8.35,8.73,8.38
				C8.72,8.4,8.72,8.41,8.72,8.42C8.68,8.44,8.65,8.48,8.64,8.51c-0.01,0.02,0,0.04,0,0.06L8.61,8.59C8.54,8.61,8.5,8.65,8.49,8.7
				C8.47,8.71,8.46,8.73,8.45,8.74L8.38,8.85c-0.05,0.08,0,0.16,0.1,0.2C8.49,9.06,8.5,9.06,8.52,9.06
				C8.49,9.08,8.47,9.09,8.45,9.11C8.38,9.12,8.32,9.16,8.3,9.21c-0.02,0.05,0,0.11,0.05,0.15C8.31,9.4,8.29,9.43,8.26,9.46
				C8.25,9.47,8.25,9.48,8.24,9.5C8.2,9.52,8.16,9.55,8.15,9.59c0,0.01,0,0.01,0,0.02C8.13,9.63,8.11,9.64,8.1,9.66
				c-0.04,0.02-0.07,0.06-0.08,0.1C8.01,9.85,8.08,9.92,8.19,9.93l0.01,0c0,0,0,0.01,0.01,0.01c0,0-0.01,0.01-0.01,0.01c0,0,0,0,0,0
				c-0.15,0.05-0.2,0.16-0.24,0.23c-0.02,0.02-0.03,0.04-0.03,0.06c-0.05,0.04-0.07,0.09-0.05,0.14c0.01,0.03,0.03,0.05,0.05,0.07
				c-0.01,0.01-0.01,0.03-0.02,0.04c-0.01,0.06,0.01,0.11,0.08,0.16c0,0.01,0,0.01,0,0.02l0.05,0.2C8.02,10.91,8.01,10.92,8,10.94
				l-0.02,0.05l-0.13,0.07c-0.09,0.05-0.11,0.14-0.04,0.21c0.02,0.02,0.05,0.04,0.08,0.05l0.07,0.07c0,0,0,0,0,0
				c-0.05,0.01-0.09,0.02-0.11,0.03c-0.1,0.04-0.13,0.12-0.09,0.2c-0.06,0.04-0.09,0.1-0.07,0.16c-0.01,0.03-0.03,0.09-0.01,0.15
				c0,0,0,0.01,0,0.01c-0.02,0.05-0.09,0.19,0.05,0.3c0,0.02,0,0.04,0.01,0.06l0.03,0.07c-0.04,0.07-0.08,0.17-0.08,0.21
				c-0.01,0.01-0.02,0.03-0.03,0.05c0,0.01,0,0.02,0,0.03c-0.05,0.04-0.07,0.11-0.03,0.17c0.01,0.01,0.01,0.02,0.02,0.03
				c-0.01,0.01-0.01,0.03-0.01,0.04c-0.05,0.04-0.06,0.09-0.04,0.15c0.01,0.02,0.02,0.04,0.04,0.05L7.6,13.13
				c-0.01,0.03-0.01,0.05,0,0.08c0,0-0.01,0.01-0.01,0.01c-0.04,0.04-0.04,0.1-0.01,0.14c-0.01,0.01-0.02,0.02-0.02,0.04
				c-0.01,0.04,0,0.08,0.02,0.12c-0.04,0.04-0.05,0.09-0.03,0.13c0.01,0.03,0.04,0.06,0.08,0.08L7.58,13.8
				c-0.05,0.06-0.05,0.14,0.02,0.19l0,0.01c-0.01,0.02-0.01,0.04,0,0.06L7.55,14.1c-0.02,0.03-0.03,0.06-0.02,0.09
				c-0.02,0.07,0.03,0.14,0.13,0.17c-0.06,0.02-0.1,0.06-0.11,0.1c-0.01,0.03-0.01,0.07,0.01,0.1c-0.01,0.01-0.01,0.03-0.02,0.05
				l-0.01,0.1c-0.01,0.08,0.07,0.16,0.18,0.17c0,0,0,0,0.01,0C7.7,14.89,7.7,14.9,7.7,14.91C7.64,14.92,7.6,14.95,7.57,15
				c-0.03,0.05-0.02,0.11,0.03,0.15L7.57,15.3c-0.01,0.04,0.01,0.07,0.03,0.1c-0.05,0.04-0.07,0.1-0.04,0.16
				c0.01,0.02,0.03,0.04,0.06,0.06c0.01,0.03,0.03,0.06,0.07,0.09c0.01,0.01,0.02,0.01,0.03,0.02c0,0.01,0,0.01,0,0.02
				c0,0.02,0,0.04,0.01,0.06c-0.04,0.03-0.06,0.06-0.08,0.09c-0.03,0.07,0,0.14,0.04,0.18c0,0.02,0.01,0.03,0.02,0.05
				C7.7,16.13,7.7,16.15,7.7,16.17c0,0.01,0,0.02,0.01,0.03c0,0.01,0,0.01,0,0.02c-0.01,0.01-0.01,0.03-0.01,0.04l-0.01,0.07
				c0,0.05,0.02,0.08,0.06,0.11l0,0.01c-0.04,0.08,0.01,0.16,0.11,0.2c0.01,0,0.03,0.01,0.04,0.01c-0.05,0.04-0.07,0.09-0.04,0.15
				l0.05,0.11c0.01,0.03,0.03,0.05,0.06,0.07c0,0,0,0,0,0l0,0c0.01,0.01,0.03,0.02,0.04,0.02C8.01,17,8,17,8,17.01
				c-0.05,0.05-0.04,0.13,0.01,0.18c0.03,0.03,0.08,0.05,0.13,0.06c-0.04,0.05-0.03,0.12,0.03,0.17c0.01,0.01,0.03,0.02,0.05,0.03
				c-0.01,0.05,0.01,0.1,0.07,0.13l0.04,0.03c0.01,0.01,0.02,0.01,0.03,0.02c0.01,0.03,0.04,0.05,0.07,0.07
				c0.05,0.03,0.1,0.05,0.14,0.08c0,0.02,0.02,0.05,0.03,0.07c0.02,0.03,0.07,0.06,0.12,0.08c0.09,0.05,0.21,0.09,0.34,0.1
				c0.03,0.05,0.08,0.08,0.15,0.09c0.01,0,0.01,0,0.02,0c0.02,0.03,0.05,0.05,0.09,0.07c0.03,0.01,0.05,0.02,0.08,0.02
				c-0.05,0.07-0.02,0.16,0.08,0.2c0.03,0.01,0.07,0.02,0.1,0.02c0.05,0,0.09-0.01,0.13-0.03c0.02,0.01,0.04,0.01,0.06,0.02
				c0,0,0,0,0,0.01c0.01,0.05,0.06,0.1,0.13,0.12l0.11,0.03c0.04,0.01,0.08,0.01,0.12,0c0.03,0.02,0.06,0.02,0.09,0.03l0.06,0.03
				c0.03,0.01,0.07,0.02,0.1,0.02c0.02,0,0.04,0,0.05-0.01c0.07,0.02,0.14,0.02,0.19,0.02l0.06,0c0.01,0,0.02,0,0.03,0
				c0.02,0,0.04,0,0.06-0.01c0.04,0.03,0.1,0.04,0.17,0.03c0.02,0,0.04,0,0.05-0.01c0.02,0.01,0.05,0.01,0.08,0.01
				c0.03,0,0.05,0,0.08-0.01l0.07-0.02c0.03-0.01,0.06-0.03,0.08-0.05c0.01,0,0.02,0,0.02-0.01c0.04,0.03,0.09,0.05,0.15,0.05
				c0.02,0,0.03,0,0.05,0c0.09-0.02,0.15-0.08,0.15-0.14c0.02-0.01,0.05-0.03,0.06-0.05l0.03,0.01c0,0,0,0,0,0c0.01,0,0.02,0,0.02,0
				c0,0,0,0,0.01,0c0.01,0,0.02,0,0.03,0c0,0,0,0,0,0c0,0,0,0,0,0c0,0,0,0,0,0c0.01,0,0.02,0,0.03,0c0,0,0.01,0,0.01,0
				c0.01,0,0.01,0,0.02,0c0,0,0.01,0,0.01,0c0,0,0.01,0,0.01,0c0.01,0,0.02,0.01,0.03,0.01l0,0c0.04,0.04,0.1,0.06,0.16,0.06
				c0.03,0,0.05,0,0.08-0.01l0.06-0.02c0.04-0.01,0.08-0.04,0.1-0.07c0.01-0.01,0.01-0.01,0.02-0.02c0.01-0.01,0.02-0.03,0.03-0.04
				c0.01-0.01,0.02-0.02,0.03-0.03c0.02,0.01,0.04,0.02,0.06,0.03c0.03,0.01,0.05,0.01,0.08,0.01c0.08,0,0.16-0.03,0.19-0.09
				c0.01-0.01,0.01-0.02,0.01-0.03c0.05,0,0.09-0.02,0.13-0.04l0.14-0.1c0.04-0.03,0.06-0.08,0.06-0.12
				c0.02-0.01,0.04-0.03,0.05-0.05c0.01,0,0.02,0,0.03,0.01C13.13,17.98,13.13,18.01,13.14,18.03
				C13.14,18.03,13.14,18.03,13.14,18.03z M26.15,17.8c-0.02,0.01-0.03,0.02-0.04,0.04c-0.09,0-0.17,0.05-0.19,0.12
				c-0.01,0.02-0.01,0.05,0,0.07c0,0,0,0,0,0c-0.05,0.03-0.08,0.07-0.08,0.11c-0.01,0.07,0.02,0.12,0.05,0.18
				c-0.01,0.01-0.02,0.02-0.03,0.03c-0.05,0.01-0.09,0.03-0.12,0.07l-0.16,0.21c-0.06,0.07-0.03,0.16,0.07,0.2
				c-0.06,0.01-0.12,0.02-0.18,0.03c-0.11,0.02-0.18,0.09-0.16,0.18c0,0,0,0.01,0,0.01c-0.06,0-0.11,0.02-0.14,0.06
				c-0.01,0.01-0.01,0.01-0.01,0.02c-0.01,0.01-0.03,0.02-0.04,0.04c-0.03,0.02-0.05,0.04-0.06,0.07c0,0,0,0,0,0
				c-0.02,0.02-0.03,0.03-0.05,0.05c-0.01,0-0.01,0.01-0.02,0.01c0,0-0.01,0.01-0.01,0.01c0,0.01-0.01,0.01-0.01,0.02
				c-0.03,0.02-0.05,0.05-0.05,0.09c-0.04,0.01-0.08,0.03-0.1,0.06c-0.02,0.01-0.03,0.02-0.04,0.03c0,0-0.01,0.01-0.01,0.01
				c0,0,0,0-0.01,0c-0.05,0.01-0.08,0.04-0.1,0.08c0,0-0.01,0.01-0.01,0.01c-0.01,0-0.01,0.01-0.02,0.01
				c-0.03,0.02-0.04,0.05-0.05,0.07c-0.02,0.01-0.03,0.01-0.05,0.02c-0.02,0.01-0.04,0.03-0.05,0.05c-0.01,0-0.02,0.01-0.03,0.01
				c-0.04,0.01-0.08,0.03-0.1,0.05c-0.02,0.02-0.03,0.03-0.03,0.05c-0.01,0.01-0.03,0.02-0.04,0.03c-0.01,0.01-0.02,0.01-0.03,0.02
				c0,0,0,0-0.01,0.01c-0.01,0.01-0.03,0.02-0.04,0.03c-0.01,0-0.02,0.01-0.02,0.01l-0.06,0.04c-0.02,0.01-0.05,0.01-0.07,0.03
				c-0.03,0.01-0.04,0.03-0.06,0.05c-0.01,0.01-0.03,0.02-0.04,0.02c-0.02,0.01-0.03,0.02-0.05,0.04c-0.02,0.01-0.04,0.01-0.06,0.02
				c0,0,0,0,0,0c-0.04,0-0.09,0.01-0.13,0.03c-0.03,0.02-0.05,0.04-0.07,0.07c-0.01,0.01-0.02,0.01-0.03,0.02
				c-0.03,0.02-0.05,0.04-0.06,0.07c-0.05-0.01-0.1,0-0.15,0.03c0,0,0,0,0,0c0,0,0,0-0.01,0c-0.03,0-0.06,0-0.09,0.01
				c-0.04,0.01-0.07,0.04-0.09,0.06c-0.01,0-0.03,0.01-0.04,0.01c0,0,0,0,0,0c0,0,0,0,0,0c0,0,0,0,0,0c0,0-0.01,0-0.01,0
				c0,0,0,0,0,0c-0.02,0.01-0.03,0.01-0.04,0.02c-0.01,0-0.02,0-0.04,0.01c-0.02,0-0.04,0-0.06,0.01c-0.02,0.01-0.04,0.02-0.06,0.03
				c-0.02,0-0.03,0-0.05,0.01c-0.02,0.01-0.04,0.01-0.05,0.02c-0.01,0-0.01,0-0.02,0c-0.02,0-0.03,0.01-0.05,0.02
				c-0.01,0-0.02,0-0.03,0.01c-0.01,0-0.03,0-0.04,0c-0.01,0-0.02,0-0.03,0.01c-0.01,0-0.02,0-0.03,0.01c0,0,0,0,0,0
				c-0.01,0-0.02,0-0.03,0c-0.01,0-0.02,0-0.03,0.01c-0.01,0-0.01,0-0.02,0c-0.02,0-0.04,0.01-0.05,0.01c-0.01,0-0.03,0-0.04,0
				c-0.01,0-0.02,0-0.03,0.01c0,0-0.01,0-0.01,0c-0.02,0-0.04,0.01-0.06,0.02c-0.01,0-0.02,0.01-0.02,0.01
				c-0.04-0.02-0.09-0.03-0.14-0.02c-0.03,0-0.06,0.01-0.08,0.03c-0.01,0-0.02,0-0.03,0.01c-0.02,0-0.03,0-0.05,0
				c-0.01,0-0.01,0-0.02,0c-0.03-0.02-0.06-0.04-0.09-0.04c-0.04-0.01-0.09-0.01-0.16-0.01l0,0.01c-0.02-0.02-0.06-0.04-0.08-0.04
				c-0.02-0.01-0.04-0.01-0.06-0.01c-0.01,0-0.01,0-0.02-0.01c-0.05-0.01-0.11-0.02-0.16-0.03l-0.05-0.01
				c-0.01-0.01-0.03-0.02-0.03-0.02c-0.03-0.02-0.07-0.04-0.12-0.04c-0.02-0.01-0.04-0.01-0.06-0.01c-0.01-0.01-0.03-0.02-0.04-0.02
				c-0.07-0.03-0.14-0.02-0.2,0.01c-0.01-0.01-0.01-0.02-0.02-0.02c0,0,0,0,0,0c-0.03-0.1-0.12-0.13-0.16-0.14
				c-0.01,0-0.03-0.01-0.04-0.01c-0.01-0.01-0.02-0.01-0.03-0.02c-0.01-0.01-0.02-0.03-0.03-0.04c-0.01-0.01-0.02-0.01-0.03-0.02
				c0,0-0.01-0.01-0.01-0.01c-0.02-0.02-0.05-0.04-0.09-0.05c-0.01-0.01-0.01-0.01-0.02-0.02c-0.01-0.01-0.02-0.02-0.04-0.03
				c-0.03-0.04-0.09-0.07-0.16-0.07c-0.01-0.01-0.01-0.03-0.02-0.04c-0.03-0.05-0.09-0.09-0.16-0.1l-0.06-0.01l0,0c0,0,0,0,0,0
				c0-0.05-0.03-0.09-0.08-0.12c-0.01-0.01-0.03-0.01-0.05-0.02c-0.01-0.03-0.03-0.06-0.06-0.08c0-0.01,0-0.02,0-0.03
				c-0.02-0.07-0.06-0.13-0.12-0.17c-0.01-0.03-0.04-0.06-0.08-0.08c-0.01-0.04-0.05-0.07-0.1-0.09c0,0-0.01-0.01-0.01-0.01
				c-0.02-0.02-0.04-0.03-0.06-0.04c0-0.01,0-0.02,0-0.03c0-0.04-0.02-0.07-0.06-0.1c-0.01-0.01-0.01-0.01-0.02-0.01
				c-0.02-0.04-0.05-0.07-0.09-0.08c0,0,0,0,0,0c0-0.02-0.01-0.04-0.03-0.06c0-0.02,0-0.03-0.01-0.05c-0.02-0.04-0.07-0.08-0.12-0.1
				c-0.01-0.04-0.04-0.08-0.1-0.1c0-0.01-0.01-0.02-0.01-0.02c0,0-0.01-0.01-0.01-0.01c0-0.01,0-0.01-0.01-0.02
				c-0.01-0.04-0.06-0.08-0.11-0.1c0,0,0,0,0-0.01c0.01-0.04-0.01-0.08-0.04-0.11c0,0,0,0-0.01,0c0-0.02,0-0.03-0.01-0.05
				c0-0.01,0-0.01-0.01-0.02c0-0.01-0.01-0.03-0.01-0.04c-0.01-0.02-0.03-0.04-0.05-0.06c-0.01-0.02-0.02-0.04-0.04-0.06
				c-0.02-0.02-0.05-0.04-0.09-0.04c0-0.01,0-0.03,0-0.04c-0.01-0.03-0.03-0.06-0.06-0.08c0,0,0,0-0.01-0.01
				c-0.02-0.02-0.05-0.04-0.08-0.04c0.01-0.02,0.02-0.04,0.02-0.06c0.01-0.06-0.03-0.11-0.07-0.15c0.01-0.03,0-0.07-0.01-0.1
				c0-0.01,0.01-0.02,0.01-0.03c0.01-0.07-0.02-0.14-0.11-0.2c0,0-0.01,0-0.01-0.01c0.01-0.02,0.01-0.04,0-0.07
				c0.02-0.06-0.01-0.11-0.07-0.15c0-0.01,0-0.01,0-0.02c0.01-0.03,0.01-0.06-0.01-0.09c-0.01-0.04-0.05-0.08-0.09-0.1
				c0,0,0-0.01-0.01-0.01c-0.01-0.01-0.02-0.02-0.03-0.03c0.02-0.01,0.03-0.03,0.03-0.05l0.01-0.04c0.02-0.04,0.01-0.09-0.03-0.13
				c-0.01-0.01-0.02-0.02-0.03-0.03c0-0.03,0-0.07-0.03-0.11c-0.01-0.01-0.01-0.02-0.02-0.03l-0.04-0.05l-0.01-0.2
				c0-0.02-0.01-0.04-0.02-0.06c0-0.03-0.01-0.07-0.03-0.09c0.01-0.01,0.02-0.03,0.02-0.04c0.01-0.05-0.01-0.1-0.05-0.13
				c0-0.02,0-0.04-0.01-0.06c-0.01-0.01-0.01-0.03-0.03-0.04c0.03-0.08-0.02-0.16-0.12-0.18c0.05-0.03,0.08-0.07,0.08-0.11
				c0-0.03-0.01-0.05-0.02-0.08c0.01-0.05-0.01-0.1-0.04-0.13l-0.05-0.05c0-0.01,0.01-0.01,0.01-0.02c0.03-0.02,0.04-0.06,0.04-0.09
				c0-0.03-0.01-0.07-0.04-0.09c0-0.02,0-0.04-0.01-0.06c0.01-0.03,0.02-0.07,0.01-0.11c0-0.01-0.01-0.03-0.02-0.04
				c0.01-0.02,0.01-0.05,0-0.07c0-0.01,0-0.01,0-0.02c0-0.01,0.01-0.02,0.01-0.04c0-0.03-0.01-0.05-0.02-0.07
				c-0.01-0.02-0.02-0.04-0.03-0.06c0.02-0.03,0.01-0.07-0.01-0.1c0-0.01,0-0.03-0.01-0.04c0-0.01-0.01-0.02-0.02-0.03
				c0.01-0.01,0.01-0.02,0.02-0.03c0.04-0.06,0.02-0.13-0.05-0.17c0.01-0.03,0.01-0.07-0.01-0.1c0.03-0.06,0.01-0.12-0.06-0.17
				c-0.02-0.01-0.04-0.02-0.06-0.03c0,0,0-0.01,0-0.01c0.02-0.03,0.02-0.05,0.02-0.08c0.02-0.01,0.04-0.03,0.06-0.05
				c0.04-0.05,0.05-0.11,0.03-0.17c0.04-0.03,0.06-0.07,0.06-0.11c0-0.04-0.02-0.08-0.06-0.11c0.02-0.04,0.01-0.08-0.02-0.12
				c0.06-0.06,0.09-0.14,0.06-0.25c0.04-0.03,0.06-0.07,0.05-0.12c-0.01-0.04-0.03-0.08-0.07-0.1c0-0.01,0.01-0.01,0.01-0.02
				c0.03-0.03,0.04-0.07,0.03-0.11c-0.01-0.03-0.03-0.05-0.05-0.07c0.05-0.03,0.08-0.07,0.08-0.12c0-0.02-0.01-0.04-0.02-0.06
				c0.02-0.03,0.03-0.06,0.03-0.1c0,0,0,0,0-0.01c0.02-0.05,0.02-0.11-0.03-0.15c0,0-0.01,0-0.01-0.01
				c0.03-0.04,0.04-0.09,0.01-0.14c-0.01-0.02-0.02-0.03-0.04-0.04c0.03-0.02,0.06-0.04,0.07-0.06c0.01-0.02,0.02-0.05,0.02-0.08
				c0.02-0.01,0.04-0.03,0.05-0.05l0.04-0.06c0.04-0.06,0.02-0.13-0.05-0.17c0.02-0.02,0.02-0.05,0.03-0.07
				c0.04-0.03,0.07-0.07,0.07-0.11l0-0.1c0.04-0.04,0.05-0.09,0.03-0.13c0,0,0,0,0,0c0.02-0.02,0.04-0.04,0.04-0.07
				c0.01-0.03,0-0.05-0.01-0.08c0-0.01,0-0.01,0.01-0.02c0.03-0.07,0.05-0.14,0.08-0.2c0.01-0.02,0.01-0.05,0.01-0.07
				c0.02-0.01,0.04-0.03,0.05-0.04c0.03-0.04,0.04-0.09,0.01-0.14c0.04-0.04,0.05-0.08,0.04-0.11c0-0.01,0-0.02-0.01-0.03
				c0.04-0.03,0.07-0.08,0.05-0.13l-0.01-0.03c0.05-0.03,0.08-0.07,0.07-0.12c0-0.01,0-0.01,0-0.01c0.03-0.03,0.05-0.06,0.05-0.1
				c0.01-0.02,0.02-0.04,0.03-0.05c0.01-0.01,0.01-0.02,0.01-0.04c0.01-0.01,0.01-0.02,0.02-0.03c0.04-0.06,0.02-0.13-0.04-0.17
				c0.01-0.01,0.01-0.02,0.01-0.03c0-0.01,0-0.02,0-0.03c0.08-0.01,0.15-0.06,0.17-0.11c0.03-0.03,0.04-0.06,0.04-0.09c0,0,0,0,0,0
				c0,0,0,0,0,0c0.03-0.02,0.08-0.07,0.07-0.14c0.02-0.02,0.03-0.04,0.03-0.05c0,0,0,0,0,0c0.02-0.01,0.04-0.03,0.06-0.05
				c0.01-0.01,0.02-0.03,0.02-0.04c0.04-0.04,0.05-0.09,0.03-0.14c0.01-0.01,0.03-0.02,0.04-0.04c0.03-0.01,0.05-0.02,0.07-0.04
				c0.04-0.03,0.05-0.07,0.05-0.11c0.02-0.01,0.03-0.02,0.05-0.03c0.02-0.01,0.04-0.03,0.06-0.05c0.02-0.02,0.02-0.05,0.02-0.08
				c0.06-0.03,0.1-0.08,0.12-0.1c0.02-0.02,0.03-0.05,0.03-0.08c0.05-0.02,0.09-0.05,0.11-0.08c0.01-0.01,0.01-0.01,0.01-0.02
				c0.04-0.02,0.07-0.05,0.09-0.09c0.01-0.01,0.02-0.01,0.02-0.02c0.02-0.01,0.03-0.02,0.05-0.04c0.05-0.02,0.09-0.06,0.09-0.11
				l0.01-0.05c0,0,0-0.01,0-0.01l0.03-0.01c0.03-0.01,0.06-0.02,0.08-0.04c0.02,0,0.04-0.01,0.06-0.02c0.05-0.02,0.08-0.06,0.09-0.1
				c0.04-0.01,0.08-0.02,0.11-0.04c0.02-0.01,0.03-0.02,0.04-0.03c0.04-0.01,0.06-0.04,0.08-0.07c0.04-0.01,0.07-0.02,0.09-0.04
				c0.03-0.02,0.05-0.05,0.06-0.07c0.03-0.01,0.05-0.03,0.07-0.04c0,0,0,0,0.01,0c0.02,0,0.05,0,0.07-0.01
				c0.05-0.01,0.09-0.04,0.11-0.08c0.01,0,0.02,0,0.03,0c0.05-0.01,0.1-0.05,0.13-0.09c0.04-0.01,0.07-0.02,0.09-0.05
				c0.02,0.01,0.04,0.01,0.06,0.01c0.02,0,0.04,0,0.06-0.01c0.05-0.01,0.09-0.03,0.11-0.06c0.01,0,0.02,0,0.03,0
				c0.03,0,0.06-0.01,0.09-0.02c0.01-0.01,0.03-0.01,0.04-0.02c0.06-0.01,0.11-0.03,0.14-0.07c0,0,0-0.01,0.01-0.01
				c0.02,0.01,0.05,0.01,0.08,0.01c0.02,0,0.04,0,0.06-0.01c0.05-0.01,0.08-0.03,0.11-0.06c0.02-0.01,0.04-0.02,0.06-0.03
				c0.03,0.01,0.06,0.02,0.09,0.02c0.04,0,0.08-0.01,0.12-0.03c0.01,0,0.02-0.01,0.02-0.01c0.03,0.01,0.08,0.03,0.13,0.03
				c0.03,0,0.07-0.01,0.11-0.02c0.02-0.01,0.03-0.01,0.04-0.02c0.04,0.03,0.09,0.04,0.13,0.04c0.02,0,0.04,0,0.06-0.01
				c0.04-0.01,0.08-0.03,0.1-0.06c0.01,0.01,0.03,0.01,0.04,0.01c0.04,0.04,0.1,0.06,0.16,0.06c0.01,0,0.02,0,0.04,0
				c0.03,0,0.06-0.01,0.08-0.03c0.01,0,0.03,0,0.04,0c0.01,0,0.01,0,0.02,0c0.02,0,0.04,0,0.05-0.01c0.03,0.01,0.06,0.02,0.09,0.02
				c0.01,0,0.03,0,0.04,0c0.03,0.01,0.06,0.02,0.1,0.02c0.02,0,0.03,0,0.05,0c0,0,0,0,0.01,0c0.01,0,0.03,0.01,0.04,0.01
				c0.02,0,0.04,0.01,0.05,0.01c0,0,0,0,0,0c0.02,0.01,0.05,0.02,0.08,0.03c0.02,0,0.04,0.01,0.07,0.01c0.01,0,0.01,0,0.02,0
				c0,0,0.01,0,0.01,0c0.02,0.01,0.05,0.03,0.09,0.03c0.01,0,0.03,0,0.04,0c0.03,0,0.06-0.01,0.09-0.02
				c0.01,0.03,0.04,0.05,0.06,0.06c0,0,0,0-0.01,0c0,0-0.01,0-0.01,0.01c0,0-0.01,0-0.01,0c-0.06-0.01-0.12-0.01-0.17,0.01
				c-0.01,0-0.02,0.01-0.03,0.02c-0.04,0-0.08,0.01-0.12,0.03c-0.02,0.01-0.03,0.02-0.05,0.04c-0.06-0.02-0.13-0.01-0.18,0.02
				c-0.02,0-0.04,0-0.05,0.01l-0.13,0.04c-0.1,0.03-0.16,0.12-0.12,0.19c0.01,0.02,0.02,0.03,0.04,0.05c-0.05-0.01-0.11-0.01-0.15,0
				c-0.06-0.03-0.14-0.03-0.21,0c-0.07,0.03-0.1,0.09-0.1,0.14c-0.06,0.02-0.12,0.03-0.17,0.05C22.26,7.98,22.24,7.99,22.23,8
				c-0.05,0-0.11,0.01-0.15,0.03c-0.02,0.01-0.03,0.02-0.04,0.03c-0.04,0-0.08,0.02-0.11,0.04c-0.05,0-0.1,0.02-0.14,0.05
				c-0.07,0.06-0.06,0.16,0.03,0.21l0,0c-0.01,0.01-0.01,0.03-0.01,0.04c-0.02,0.01-0.03,0.02-0.05,0.03
				c-0.01,0-0.01,0.01-0.02,0.01c-0.19,0.01-0.29,0.1-0.35,0.16c-0.01,0.01-0.03,0.03-0.05,0.04c-0.03,0.02-0.05,0.04-0.06,0.07
				c-0.01,0-0.02,0.01-0.02,0.01c-0.06,0.03-0.07,0.08-0.07,0.14c0,0.02,0.01,0.04,0.02,0.06c-0.03,0.02-0.05,0.05-0.06,0.07
				c-0.02,0.04-0.03,0.1,0.03,0.17c0,0.01-0.01,0.02-0.01,0.03c-0.01,0.08-0.01,0.17,0,0.25c-0.02,0.01-0.04,0.03-0.05,0.05
				l-0.04,0.06c0,0,0,0,0,0l-0.14,0.07c-0.09,0.05-0.12,0.14-0.06,0.21c0.02,0.02,0.04,0.04,0.07,0.05l0.06,0.08c0,0,0,0,0.01,0.01
				c-0.05,0-0.09,0.02-0.11,0.02c-0.1,0.03-0.14,0.11-0.1,0.19c-0.06,0.03-0.09,0.09-0.08,0.15c-0.01,0.03-0.03,0.08-0.02,0.14
				c0,0,0,0.01-0.01,0.01c-0.03,0.05-0.1,0.18,0.02,0.3c-0.01,0.02,0,0.04,0,0.06l0.02,0.07c-0.05,0.07-0.09,0.16-0.1,0.2
				c-0.01,0.01-0.02,0.03-0.03,0.05c0,0.01-0.01,0.02-0.01,0.02c-0.06,0.04-0.08,0.11-0.05,0.16c0.01,0.01,0.01,0.02,0.02,0.03
				c-0.01,0.01-0.01,0.03-0.02,0.04c-0.05,0.04-0.07,0.09-0.06,0.14c0.01,0.02,0.02,0.04,0.03,0.05l-0.02,0.04
				c-0.01,0.03-0.01,0.05-0.01,0.08c0,0-0.01,0.01-0.01,0.01c-0.04,0.04-0.04,0.1-0.02,0.14c-0.01,0.01-0.02,0.02-0.02,0.04
				c-0.02,0.04-0.01,0.08,0.01,0.12c-0.04,0.04-0.05,0.09-0.04,0.13c0.01,0.03,0.04,0.06,0.08,0.08l-0.07,0.07
				c-0.06,0.06-0.05,0.13,0,0.19l0,0.01c-0.01,0.02-0.01,0.04-0.01,0.06l-0.03,0.04c-0.02,0.03-0.03,0.06-0.03,0.09
				c-0.02,0.07,0.02,0.14,0.11,0.17c-0.05,0.02-0.09,0.06-0.11,0.1c-0.01,0.03-0.01,0.07,0.01,0.1c-0.02,0.02-0.03,0.05-0.04,0.07
				l-0.01,0.07c-0.02,0.08,0.06,0.16,0.17,0.17c0.01,0,0.02,0,0.03,0c0,0.01-0.01,0.01-0.01,0.02c-0.07,0.01-0.13,0.04-0.16,0.09
				c-0.03,0.05-0.02,0.11,0.02,0.15l-0.04,0.15c-0.01,0.03,0,0.07,0.02,0.1c-0.05,0.04-0.07,0.1-0.05,0.15
				c0.01,0.02,0.03,0.05,0.05,0.06c0.01,0.03,0.02,0.06,0.06,0.08c0.01,0.01,0.02,0.01,0.02,0.02c0,0,0,0.01-0.01,0.02
				c-0.01,0.02,0,0.04,0,0.06c-0.04,0.02-0.06,0.05-0.08,0.08c-0.04,0.07-0.01,0.13,0.01,0.17c0,0.01,0.01,0.03,0.01,0.04
				c-0.01,0.01-0.01,0.03-0.01,0.05c0,0.01,0,0.02,0,0.03c0,0,0,0,0,0.01c-0.01,0.01-0.01,0.02-0.02,0.03l-0.02,0.06l0.09,0.02
				c0,0,0.01,0.01,0.01,0.01c-0.01,0.01-0.01,0.01-0.02,0.02l-0.05,0.05c-0.06,0.07-0.04,0.16,0.05,0.21c0,0,0,0,0,0
				c-0.03,0.03-0.05,0.07-0.05,0.11l0.01,0.1c0,0.02,0.01,0.04,0.02,0.06c-0.01,0.01-0.01,0.03-0.01,0.04
				c-0.03,0.04-0.04,0.08-0.02,0.13c0.01,0.03,0.03,0.05,0.06,0.07c-0.03,0.04-0.05,0.09-0.03,0.13c0.01,0.01,0.01,0.02,0.02,0.03
				c-0.02,0.05-0.02,0.11,0.01,0.15c0,0,0,0.01,0.01,0.01c0,0.03,0.01,0.06,0.02,0.08l0.05,0.07c-0.01,0.02-0.02,0.04-0.02,0.06
				c-0.01,0.04,0.01,0.08,0.05,0.11c0.04,0.06,0.1,0.12,0.17,0.18c-0.01,0.04,0.01,0.09,0.05,0.12c-0.01,0.03,0,0.05,0.01,0.08
				c0,0.01,0.01,0.02,0.02,0.03c-0.1,0.03-0.15,0.11-0.12,0.18c0.02,0.06,0.1,0.1,0.17,0.11c0,0,0,0,0,0c0,0,0,0,0,0
				c-0.04,0.04-0.05,0.1-0.03,0.15l0.04,0.08l0.07-0.02c0,0.02,0,0.04,0,0.06c0,0.03,0.01,0.06,0.03,0.08l0.01,0.04
				c0.01,0.04,0.04,0.07,0.08,0.1c0.03,0.05,0.06,0.08,0.08,0.11c0.01,0.01,0.03,0.03,0.04,0.04c0.01,0.02,0.03,0.04,0.06,0.05
				c0,0.04,0.02,0.08,0.07,0.11c0.01,0.01,0.03,0.02,0.04,0.03c0.01,0.04,0.05,0.07,0.1,0.09l0.07,0.03
				c0.02,0.01,0.05,0.01,0.08,0.01c0.01,0,0.01,0,0.02,0c0.01,0,0.01,0,0.02,0.01c-0.01,0.05,0.01,0.11,0.07,0.14
				c0.04,0.02,0.08,0.03,0.13,0.03c0.04,0,0.08-0.01,0.12-0.03c0.02,0.01,0.04,0.01,0.07,0.01c0,0,0,0,0,0
				c0,0.01,0.01,0.01,0.01,0.02c0,0,0,0,0,0c0,0.01,0.01,0.01,0.01,0.02c0,0,0,0,0,0c0,0.01,0.01,0.01,0.01,0.02c0,0,0,0,0,0
				c0.01,0,0.01,0.01,0.02,0.01c0,0,0,0,0,0c0.01,0,0.01,0.01,0.02,0.01c0,0,0,0,0,0c0,0,0,0,0.01,0c0,0.01,0.01,0.01,0.01,0.02l0,0
				c-0.03,0.07,0.01,0.14,0.09,0.18l0.05,0.02c0.03,0.01,0.07,0.02,0.1,0.02c0.01,0,0.02,0,0.03,0c0.01,0,0.01,0,0.02,0
				c0,0,0.01,0,0.01,0c0.02,0,0.04,0,0.06-0.01c0,0,0,0,0,0c0.02,0,0.04,0,0.05-0.01c0,0.02,0,0.04,0.01,0.06
				c0.03,0.07,0.11,0.12,0.2,0.12c0.02,0,0.03,0,0.05-0.01c0.01,0,0.03-0.01,0.04-0.01c0.03,0.03,0.07,0.05,0.12,0.05
				c0.05,0.01,0.1,0.01,0.16,0.01l0.06,0c0.01,0,0.01,0,0.02,0c0.05,0,0.11-0.02,0.14-0.05l0,0c0.01,0,0.03,0,0.04,0
				c0.03,0,0.06,0,0.08-0.01c0.01,0.02,0.02,0.03,0.04,0.05c0.02,0.02,0.05,0.03,0.08,0.04c0.04,0.03,0.09,0.05,0.14,0.05l0.12,0
				c0,0,0,0,0,0c0.05,0,0.1-0.02,0.14-0.04c0.01,0,0.02,0,0.04,0c0.05,0,0.1-0.01,0.13-0.03c0.12,0.01,0.24,0.02,0.37,0.02
				c0.04,0,0.07,0,0.11,0c0.1,0,0.18-0.06,0.19-0.13l0.01-0.06c0-0.01,0-0.01,0-0.01c0.03,0,0.06-0.01,0.09-0.02
				c0.03-0.01,0.05-0.03,0.07-0.04c0.03,0.02,0.08,0.03,0.12,0.03c0.01,0,0.01,0,0.02,0c0.06,0,0.11-0.03,0.14-0.06
				c0.01,0,0.01,0,0.02,0.01c0.02,0,0.04,0.01,0.05,0.01c0.09,0,0.17-0.04,0.19-0.11l0.01-0.02c0.06-0.02,0.11-0.05,0.12-0.1
				c0.01-0.01,0.03-0.02,0.05-0.03c0.06-0.03,0.19-0.1,0.21-0.22c0.03-0.01,0.06-0.03,0.08-0.05c0.02-0.02,0.05-0.05,0.07-0.07
				c0.01,0.02,0.03,0.03,0.05,0.05l0.01,0L26.15,17.8z"/>
		</g>
	</g>
	<g>
		<path class="st1" d="M23.63,15.79c-0.03-0.01-0.06-0.01-0.09,0c-0.01-0.01-0.03-0.02-0.04-0.03c0.04-0.02,0.06-0.06,0.04-0.1
			c0,0,0-0.01-0.01-0.01c0,0,0-0.01,0-0.01c0,0,0,0,0,0c0.01,0,0.03,0,0.04,0c0.07-0.02,0.1-0.07,0.08-0.12l-0.01-0.02
			c0.03-0.04,0.02-0.09-0.02-0.12l-0.06-0.04c-0.01-0.01-0.02-0.01-0.04-0.02c-0.01,0-0.01-0.01-0.02-0.01c0-0.02,0-0.04-0.01-0.06
			c0.03-0.03,0.03-0.08-0.01-0.11c-0.01-0.01-0.03-0.02-0.06-0.03c-0.01-0.02-0.03-0.03-0.05-0.04c-0.01-0.01-0.01-0.02-0.02-0.02
			c-0.03-0.02-0.07-0.03-0.1-0.02c0-0.03-0.01-0.06-0.04-0.09c-0.02-0.02-0.05-0.02-0.08-0.02c0-0.02,0-0.04-0.02-0.05
			c-0.01-0.02-0.03-0.03-0.06-0.04c0,0-0.01-0.01-0.01-0.01c-0.02-0.01-0.04-0.02-0.07-0.02c-0.01,0-0.02-0.01-0.02-0.01
			c0,0-0.01,0-0.01,0c-0.01-0.03-0.04-0.05-0.08-0.05c0,0,0,0,0,0l-0.03-0.02c-0.02-0.01-0.04-0.02-0.07-0.02
			c-0.02-0.02-0.06-0.04-0.1-0.04c0,0,0,0,0,0c-0.01,0-0.02,0-0.03,0c-0.02-0.02-0.04-0.03-0.07-0.04c-0.02,0-0.04,0-0.06,0
			c-0.02-0.04-0.08-0.06-0.13-0.05c0,0-0.01,0-0.01,0l-0.03-0.02c-0.02-0.01-0.05-0.02-0.07-0.02c-0.01-0.01-0.03-0.01-0.04-0.02
			c-0.01,0-0.01,0-0.02-0.01c-0.07-0.01-0.14,0.02-0.15,0.07c-0.01-0.01-0.02-0.02-0.03-0.02c-0.03-0.02-0.08-0.02-0.11-0.01
			c-0.03-0.04-0.09-0.06-0.15-0.05c-0.02,0-0.03,0.01-0.05,0.02c-0.02,0-0.03,0-0.05,0c-0.03,0.01-0.06,0.02-0.07,0.04c0,0,0,0,0,0
			l-0.04-0.02c0,0,0,0,0,0c-0.04-0.03-0.11-0.04-0.16-0.01l-0.05,0.03c-0.03-0.01-0.07-0.02-0.11-0.01
			c-0.04,0.01-0.06,0.02-0.08,0.04c-0.02,0-0.05,0.01-0.07,0.02c0,0,0,0,0,0c-0.03,0.01-0.05,0.02-0.07,0.04
			c-0.02,0-0.05,0.01-0.07,0.02c-0.01,0-0.02,0.01-0.02,0.02c-0.02,0.01-0.04,0.01-0.05,0.03c-0.01,0.01-0.02,0.02-0.02,0.03
			c0,0-0.01,0-0.01,0l-0.03,0.02c-0.03,0.02-0.04,0.04-0.04,0.06c-0.01,0-0.02,0-0.03,0.01l-0.05,0.02
			c-0.02,0.01-0.04,0.02-0.05,0.03c-0.03,0.01-0.05,0.03-0.06,0.06L20.53,15c0,0-0.01,0-0.01,0.01c0,0-0.01,0-0.01,0.01
			c-0.02,0.01-0.04,0.02-0.06,0.03l-0.01,0.01c0,0-0.01,0.01-0.01,0.01c-0.01,0.01-0.02,0.03-0.03,0.04c0,0.02,0,0.04,0,0.06
			l-0.04-0.01c-0.01,0.02-0.01,0.05,0,0.07c-0.03,0.02-0.05,0.04-0.05,0.07c-0.02,0.01-0.04,0.03-0.05,0.06
			c-0.01,0.02-0.01,0.04,0,0.05c0,0,0,0,0,0c-0.02,0.01-0.04,0.03-0.05,0.04c-0.01,0.01-0.01,0.03-0.01,0.04
			c-0.01,0.01-0.02,0.03-0.02,0.05c0,0,0,0.01,0,0.01c0,0.01,0,0.01,0,0.02c0,0,0,0.01,0,0.01c-0.01,0.01-0.02,0.03-0.02,0.04
			c0,0.01-0.01,0.01-0.01,0.02l0,0.03c0,0.03,0.02,0.07,0.05,0.08c0,0,0,0.01,0,0.01c0,0.02,0,0.03,0.01,0.05
			c-0.01,0.01-0.02,0.02-0.02,0.03c0,0-0.01,0-0.01,0.01c-0.03,0.02-0.06,0.05-0.06,0.08c0,0.03,0.02,0.06,0.06,0.08
			c0,0.01,0,0.01-0.01,0.02c-0.01,0.01-0.02,0.02-0.02,0.03c-0.03,0.03-0.03,0.06-0.02,0.09c0.01,0.02,0.03,0.03,0.05,0.05
			c0.02,0.04,0.06,0.06,0.1,0.06l0.02,0.01l-0.04,0.02c-0.05,0.03-0.06,0.09-0.02,0.13c0.01,0.01,0.02,0.02,0.04,0.02
			c-0.01,0.02-0.01,0.04,0.01,0.07c-0.01,0.02,0,0.05,0.01,0.06c0,0.02,0.01,0.03,0.02,0.05c0,0.03,0.01,0.06,0.06,0.09
			c0.02,0.01,0.05,0.02,0.07,0.02c0,0,0.01,0.01,0.01,0.01c0,0.02,0.01,0.04,0.01,0.05c0,0,0,0.01,0,0.01
			c-0.01,0.03,0,0.07,0.04,0.1c0,0,0.01,0,0.01,0.01c0,0.02,0.02,0.05,0.04,0.06c0.01,0.01,0.02,0.01,0.04,0.02
			c0.01,0.01,0.01,0.01,0.02,0.02c0,0,0,0.01,0.01,0.01c0.01,0.02,0.03,0.03,0.05,0.04c0,0,0.01,0.01,0.01,0.01
			c0.01,0.01,0.03,0.02,0.05,0.03c0.01,0.01,0.02,0.02,0.03,0.03c0.01,0.01,0.01,0.02,0.02,0.02c0.01,0.01,0.03,0.02,0.04,0.02
			c0.02,0.03,0.06,0.05,0.11,0.05c0.01,0.02,0.03,0.04,0.06,0.05c0.02,0.01,0.05,0.02,0.07,0.02c0,0,0.01,0,0.01,0
			c0.01,0.01,0.02,0.02,0.03,0.03c0.01,0.01,0.03,0.01,0.04,0.02c0,0,0,0,0,0l0.04,0.02c0.02,0.02,0.05,0.02,0.08,0.02
			c0.02,0,0.03,0,0.05-0.01c0.01,0.01,0.02,0.02,0.03,0.02c0.03,0.01,0.06,0.02,0.09,0.01l0.02,0.01c0.01,0.01,0.03,0.01,0.05,0.01
			c0.02,0.02,0.06,0.03,0.09,0.04c0,0,0,0,0,0c0.03,0,0.06-0.01,0.08-0.02c0,0,0,0,0,0c0,0,0.01,0,0.01,0
			c0.01,0.01,0.03,0.02,0.05,0.03c0.01,0,0.03,0.01,0.06,0.01c0.02,0,0.04,0,0.06-0.01c0.01,0,0.01,0,0.02,0c0,0,0.01,0,0.01,0
			c0.01,0.01,0.02,0.01,0.03,0.01l0.01-0.01c0,0,0,0,0,0c0.01,0,0.02,0,0.03-0.01c0.02,0.02,0.05,0.03,0.09,0.03
			c0.03,0,0.06-0.01,0.08-0.02c0.01,0,0.02,0,0.03,0c0.01,0,0.01,0,0.02,0l0.05-0.01c0.01,0,0.02,0,0.02,0
			c0.02,0.01,0.04,0.01,0.06,0.01c0.02,0,0.03,0,0.05-0.01c0.02-0.01,0.03-0.01,0.05-0.02c0.02,0,0.04,0,0.06-0.01
			c0,0,0.01,0,0.01-0.01c0,0,0,0,0,0c0,0,0,0,0,0c0.03,0,0.07-0.01,0.1-0.03c0.02-0.01,0.03-0.02,0.04-0.03c0.01,0,0.02,0,0.03,0
			c0.04-0.01,0.07-0.03,0.08-0.06c0.02-0.02,0.03-0.04,0.03-0.07c0,0,0.01,0,0.01-0.01c0.02,0.02,0.06,0.03,0.09,0.03
			c0.03,0,0.05-0.01,0.08-0.02c0.02-0.01,0.04-0.03,0.05-0.06c0.02-0.01,0.05-0.02,0.06-0.03c0.01-0.01,0.02-0.02,0.02-0.02
			c0.03-0.01,0.05-0.03,0.06-0.05c0.01-0.01,0.02-0.02,0.02-0.02c0.04-0.01,0.07-0.03,0.08-0.07c0.01-0.01,0.02-0.02,0.02-0.04
			c0.01-0.01,0.03-0.01,0.03-0.02c0.02-0.02,0.02-0.04,0.02-0.06c0.04-0.01,0.07-0.02,0.09-0.05c0.01-0.01,0.01-0.02,0.02-0.03
			c0.03-0.01,0.05-0.04,0.06-0.07c0-0.01,0-0.02,0-0.03c0.01-0.01,0.01-0.01,0.02-0.02c0.01-0.01,0.01-0.02,0.01-0.03
			c0-0.01,0.01-0.01,0.01-0.02c0-0.01,0-0.02,0-0.02c0,0,0,0,0,0c0.03-0.01,0.06-0.03,0.07-0.06c0.01-0.02,0.01-0.04,0.01-0.06
			l0.04-0.02c0.04-0.02,0.06-0.05,0.05-0.08c0-0.02-0.01-0.04-0.03-0.06c0,0,0,0,0,0c0.01-0.01,0.01-0.03,0.01-0.04c0,0,0,0,0,0
			c0.03-0.02,0.04-0.06,0.03-0.09c0.01-0.02,0.02-0.05,0-0.09c0-0.01-0.01-0.01-0.01-0.02c0,0,0-0.01,0-0.01c0-0.01,0-0.02,0-0.02
			c0.05-0.01,0.09-0.05,0.08-0.1c0,0,0,0,0,0c0.01-0.01,0.02-0.03,0.02-0.04C23.8,15.93,23.79,15.84,23.63,15.79z M23.42,15.75
			l0-0.01c0.01,0,0.01,0,0.02-0.01l0.01,0.02L23.42,15.75z"/>
		<path class="st1" d="M10.19,15.79c-0.03-0.01-0.06-0.01-0.09,0c-0.01-0.01-0.03-0.02-0.04-0.03c0.04-0.02,0.06-0.06,0.04-0.1
			c0,0,0,0,0,0c0.02-0.01,0.03-0.02,0.05-0.03c0.06-0.02,0.09-0.07,0.07-0.12l-0.01-0.02c0.03-0.04,0.02-0.09-0.02-0.12l-0.06-0.04
			c-0.01-0.01-0.02-0.01-0.04-0.02c-0.01,0-0.01-0.01-0.02-0.01c0-0.02,0-0.04-0.01-0.06c0.03-0.03,0.03-0.08-0.01-0.11
			c-0.01-0.01-0.03-0.02-0.05-0.03c-0.01-0.02-0.03-0.03-0.05-0.04c-0.01-0.01-0.01-0.02-0.02-0.02c-0.03-0.02-0.07-0.03-0.1-0.02
			c0-0.03-0.01-0.06-0.04-0.09c-0.02-0.02-0.05-0.02-0.08-0.02c0-0.02,0-0.04-0.02-0.05c-0.01-0.02-0.03-0.03-0.06-0.04
			c0,0-0.01-0.01-0.01-0.01c-0.02-0.01-0.04-0.02-0.07-0.02c-0.01,0-0.02-0.01-0.02-0.01c0,0-0.01,0-0.01,0
			c-0.01-0.03-0.04-0.05-0.08-0.05c0,0,0,0,0,0l-0.03-0.02c-0.02-0.01-0.04-0.02-0.07-0.02c-0.02-0.02-0.06-0.04-0.1-0.04
			c0,0,0,0,0,0c-0.01,0-0.02,0-0.03,0c-0.02-0.02-0.04-0.03-0.07-0.04c-0.02,0-0.04,0-0.06,0c-0.02-0.04-0.08-0.06-0.13-0.05
			c0,0-0.01,0-0.01,0l-0.03-0.02c-0.02-0.01-0.05-0.02-0.07-0.02c-0.01-0.01-0.03-0.01-0.04-0.01c-0.01,0-0.02-0.01-0.02-0.01
			c-0.07-0.01-0.14,0.02-0.15,0.07c-0.01-0.01-0.02-0.02-0.03-0.02c-0.03-0.02-0.07-0.02-0.11-0.01c-0.03-0.04-0.09-0.06-0.15-0.05
			c-0.02,0-0.03,0.01-0.05,0.02c-0.02,0-0.03,0-0.05,0c-0.03,0.01-0.06,0.02-0.07,0.04c0,0,0,0,0,0L8.1,14.53c0,0,0,0,0,0
			c-0.04-0.03-0.11-0.04-0.16-0.01l-0.05,0.03c-0.03-0.01-0.07-0.02-0.11-0.01c-0.04,0.01-0.06,0.02-0.08,0.04
			c-0.02,0-0.05,0.01-0.07,0.02c0,0,0,0,0,0c-0.03,0.01-0.05,0.02-0.07,0.04l-0.03,0.03c-0.04-0.01-0.09,0-0.12,0.03
			c-0.01,0.01-0.02,0.02-0.02,0.03c0,0-0.01,0-0.01,0l-0.03,0.02c-0.03,0.02-0.04,0.04-0.04,0.06c-0.01,0-0.02,0-0.03,0.01
			l-0.05,0.02c-0.02,0.01-0.04,0.02-0.05,0.03c-0.03,0.01-0.05,0.03-0.06,0.06L7.08,15c0,0-0.01,0-0.01,0.01c0,0-0.01,0-0.01,0.01
			C7.03,15.02,7.01,15.03,7,15.05l-0.01,0.01c0,0-0.01,0.01-0.01,0.01c-0.01,0.01-0.02,0.03-0.03,0.04c0,0.02,0,0.04,0,0.06
			l-0.04-0.01c-0.01,0.02-0.01,0.05,0,0.07c-0.03,0.02-0.05,0.04-0.05,0.07c-0.02,0.01-0.04,0.03-0.05,0.06
			c-0.01,0.02-0.01,0.04,0,0.05c0,0,0,0,0,0c-0.02,0.01-0.04,0.03-0.05,0.04c-0.01,0.01-0.01,0.03-0.01,0.04
			c-0.01,0.01-0.02,0.03-0.02,0.05c0,0,0,0.01,0,0.01c0,0.01,0,0.01,0,0.02c0,0,0,0.01,0,0.01C6.7,15.6,6.7,15.62,6.69,15.63
			c0,0.01-0.01,0.01-0.01,0.02l0,0.03c0,0.03,0.02,0.07,0.05,0.09c0,0,0,0.01,0,0.01c0,0.02,0,0.03,0.01,0.05
			c-0.01,0.01-0.02,0.02-0.02,0.03c0,0-0.01,0-0.01,0.01c-0.03,0.02-0.06,0.05-0.06,0.08c0,0.03,0.02,0.06,0.06,0.08
			c0,0.01,0,0.01-0.01,0.02c-0.01,0.01-0.02,0.02-0.02,0.03c-0.03,0.03-0.03,0.06-0.02,0.09c0.01,0.02,0.03,0.03,0.05,0.05
			c0.02,0.04,0.06,0.06,0.1,0.06l0.02,0.01l-0.04,0.02c-0.05,0.03-0.06,0.09-0.02,0.13c0.01,0.01,0.02,0.02,0.04,0.02
			c-0.01,0.02-0.01,0.04,0.01,0.07c-0.01,0.02,0,0.05,0.01,0.07c0,0.02,0.01,0.03,0.02,0.05c0,0.03,0.01,0.06,0.06,0.09
			c0.02,0.01,0.05,0.02,0.07,0.02c0,0,0.01,0.01,0.01,0.01c0,0.02,0.01,0.04,0.01,0.05c0,0,0,0.01,0,0.01
			c-0.01,0.03,0,0.07,0.04,0.1c0,0,0.01,0,0.01,0.01c0,0.02,0.02,0.05,0.04,0.06c0.01,0.01,0.02,0.01,0.04,0.02
			c0.01,0.01,0.01,0.01,0.02,0.02c0,0,0,0.01,0.01,0.01c0.01,0.02,0.03,0.03,0.05,0.04c0,0,0.01,0.01,0.01,0.01
			c0.01,0.01,0.03,0.02,0.05,0.03c0.01,0.01,0.02,0.02,0.04,0.03c0.01,0.01,0.01,0.01,0.02,0.02c0.01,0.01,0.03,0.02,0.04,0.02
			c0.02,0.03,0.06,0.05,0.11,0.05c0.01,0.02,0.03,0.04,0.06,0.05c0.02,0.01,0.05,0.02,0.07,0.02c0,0,0.01,0,0.01,0
			c0.01,0.01,0.02,0.02,0.03,0.03c0.01,0.01,0.03,0.01,0.04,0.02c0,0,0,0,0,0l0.04,0.02c0.02,0.02,0.05,0.02,0.08,0.02
			c0.02,0,0.03,0,0.05-0.01c0.01,0.01,0.02,0.02,0.03,0.02c0.03,0.01,0.06,0.02,0.09,0.01l0.02,0.01c0.01,0.01,0.03,0.01,0.05,0.01
			c0.02,0.02,0.06,0.03,0.09,0.04c0,0,0,0,0.01,0c0.03,0,0.06-0.01,0.08-0.02c0,0,0,0,0,0c0,0,0.01,0,0.01,0
			c0.01,0.01,0.03,0.02,0.05,0.03c0.01,0,0.03,0.01,0.06,0.01c0.02,0,0.04,0,0.06-0.01c0.01,0,0.01,0,0.02,0c0,0,0.01,0,0.01,0
			l0.03,0.01c0.02,0.01,0.03,0.01,0.05,0.01c0.01,0,0.03,0,0.04-0.01c0.01,0,0.02,0,0.03,0c0.03,0,0.06-0.01,0.08-0.02
			c0.01,0,0.02,0,0.03,0c0.01,0,0.01,0,0.02,0l0.05-0.01c0.01,0,0.02,0,0.02,0c0.02,0.01,0.04,0.01,0.06,0.01
			c0.02,0,0.03,0,0.05-0.01c0.02-0.01,0.03-0.01,0.05-0.02c0.02,0,0.04,0,0.06-0.01c0,0,0.01,0,0.01-0.01c0,0,0,0,0,0c0,0,0,0,0,0
			c0.04,0,0.08-0.02,0.1-0.04c0,0,0,0,0,0c0.01-0.01,0.02-0.01,0.03-0.02c0.01,0,0.02,0,0.03,0c0.04-0.01,0.07-0.03,0.08-0.06
			c0.02-0.02,0.03-0.04,0.03-0.07c0,0,0.01,0,0.01-0.01c0.02,0.02,0.06,0.03,0.09,0.03c0.03,0,0.05-0.01,0.08-0.02
			c0.02-0.01,0.04-0.03,0.05-0.06c0.02-0.01,0.05-0.02,0.06-0.03c0.01-0.01,0.02-0.02,0.02-0.02c0.03-0.01,0.05-0.03,0.06-0.05
			c0.01-0.01,0.02-0.02,0.02-0.02c0.04-0.01,0.07-0.03,0.08-0.07c0.01-0.01,0.02-0.02,0.02-0.04c0.01-0.01,0.03-0.01,0.03-0.02
			c0.02-0.02,0.02-0.04,0.02-0.06c0.04-0.01,0.07-0.02,0.09-0.05c0.01-0.01,0.01-0.02,0.02-0.03c0.03-0.01,0.05-0.04,0.06-0.07
			c0,0,0,0,0,0c0.01-0.01,0.02-0.03,0.03-0.05l0.01-0.04c0-0.01,0-0.02,0-0.02c0,0,0,0,0,0c0.03-0.01,0.06-0.03,0.07-0.06
			c0.01-0.02,0.01-0.04,0-0.06l0.04-0.02c0.04-0.02,0.06-0.05,0.05-0.08c0-0.02-0.01-0.03-0.02-0.04c0.01-0.01,0.02-0.01,0.03-0.02
			c0.03-0.03,0.04-0.07,0.01-0.11c0,0,0-0.01,0-0.01c0.01-0.02,0.02-0.05,0-0.09c0-0.01-0.01-0.01-0.01-0.02c0,0,0-0.01,0-0.01
			c0-0.01,0-0.02,0-0.02c0.05-0.01,0.09-0.05,0.08-0.1c0,0,0,0,0,0c0.01-0.01,0.02-0.03,0.02-0.04
			C10.35,15.93,10.35,15.84,10.19,15.79z M9.98,15.75l0-0.01c0.01,0,0.01,0,0.02-0.01l0.01,0.02L9.98,15.75z"/>
	</g>
</g>
</svg>
