<svg width="48" height="48" viewBox="0 0 48 48" fill="none" xmlns="http://www.w3.org/2000/svg">
<g clip-path="url(#clip0_1207_1296)">
<path d="M14.9051 30.7133C13.5227 32.1882 9.94697 36.0026 8.05454 36.796C6.99865 37.2384 4.77465 37.4317 3.67286 37.6555C2.36192 37.9199 2.2548 39.2219 2.75979 40.2797C3.74937 42.3599 6.20801 43.3516 8.24327 42.0191C8.52382 42.5938 8.21267 43.2651 8.16166 43.9009C7.96782 46.4438 11.7833 47.1558 13.3748 45.9148C14.9561 44.6841 13.6808 42.3649 13.8747 40.5798C13.9308 40.0712 14.2419 39.6339 14.548 39.227C16.1242 37.1621 17.9605 35.2956 20.006 33.6987" fill="white"/>
<path d="M35.2526 1.61224C28.5347 0.762911 20.613 4.37385 17.7055 10.0242C16.4966 12.3738 16.1497 15.1507 16.7414 17.7241C17.0219 18.9498 17.5014 20.2721 16.9607 21.4063C16.6955 21.9606 16.2262 22.3777 15.7722 22.7947C14.6041 23.8627 13.4615 25.0274 12.8137 26.4717C10.0439 32.6154 18.9909 35.3516 23.4287 34.4717C25.163 34.1259 26.9993 33.363 28.346 32.1882C29.6926 31.0134 30.2282 29.3402 31.4014 28.0738C34.059 25.2054 38.5733 25.0731 41.4655 22.3217C45.8166 18.1819 47.0408 11.2906 43.46 6.26069C41.4808 3.47874 38.5121 2.02419 35.2577 1.61224H35.2526Z" fill="#D5873A"/>
<path d="M47 13.2028C47 13.157 46.9847 13.1113 46.9694 13.0706L46.954 13.0045C46.9387 12.9434 46.8979 12.9027 46.852 12.8621C46.8775 12.7095 46.7857 12.5671 46.6378 12.5213L46.7092 12.5061C46.8724 12.4705 46.9796 12.3128 46.9489 12.145C46.9387 12.1043 46.9234 12.0636 46.8979 12.028C46.9592 11.8958 46.9234 11.7381 46.7959 11.6516C46.7347 11.6109 46.6633 11.6008 46.597 11.6059C46.597 11.5957 46.5919 11.5855 46.5868 11.5804C46.5868 11.5753 46.5919 11.5703 46.597 11.5652C46.7908 11.2702 46.9183 11.0413 46.8316 10.8176C46.8112 10.7718 46.7857 10.7311 46.7551 10.7006C46.7857 10.6446 46.801 10.5785 46.7908 10.5073L46.7602 10.3446C46.75 10.2937 46.7245 10.2479 46.6939 10.2073C46.6837 10.1818 46.6735 10.1564 46.6582 10.131C46.6582 10.0852 46.6582 10.0343 46.6378 9.98857C46.6072 9.91737 46.5715 9.84617 46.5358 9.77497L46.5103 9.71902L46.5613 9.62239C46.6123 9.52576 46.6072 9.4037 46.546 9.31216L46.5103 9.25621C46.5103 9.15958 46.4695 9.07312 46.3929 9.01209C46.398 8.96632 46.4031 8.91546 46.4082 8.85952C46.4133 8.74763 46.3572 8.64083 46.2603 8.58488C46.2858 8.473 46.245 8.34585 46.1481 8.26956C46.1481 8.26956 46.1379 8.26956 46.1379 8.26448L46.0206 8.02036L46.0308 7.92881C46.041 7.82201 45.9951 7.72538 45.9135 7.66435C45.9135 7.60841 45.9135 7.55246 45.888 7.5016L45.7196 7.16594C45.6635 7.05914 45.5513 6.99811 45.4391 6.99811C45.4544 6.92182 45.4442 6.84553 45.4085 6.77942V6.76925C45.4187 6.70313 45.4085 6.63193 45.3779 6.56581C45.3422 6.48952 45.2963 6.41832 45.2503 6.35221L45.1942 6.26066C45.1483 6.18438 45.0718 6.13352 44.9851 6.11826C44.9749 6.11826 44.9698 6.11826 44.9596 6.11826C44.98 5.9962 44.929 5.86905 44.8168 5.80294L44.7096 5.73682C44.7096 5.73682 44.6892 5.72665 44.6841 5.72157C44.6076 5.54356 44.526 5.36556 44.424 5.18755C44.3118 4.97395 44.1945 4.76543 44.0618 4.562C44.021 4.50097 43.9649 4.47045 43.8986 4.44502C43.8119 4.39925 43.7099 4.39417 43.6232 4.43485C43.5925 4.43485 43.5619 4.44502 43.5364 4.4552C43.5058 4.42977 43.4701 4.41451 43.4344 4.40434C43.4344 4.32296 43.4038 4.24159 43.3375 4.18056C43.2559 4.10427 43.1743 4.05342 43.0978 4.01273C43.0876 3.8805 43.0519 3.76352 42.9906 3.66181C42.9804 3.64146 42.9651 3.62112 42.9498 3.60078C42.8784 3.49906 42.7968 3.40752 42.7254 3.33123C42.705 3.31089 42.6897 3.29054 42.6693 3.2702C42.6387 3.16848 42.5673 3.08202 42.455 3.05659H42.4295L42.3785 2.95488C42.3326 2.8735 42.2561 2.81756 42.1643 2.79722C42.1286 2.79213 42.0878 2.79722 42.0521 2.79722C42.0368 2.78705 42.0215 2.77179 42.0011 2.7667C41.945 2.74636 41.8888 2.71076 41.8327 2.67516C41.797 2.61921 41.7562 2.57853 41.7154 2.54801C41.6797 2.52258 41.6338 2.50224 41.5777 2.48698C41.3175 2.28355 41.0064 2.0496 40.6136 2.08012C40.5626 2.00891 40.5218 1.95297 40.5065 1.93263C40.4759 1.89703 40.4402 1.8716 40.3994 1.85125C40.1647 1.74445 39.9505 1.65291 39.7465 1.56645L39.5679 1.32233C39.4659 1.18501 39.2772 1.15958 39.1395 1.25621C39.1037 1.25621 39.0731 1.25621 39.0425 1.25621C39.0323 1.2257 39.0272 1.19518 39.017 1.16467C38.9711 1.00192 38.7977 0.910377 38.6345 0.961235C38.5937 0.971406 38.558 0.996836 38.5273 1.02226C38.512 1.01718 38.5018 1.00701 38.4916 1.00192C38.4508 0.981578 38.4049 0.976492 38.359 0.976492C38.3539 0.966321 38.3488 0.956149 38.3437 0.945977C38.3284 0.93072 38.3182 0.910377 38.3029 0.895119C38.2417 0.813746 38.1448 0.691686 37.9917 0.651C37.8285 0.600141 37.6653 0.574712 37.5072 0.559455C37.4664 0.534026 37.4255 0.518768 37.3745 0.513682C37.3031 0.513682 37.2164 0.483167 37.1297 0.452652C36.9869 0.40688 36.8032 0.356022 36.6094 0.366193C36.5839 0.350936 36.5635 0.330593 36.538 0.325507C36.2676 0.228876 35.8749 0.0966448 35.5382 0.325507C35.477 0.274649 35.3954 0.24922 35.3138 0.254305L34.9414 0.294992C34.9414 0.294992 34.921 0.300078 34.9108 0.305164C34.7272 0.228876 34.161 0.111902 34.0896 0.111902C34.0539 0.111902 34.0181 0.116988 33.9875 0.12716C33.8549 0.0407008 33.7376 0.0610441 33.6611 0.0864732C33.6611 0.0864732 33.6611 0.0864732 33.656 0.0813873C33.5336 -0.0355866 33.3397 -0.0355866 33.2224 0.0813873C33.2122 0.091559 33.2122 0.101731 33.2071 0.106816C33.0745 0.0508724 32.9367 0.0407008 32.8551 0.0407008C32.7939 0.0407008 32.7072 0.0356149 32.6766 0.0203575C32.5797 -0.0305008 32.4624 -0.0305008 32.3705 0.0305291C32.3348 0.0559582 32.3093 0.0864732 32.2838 0.122074C32.2532 0.111902 32.2226 0.101731 32.1869 0.0966448L31.8656 0.0813873C31.789 0.0813873 31.7227 0.111902 31.6717 0.147503C31.6105 0.111902 31.5442 0.0966448 31.4728 0.106816C31.3504 0.0559582 31.2075 0.0813873 31.1208 0.18819C31.08 0.198361 31.0392 0.203447 31.0035 0.213619C30.9729 0.18819 30.9321 0.167846 30.8913 0.157675C30.7332 0.116988 30.575 0.208533 30.5291 0.361108C30.5138 0.361108 30.4985 0.361108 30.4832 0.361108H30.4781C30.4781 0.361108 30.4577 0.340764 30.4424 0.330593C30.4271 0.325507 30.4169 0.320421 30.4016 0.315335C30.2843 0.208533 30.1006 0.203447 29.9833 0.315335C29.917 0.376365 29.8915 0.462824 29.8915 0.549283C29.8711 0.539111 29.8507 0.52894 29.8252 0.52894L29.7028 0.513682C29.6671 0.498425 29.6263 0.488253 29.5906 0.493339C29.5855 0.493339 29.5752 0.493339 29.5701 0.493339L29.1672 0.442481C29.0397 0.422138 28.9172 0.493339 28.8611 0.600141L28.5857 0.62557C28.5551 0.62557 28.5296 0.640828 28.5041 0.651L28.4173 0.615399C28.2949 0.564541 28.1623 0.600141 28.0756 0.696772H28.0654C28.0042 0.696772 27.9532 0.722201 27.9022 0.752716C27.8052 0.752716 27.7185 0.783231 27.6573 0.859518C27.5604 0.813746 27.4482 0.823918 27.3564 0.884947L27.1523 1.02735C27.0146 1.02735 26.9075 1.05278 26.8208 1.09347C26.7544 1.10872 26.6932 1.13924 26.6524 1.19518L26.5861 1.27656C26.5147 1.24096 26.4331 1.2257 26.3566 1.24604L25.9995 1.34776C25.8363 1.39353 25.7445 1.56136 25.7904 1.72411C25.8006 1.75462 25.8159 1.78005 25.8312 1.80548C25.8159 1.84108 25.8006 1.87668 25.8006 1.91228C25.8006 1.93263 25.8006 1.95297 25.8057 1.97331H25.8006C25.8006 1.97331 25.7751 1.98349 25.7649 1.98857C25.7292 1.9428 25.6782 1.9072 25.622 1.89194C25.5761 1.79022 25.4792 1.72411 25.3721 1.71394C25.3058 1.69359 25.2293 1.69359 25.1579 1.72411L24.964 1.81057C24.8977 1.84108 24.8518 1.89703 24.8212 1.96823C24.5509 2.0496 24.3213 2.14115 24.102 2.2276L23.9643 2.28355C23.852 2.32932 23.7857 2.43104 23.7755 2.54293L23.495 2.5175C23.3878 2.50732 23.2807 2.5531 23.2195 2.63956C23.194 2.67516 23.1787 2.72093 23.1685 2.7667C23.1175 2.77687 23.0767 2.79722 23.0359 2.82265C22.9951 2.81247 22.9543 2.81247 22.9135 2.82265C22.7757 2.84808 22.6737 2.96505 22.6686 3.10237H22.5921C22.4391 3.10237 22.3014 3.21425 22.281 3.36683C22.1126 3.3414 21.9086 3.40243 21.6943 3.66181C21.6637 3.68215 21.6331 3.70249 21.6076 3.73301L21.4342 3.78387C21.3475 3.8093 21.2863 3.87541 21.2506 3.9517C21.2251 3.95678 21.1996 3.96696 21.1741 3.98221C21.1026 4.0229 21.0363 4.07376 20.97 4.11953C20.9037 4.15513 20.8425 4.18565 20.7813 4.22125C20.7456 4.24668 20.715 4.27719 20.6946 4.30771C20.6079 4.37382 20.5211 4.43485 20.4446 4.49588C20.4242 4.51114 20.4089 4.53657 20.3936 4.55691C20.2916 4.60777 20.2304 4.70949 20.2253 4.82137C20.1692 4.86715 20.1284 4.92818 20.1131 4.99938C19.9651 5.05024 19.8172 5.1011 19.6795 5.16721C19.5979 5.20281 19.5418 5.27401 19.5163 5.3503L19.4091 5.45202C19.353 5.50288 19.3275 5.57408 19.3224 5.64019C19.3071 5.65036 19.2867 5.65545 19.2714 5.66562L19.1694 5.71648C19.1082 5.74699 19.0674 5.79277 19.0368 5.84871C18.9195 5.8538 18.8174 5.91991 18.7715 6.02672C18.7409 6.09792 18.7409 6.1742 18.7613 6.24032C18.7562 6.25558 18.746 6.26575 18.7409 6.28101C18.7103 6.28609 18.6797 6.29118 18.6593 6.29626C18.5726 6.31661 18.5063 6.37764 18.4655 6.45392C18.3737 6.47935 18.292 6.54547 18.2614 6.6421C18.2461 6.69296 18.2461 6.7489 18.2563 6.79467C18.2563 6.79467 18.2563 6.79976 18.2512 6.80485H18.2002C18.088 6.80485 17.986 6.86588 17.935 6.96251L17.8789 7.05914C17.8534 7.10491 17.8432 7.15577 17.8432 7.20663C17.7768 7.23714 17.7207 7.288 17.6901 7.35412L17.634 7.48635L17.5473 7.54229C17.4504 7.60332 17.4045 7.71012 17.4147 7.81693C17.3178 7.85253 17.2413 7.9339 17.2157 8.0407C17.2004 8.05596 17.1851 8.07122 17.1749 8.09156C17.1443 8.15259 17.0933 8.28482 17.0831 8.42214C17.0831 8.42214 17.0831 8.43231 17.0831 8.4374C17.0066 8.45265 16.9352 8.49334 16.8893 8.56454L16.6342 8.93072C16.5475 9.05278 16.573 9.21044 16.6699 9.31216C16.6444 9.34776 16.6291 9.38844 16.6189 9.43422L16.42 9.50542C16.3027 9.54611 16.2211 9.65799 16.216 9.77497C16.1905 9.8004 16.165 9.836 16.1497 9.8716C16.1344 9.9072 16.1293 9.9428 16.1242 9.97331C16.1037 9.99874 16.0833 10.0242 16.068 10.0547C16.0119 10.1818 16.0578 10.3242 16.1599 10.4107C16.068 10.4921 16.0323 10.6192 16.0731 10.7413C16.0578 10.7413 16.0425 10.7311 16.0272 10.7311C15.9048 10.7413 15.8028 10.8226 15.762 10.9396L15.6753 11.1939C15.6498 11.2702 15.6549 11.3465 15.6855 11.4126C15.6651 11.438 15.6498 11.4685 15.6345 11.494C15.6039 11.5397 15.5937 11.5906 15.5937 11.6415C15.5937 11.6415 15.5835 11.6516 15.5835 11.6567L15.4967 11.8246C15.461 11.8958 15.4559 11.972 15.4763 12.0432C15.4202 12.1856 15.3896 12.3331 15.3692 12.4603C15.359 12.5213 15.3488 12.5773 15.3386 12.6332C15.3233 12.7095 15.3386 12.7858 15.3743 12.8468C15.2825 12.9027 15.2162 12.9943 15.2213 13.1113V13.2994C15.1805 13.3605 15.1601 13.4368 15.1703 13.513L15.1907 13.6758C15.1958 13.7368 15.2366 13.7826 15.2774 13.8233C15.2672 13.8894 15.2774 13.9555 15.3131 14.0115C15.3131 14.0318 15.3233 14.0572 15.3335 14.0776C15.2009 14.1183 15.1091 14.2403 15.1193 14.3827C15.1193 14.4488 15.1499 14.5048 15.1907 14.5506C15.1958 14.6014 15.2111 14.6523 15.2417 14.698C15.2723 14.7438 15.3182 14.7743 15.3641 14.7947C15.3692 14.8048 15.3743 14.8201 15.3845 14.8354L15.4406 14.9116L15.3437 15.1202C15.3437 15.1202 15.3437 15.1354 15.3386 15.1456C15.3284 15.1659 15.3284 15.1863 15.3233 15.2066C15.3233 15.227 15.3233 15.2422 15.3233 15.2626C15.3233 15.2829 15.3233 15.2982 15.3335 15.3185C15.3335 15.3338 15.3335 15.349 15.3437 15.3643C15.3182 15.3897 15.2978 15.4202 15.2825 15.4558L15.2672 15.4914C15.1499 15.5423 15.0734 15.6542 15.0785 15.7864L15.0887 15.9288C15.0887 15.9848 15.1142 16.0356 15.1499 16.0814C15.1652 16.1322 15.1856 16.178 15.2264 16.2187C15.2111 16.2848 15.2009 16.356 15.1805 16.4577H15.2009C15.1601 16.5289 15.1397 16.6103 15.1601 16.6917C15.1652 16.7171 15.1754 16.7425 15.1805 16.7731C15.1193 16.9053 15.155 17.063 15.2774 17.1443C15.2978 17.2104 15.3131 17.2715 15.3335 17.3325C15.2876 17.4037 15.2672 17.4952 15.2978 17.5817L15.4406 18.0445C15.4508 18.0801 15.4712 18.1157 15.4916 18.1411C15.3794 18.4819 15.5171 18.7667 15.6651 18.9905C15.6549 19.0363 15.6498 19.082 15.66 19.1329L15.6804 19.2193C15.6549 19.3211 15.6804 19.4279 15.7569 19.5092C15.7263 19.5804 15.7212 19.6567 15.7467 19.733C15.7926 19.8551 15.8283 19.967 15.8538 20.0687C15.8487 20.089 15.8436 20.0992 15.8385 20.1195C15.8079 20.1653 15.7824 20.2162 15.7773 20.2772C15.7773 20.2772 15.7773 20.2823 15.7773 20.2874C15.7773 20.2975 15.7722 20.3077 15.7671 20.3128C15.7314 20.3891 15.7263 20.4705 15.7518 20.5417C15.7467 20.5773 15.7314 20.6129 15.7365 20.6485C15.7365 20.6637 15.7518 20.6739 15.7569 20.6891C15.7365 20.7095 15.7161 20.7349 15.7008 20.7654C15.6804 20.8061 15.6549 20.8468 15.6243 20.8926C15.6192 20.9027 15.6192 20.9078 15.6141 20.918C15.5018 20.9638 15.4202 21.0757 15.4253 21.2079C15.4253 21.2079 15.4253 21.213 15.4253 21.2181C15.3539 21.2537 15.2978 21.3198 15.2723 21.4012C15.2621 21.4266 15.206 21.4774 15.1499 21.5232C15.1091 21.5334 15.0683 21.5486 15.0326 21.5792L14.7061 21.8284C14.5939 21.9148 14.5633 22.0674 14.6194 22.1895L14.599 22.1793C14.4715 22.1132 14.3184 22.1437 14.2266 22.2505C14.0022 22.5099 13.7828 22.7743 13.5737 23.049C13.5431 23.0897 13.5278 23.1303 13.5176 23.1761C13.3595 23.1659 13.2166 23.2727 13.1911 23.4304C13.1911 23.4558 13.1911 23.4762 13.1911 23.4965C13.1197 23.5575 13.0432 23.6237 12.9718 23.6949C12.8953 23.7203 12.8086 23.761 12.7474 23.8424C12.6249 23.9898 12.528 24.1577 12.4617 24.3306L12.4515 24.3458C12.4005 24.3713 12.3546 24.412 12.3291 24.4628C12.2322 24.6459 12.1352 24.8493 12.0434 25.063C12.0434 25.0731 12.0281 25.0833 12.0281 25.0935C11.9516 25.1138 11.8853 25.1698 11.8445 25.241L11.7017 25.5105C11.6405 25.6224 11.6609 25.7597 11.7476 25.8563C11.7374 25.8919 11.7323 25.9275 11.7374 25.9682C11.7476 26.0649 11.7629 26.1666 11.7833 26.2632C11.7986 26.3344 11.8343 26.3954 11.8904 26.4412C11.8751 26.5073 11.8751 26.5836 11.8751 26.6599C11.768 26.604 11.6303 26.6192 11.5333 26.7057L11.2222 26.9854C11.0947 27.0973 11.0896 27.2905 11.2018 27.4177C11.2426 27.4635 11.2987 27.4889 11.3548 27.5041C11.3446 27.5601 11.3497 27.616 11.3701 27.672C11.3497 27.6872 11.3293 27.7025 11.314 27.7228C11.0487 28.0585 10.8651 28.3179 10.9212 28.5823C10.9569 28.7502 11.0794 28.8519 11.1712 28.9129C11.1253 28.9943 11.0743 29.0757 11.0385 29.1723C11.013 29.2333 11.0079 29.3045 11.0283 29.3706L11.0743 29.5232C11.0487 29.5842 11.0385 29.6555 11.0589 29.7267C11.0896 29.8436 11.1355 29.9504 11.1865 30.0572L11.2375 30.1742C11.2375 30.1742 11.2528 30.1895 11.2579 30.1996C11.2324 30.281 11.2069 30.3573 11.1865 30.4387C11.1712 30.52 11.1865 30.6065 11.2324 30.6726L11.2987 30.7743C11.3497 30.8455 11.4262 30.8913 11.5129 30.9015C11.518 30.9015 11.5282 30.9015 11.5333 30.9015C11.5078 30.9574 11.4976 31.0235 11.5129 31.0846L11.569 31.3694C11.5894 31.466 11.6558 31.5525 11.7476 31.5881C11.7782 31.6033 11.8088 31.6135 11.8445 31.6287C11.8343 31.6745 11.8292 31.7152 11.8394 31.7559C11.819 31.7712 11.7884 31.7762 11.7731 31.8017C11.7374 31.8424 11.717 31.8983 11.7068 31.9492C11.7068 31.9492 11.7017 31.9492 11.6966 31.9492C11.5894 31.9797 11.5129 32.0712 11.4925 32.178C11.4364 32.2136 11.4007 32.2543 11.3752 32.2899C11.2885 32.4272 11.314 32.5645 11.3497 32.6713C11.3395 32.7019 11.3242 32.7273 11.3191 32.7629C11.2834 32.7375 11.2426 32.7069 11.2018 32.7019C11.0947 32.6663 10.9773 32.6866 10.8906 32.768L10.8294 32.829C10.7325 32.9206 10.7274 33.0782 10.7886 33.2003C10.7631 33.2104 10.7376 33.2104 10.7121 33.2257C10.6917 33.241 10.6815 33.2613 10.6662 33.2766C10.605 33.2257 10.5183 33.2003 10.4366 33.2155C10.3295 33.2308 10.2479 33.302 10.2071 33.3935C10.1816 33.4037 10.1561 33.4088 10.1306 33.424C10.0694 33.4647 10.0337 33.5207 10.0133 33.5817C9.95205 33.6224 9.91125 33.6783 9.88574 33.7495C9.87554 33.7801 9.87554 33.8157 9.87554 33.8462H9.77862C9.6715 33.8462 9.57969 33.9123 9.52358 33.9987L9.25833 34.1818C9.18182 34.2327 9.14101 34.3141 9.13081 34.4005H9.12571C8.95227 34.3904 8.80945 34.5124 8.79925 34.6802C8.79415 34.7514 8.81455 34.8125 8.85026 34.8684C8.82475 34.8532 8.80435 34.8379 8.77374 34.8226C8.64622 34.7616 8.49829 34.7972 8.40648 34.904C8.37587 34.9396 8.35547 34.9854 8.34527 35.0312L8.28406 35.1125C8.28406 35.1125 8.25345 35.1075 8.24325 35.1024C8.10552 35.0566 7.9627 35.1176 7.88618 35.2397C7.85558 35.2549 7.83007 35.2753 7.80457 35.3007C7.80457 35.3007 7.80457 35.3007 7.79947 35.3007L7.67195 35.3261C7.61074 35.3363 7.55973 35.3719 7.51892 35.4126C7.47811 35.4126 7.44241 35.4228 7.4067 35.438C7.3965 35.438 7.38119 35.438 7.37099 35.438C7.21286 35.4889 7.12615 35.6618 7.17716 35.8246L7.21286 35.9263C7.21286 35.9263 7.17206 35.9466 7.15675 35.9619C7.13635 35.9822 7.12105 36.0076 7.10575 36.0331C7.09044 35.9415 7.03943 35.8602 6.95272 35.8144C6.8354 35.7534 6.69767 35.7788 6.60586 35.8652C6.54975 35.8652 6.49364 35.8754 6.44263 35.911L6.42733 35.8958C6.3151 35.7686 6.12127 35.7533 5.99375 35.8652C5.96314 35.8907 5.93764 35.9263 5.92233 35.9568C5.84582 35.9263 5.754 35.9212 5.67749 35.9619C5.56017 36.0229 5.50406 36.15 5.51936 36.2721C5.48876 36.2721 5.45815 36.2721 5.43265 36.2772C5.41224 36.1907 5.35613 36.1094 5.27452 36.0687L5.1521 36.0076C5.1521 36.0076 5.1368 36.0076 5.13169 36.0026C5.04498 35.9415 4.93276 35.9263 4.83074 35.972L4.48388 36.1348C4.48388 36.1348 4.47368 36.145 4.46347 36.15C4.38186 36.0788 4.29515 36.028 4.19823 36.0178C4.0656 36.0076 3.96359 36.0585 3.87177 36.1297C3.78505 36.0941 3.68814 36.089 3.60142 36.1348C3.59632 36.1348 3.59122 36.145 3.58102 36.15C3.51981 36.1399 3.4535 36.1399 3.38718 36.1704L3.29537 36.2162C3.19845 36.2619 3.09133 36.3179 2.97911 36.3789C2.8975 36.3433 2.80568 36.3433 2.71896 36.384C2.64245 36.4196 2.59144 36.4857 2.56594 36.5569H2.50983C2.38741 36.5417 2.27519 36.6027 2.21908 36.7044C2.18847 36.7553 2.17827 36.8112 2.17827 36.8671C2.08645 36.857 1.99464 36.8875 1.92322 36.9587L1.73449 37.1621C1.69368 37.2028 1.67328 37.2588 1.66308 37.3096C1.61717 37.3706 1.59676 37.452 1.61207 37.5334C1.62227 37.6097 1.66308 37.6707 1.71409 37.7165C1.61207 37.7419 1.53045 37.8284 1.49985 37.9453C1.39783 37.9555 1.30091 38.0115 1.255 38.1132C1.2142 38.1996 1.18359 38.2861 1.15299 38.3776L1.13258 38.4387C1.09688 38.5404 1.12238 38.6421 1.18359 38.7184C1.09177 38.7794 1.03566 38.8862 1.05097 38.9981C1.07647 39.2524 1.12238 39.4813 1.19889 39.7203C1.2142 39.7712 1.2499 39.8169 1.28561 39.8474C1.28051 39.9695 1.27541 40.0916 1.28561 40.2289C1.28561 40.2645 1.30601 40.295 1.31111 40.3306C1.30601 40.3815 1.30601 40.4323 1.32132 40.4781L1.35192 40.5645C1.36212 40.6001 1.39273 40.6154 1.41313 40.6459C1.41313 40.7019 1.42843 40.7578 1.46414 40.8087C1.51515 40.8849 1.57126 40.9511 1.62737 41.0121C1.62227 41.0731 1.62737 41.1342 1.65798 41.1952L1.72939 41.3223C1.7855 41.419 1.88752 41.48 1.99974 41.48C2.00994 41.48 2.01504 41.48 2.02524 41.48C2.05075 41.48 2.07625 41.4596 2.10175 41.4495C2.13236 41.4596 2.16297 41.4749 2.19357 41.4749H2.25478L2.19357 41.7292C2.15276 41.8919 2.24968 42.0598 2.41801 42.1005C2.44352 42.1055 2.46902 42.1106 2.49452 42.1106C2.51493 42.1106 2.53023 42.1055 2.55063 42.1005C2.54043 42.2683 2.56084 42.426 2.70876 42.5226C2.77507 42.5633 2.84139 42.5836 2.9026 42.5836C2.9026 42.5836 2.9077 42.5836 2.9128 42.5836C2.9383 42.6396 2.97401 42.6853 3.03012 42.7209C3.06583 42.7921 3.11684 42.8481 3.18825 42.8735L3.24436 42.8938C3.24436 43.0464 3.35658 43.1837 3.50961 43.2041L3.57082 43.2143C3.57082 43.2143 3.59632 43.2143 3.60652 43.2143C3.61672 43.2295 3.62182 43.2448 3.63203 43.2651C3.67283 43.3414 3.73915 43.3923 3.82076 43.4177C3.84116 43.4228 3.86157 43.4279 3.88197 43.4279C3.92788 43.4787 3.99419 43.5143 4.0707 43.5245C4.08091 43.5245 4.09111 43.5245 4.10641 43.5245C4.13702 43.5245 4.16762 43.5143 4.19823 43.5092L4.21353 43.5347C4.26454 43.6313 4.35636 43.6822 4.45837 43.6923C4.47878 43.7127 4.50428 43.7279 4.52979 43.7432C4.6165 43.7788 4.70322 43.8093 4.79503 43.8347C4.82054 43.8398 4.84604 43.8449 4.87155 43.8449C5.00927 43.8449 5.13169 43.7534 5.1674 43.616C5.1725 43.5906 5.1674 43.5652 5.1674 43.5448C5.20821 43.6008 5.25922 43.6364 5.31023 43.6567C5.34593 43.7584 5.43265 43.8398 5.54997 43.8602C5.56527 43.8602 5.58057 43.8602 5.60098 43.8602C5.703 43.8602 5.78971 43.8093 5.84582 43.733C5.89173 43.7534 5.93764 43.7737 5.98355 43.789L6.07536 43.8246C6.11107 43.8398 6.14677 43.8449 6.18248 43.8449C6.18248 43.8449 6.18758 43.8449 6.19268 43.8449C6.24879 43.9059 6.32531 43.9415 6.40692 43.9466H6.41202C6.41202 43.9466 6.43753 43.9466 6.45283 43.9415C6.50894 44.0076 6.59055 44.0534 6.68237 44.0534C6.68237 44.0534 6.72828 44.0432 6.74868 44.0382V44.0483C6.74358 44.089 6.73848 44.1246 6.73848 44.1653C6.73848 44.1653 6.73848 44.2111 6.73848 44.2162C6.73848 44.2772 6.73848 44.3942 6.79459 44.5162C6.78949 44.5467 6.77929 44.5722 6.77929 44.6027C6.78439 44.7705 6.80479 45.1621 7.12615 45.33C7.12615 45.3961 7.14655 45.4622 7.19246 45.513L7.37609 45.7267C7.37609 45.7267 7.3863 45.7317 7.3914 45.7368C7.44751 45.9555 7.63114 46.2963 7.69745 46.3573C7.70255 46.3624 7.71275 46.3675 7.72296 46.3726C7.73316 46.4031 7.74336 46.4336 7.76376 46.4692C7.78927 46.5048 7.82497 46.5404 7.86578 46.5709C7.88108 46.7133 7.9933 46.8303 8.14123 46.8455C8.15143 46.8455 8.15653 46.8455 8.16674 46.8455C8.17694 46.8455 8.18714 46.8455 8.19734 46.8404C8.23305 46.8913 8.27895 46.9422 8.34017 46.993C8.36057 47.0083 8.38607 47.0286 8.38097 47.0185C8.41158 47.1354 8.5085 47.227 8.63092 47.2422C8.64622 47.2422 8.66152 47.2422 8.67683 47.2422C8.70233 47.2422 8.72783 47.227 8.75334 47.2219L8.92677 47.349C8.98288 47.3897 9.04409 47.4101 9.1104 47.4101C9.1206 47.4101 9.12571 47.405 9.13591 47.405C9.14101 47.4202 9.14101 47.4355 9.15121 47.4507C9.21242 47.5372 9.30424 47.5779 9.40115 47.5779C9.42666 47.5779 9.45726 47.5779 9.48277 47.5677C9.50317 47.6033 9.53378 47.6287 9.56948 47.6542C9.62049 47.6847 9.6766 47.705 9.73781 47.705C9.78882 47.705 9.83473 47.6949 9.88064 47.6694C9.93675 47.7559 10.0337 47.8068 10.1357 47.8068C10.1561 47.8068 10.1765 47.8068 10.1969 47.8017C10.2734 47.7864 10.3397 47.7406 10.3805 47.6796C10.3907 47.6898 10.4111 47.6949 10.4213 47.7C10.4927 47.7559 10.5642 47.8068 10.6407 47.8627C10.6968 47.9034 10.758 47.9186 10.8192 47.9186C10.8906 47.9186 10.9569 47.8881 11.013 47.8424L11.0998 47.8627C11.0998 47.8627 11.1457 47.8729 11.1661 47.8729C11.1865 47.8729 11.212 47.8678 11.2324 47.8627L11.263 47.878C11.3089 47.8983 11.3548 47.9186 11.4058 47.939C11.4415 47.9492 11.4772 47.9593 11.5078 47.9593C11.5384 47.9593 11.5639 47.9542 11.5894 47.9441C11.5996 47.9441 11.6098 47.9492 11.6252 47.9492C11.7527 47.9492 11.87 47.8678 11.9159 47.7457L11.9567 47.6338C11.9567 47.6338 11.9924 47.6593 12.0128 47.6644V47.6796C12.0638 47.7813 12.1607 47.8474 12.273 47.8576C12.2832 47.8576 12.2934 47.8576 12.2985 47.8576C12.375 47.8576 12.4464 47.822 12.5025 47.7661C12.5433 47.7813 12.5841 47.7915 12.6249 47.7915C12.6453 47.7915 12.6657 47.7915 12.6861 47.7864L12.9106 47.7457C13.0789 47.7152 13.186 47.5525 13.1503 47.3897C13.1401 47.3439 13.1197 47.3083 13.0942 47.2727C13.0942 47.2677 13.1044 47.2626 13.1044 47.2575C13.1197 47.2168 13.1248 47.171 13.1197 47.1303C13.1605 47.1049 13.1962 47.0693 13.2217 47.0235L13.2421 47.0337L13.3187 47.0591V47.0897C13.3187 47.0897 13.3238 47.1253 13.3289 47.1456C13.3034 47.1405 13.288 47.1303 13.2778 47.1253C13.2778 47.1253 13.2931 47.1354 13.3187 47.1659C13.3187 47.171 13.3289 47.171 13.334 47.1761C13.3646 47.3033 13.4768 47.3999 13.6145 47.405H13.6247C13.7573 47.405 13.8747 47.3185 13.9155 47.1965C13.9257 47.1965 13.9308 47.1914 13.941 47.1863C14.1042 47.11 14.2725 47.0337 14.4307 46.9116C14.5072 46.8506 14.5429 46.7591 14.5429 46.6675C14.6041 46.6574 14.6602 46.6523 14.7265 46.637C14.8336 46.6116 14.9152 46.5251 14.9458 46.4183C14.956 46.3776 14.9458 46.337 14.9458 46.2963C15.0326 46.2149 15.0734 46.0877 15.0275 45.9708C15.0173 45.9352 14.9969 45.9097 14.9764 45.8843C15.0326 45.8691 15.0836 45.8385 15.1244 45.7928C15.1805 45.7267 15.206 45.6402 15.1958 45.5639C15.3029 45.5334 15.3794 45.4724 15.4253 45.4215C15.4967 45.335 15.5733 45.1876 15.5222 44.9384C15.5222 44.9129 15.5018 44.8926 15.4916 44.8671C15.5375 44.8265 15.5733 44.7705 15.5835 44.7095C15.5886 44.679 15.5937 44.6485 15.5886 44.623C15.5937 44.6027 15.5988 44.5773 15.5988 44.5518C15.6141 44.5264 15.6294 44.501 15.6396 44.4705L15.6855 44.3128C15.711 44.2212 15.6906 44.1297 15.6447 44.0585L15.6549 44.0432C15.7467 43.9008 15.7008 43.7127 15.558 43.6211C15.5426 43.6109 15.5273 43.611 15.512 43.6059C15.5937 43.5448 15.6447 43.4482 15.6294 43.3363L15.609 43.1329C15.609 43.0871 15.5835 43.0413 15.5631 43.0057C15.5733 42.9752 15.5784 42.9447 15.5784 42.9091C15.6243 42.8328 15.6345 42.7362 15.5988 42.6497C15.5784 42.5989 15.5426 42.5531 15.5018 42.5175C15.5426 42.4412 15.5529 42.3497 15.5171 42.2632C15.5171 42.2479 15.5018 42.2429 15.4967 42.2276C15.5018 42.2123 15.512 42.2022 15.512 42.192C15.5324 42.1106 15.5171 42.0293 15.4763 41.9581L15.4457 41.9123C15.4457 41.8614 15.4304 41.8055 15.3998 41.7597L15.3692 41.7089C15.3845 41.6783 15.3998 41.6529 15.4049 41.6173C15.4202 41.5105 15.3743 41.4037 15.2876 41.3376C15.2468 41.2613 15.1856 41.1952 15.1244 41.1291C15.1244 41.0833 15.1244 41.0324 15.1091 40.9917C15.257 40.9816 15.3794 40.8697 15.3947 40.7222C15.3947 40.6866 15.3947 40.6561 15.3845 40.6205V40.6052C15.3845 40.6052 15.3998 40.5595 15.3998 40.5391C15.4559 40.4883 15.4865 40.4272 15.4967 40.356C15.5171 40.3255 15.5375 40.3001 15.5529 40.2645C15.5631 40.2492 15.5682 40.234 15.5784 40.2187C15.6447 40.1882 15.7059 40.1373 15.7365 40.061C15.8028 40.0153 15.8487 39.939 15.8589 39.8576L15.8691 39.7762C15.8691 39.7762 15.8691 39.761 15.8691 39.7559C15.9303 39.7355 15.9915 39.705 16.0323 39.644C16.114 39.527 16.0986 39.3795 16.0119 39.2778C16.017 39.2778 16.0221 39.2778 16.0272 39.2727C16.0425 39.2626 16.0476 39.2524 16.0629 39.2422C16.114 39.2727 16.165 39.2931 16.2211 39.2931C16.3078 39.2931 16.3996 39.2575 16.4557 39.1812L16.4965 39.1303C16.5475 39.0693 16.5679 38.9879 16.5628 38.9117C16.5679 38.9117 16.573 38.9117 16.5781 38.9117C16.721 38.9117 16.8536 38.8048 16.8842 38.6624C16.8842 38.6523 16.8842 38.6421 16.8842 38.637C16.9352 38.6116 16.976 38.5709 17.0066 38.52L17.1188 38.3217C17.1596 38.2505 17.1647 38.164 17.1392 38.0877C17.1494 38.0877 17.1596 38.0928 17.1647 38.0928C17.18 38.0928 17.1953 38.0928 17.2106 38.0928C17.2311 38.0928 17.2515 38.0827 17.2719 38.0776C17.3433 38.0572 17.4402 38.0471 17.5014 37.9809L17.5932 37.8843C17.6289 37.8436 17.6493 37.7979 17.6595 37.747C17.7105 37.7012 17.7462 37.6402 17.7564 37.5741L18.0931 37.4215C18.1696 37.3859 18.2308 37.3198 18.2563 37.2384C18.2818 37.157 18.2767 37.0706 18.2359 36.9994L18.2104 36.9536C18.2104 36.9536 18.2461 36.9638 18.2614 36.9638C18.3073 36.9638 18.3584 36.9536 18.4043 36.9282C18.4247 36.918 18.4451 36.8977 18.4604 36.8824C18.4706 36.8824 18.4859 36.8875 18.4961 36.8875C18.5012 36.8875 18.5114 36.8875 18.5165 36.8875C18.6644 36.8773 18.7766 36.7603 18.7919 36.6129C18.8429 36.5722 18.8786 36.5213 18.8939 36.4552C18.9041 36.445 18.9144 36.4399 18.9297 36.4298C19.0062 36.3789 19.1694 36.267 19.2102 36.0585C19.2459 36.0382 19.2765 36.0178 19.302 35.9873L19.3683 35.9059C19.4142 35.85 19.4499 35.8144 19.4908 35.7686C19.5877 35.8398 19.6795 35.8754 19.756 35.8805C19.7713 35.8805 19.7917 35.8805 19.8121 35.8805C19.9141 35.8805 20.0417 35.85 20.1794 35.7432C20.2253 35.7686 20.2763 35.789 20.3273 35.789H20.3426C20.7303 35.7686 21.1026 35.7381 21.4444 35.6923C21.4852 35.6872 21.5158 35.6669 21.5464 35.6465C21.5974 35.7076 21.6739 35.7483 21.7556 35.7534L22.1534 35.7839C22.1534 35.7839 22.1687 35.7839 22.1738 35.7839C22.1942 35.7839 22.2095 35.7788 22.2248 35.7737C22.2554 35.7991 22.2861 35.8246 22.3218 35.8347C22.4493 35.8856 22.5768 35.9364 22.7094 35.9771C22.74 35.9873 22.7706 35.9924 22.8012 35.9924C22.9135 35.9924 23.0155 35.9263 23.0665 35.8296C23.2042 35.7584 23.3164 35.6974 23.4338 35.6313C23.4338 35.6313 23.4338 35.6313 23.4389 35.6262C23.495 35.6669 23.5562 35.6923 23.6225 35.6923C23.699 35.6923 23.7806 35.6618 23.8367 35.6059L23.9898 35.4533C23.9898 35.4533 24.0051 35.4533 24.0153 35.4533C24.0408 35.4533 24.0663 35.4533 24.0918 35.4431C24.1122 35.438 24.1275 35.4279 24.1428 35.4228C24.1938 35.4991 24.2754 35.5652 24.4029 35.6109C24.4386 35.6211 24.4692 35.6313 24.5049 35.6313C24.6274 35.6313 24.7396 35.5499 24.7855 35.4279C24.7906 35.4075 24.7957 35.3872 24.8008 35.3668C24.8212 35.3516 24.8416 35.3312 24.8569 35.3109C24.8875 35.3007 24.913 35.3007 24.9385 35.2855C24.9538 35.2753 24.964 35.26 24.9793 35.2499C24.9793 35.2549 24.9793 35.2651 24.9844 35.2702C25.0354 35.377 25.1477 35.4431 25.2599 35.4431C25.3058 35.4431 25.3517 35.4329 25.3925 35.4126C25.4843 35.3668 25.5863 35.3414 25.6884 35.3109C25.8771 35.2549 26.0913 35.1888 26.2801 35.0464C26.2852 35.0464 26.2903 35.0464 26.2954 35.0464C26.326 35.0464 26.3515 35.0464 26.3821 35.0312C26.6371 34.9549 26.9738 34.8532 27.1982 34.6192C27.3053 34.548 27.4125 34.4768 27.5145 34.3954C27.5451 34.37 27.5706 34.3395 27.591 34.309C27.6063 34.2988 27.6267 34.2937 27.642 34.2785L27.7185 34.2123C27.7185 34.2123 27.7542 34.192 27.7695 34.1818C27.8001 34.1513 27.8358 34.1208 27.8664 34.0903L27.9838 33.9886C27.9838 33.9886 28.0093 33.9581 28.0195 33.9428C28.0246 33.9377 28.0297 33.9326 28.0399 33.9275C28.3102 33.8614 28.9376 33.4596 28.9784 33.419C29.0141 33.3884 29.0346 33.3528 29.0499 33.3122C29.1519 33.302 29.2233 33.2562 29.2896 33.2003H29.3712C29.4987 33.185 29.6008 33.0935 29.6365 32.9765C29.7334 32.9104 29.7895 32.7934 29.7691 32.6713C29.7691 32.6663 29.7691 32.6612 29.764 32.6561C29.7691 32.6459 29.7793 32.6357 29.7844 32.6256C29.7895 32.6256 29.7946 32.6205 29.7997 32.6154C29.8201 32.6154 29.8405 32.6307 29.8609 32.6307C29.8711 32.6307 29.8813 32.6307 29.8966 32.6307C30.0088 32.6154 30.1057 32.5442 30.1466 32.4374C30.1721 32.3764 30.1874 32.3255 30.2078 32.2747C30.269 32.2034 30.3353 32.1272 30.3914 32.1017C30.4832 32.056 30.5495 31.9593 30.5546 31.8525C30.5546 31.7966 30.5495 31.7457 30.524 31.6949C30.5801 31.6796 30.6311 31.6491 30.6719 31.6033L30.9117 31.3083C30.9882 31.2168 30.9933 31.0947 30.9525 30.9981C30.9678 30.9879 30.9831 30.9676 30.9984 30.9523C30.9984 30.9523 31.0086 30.9523 31.0137 30.9523C31.029 30.9523 31.0443 30.9523 31.0596 30.9523C31.2024 30.932 31.2994 30.815 31.3096 30.6777L31.3657 30.5862C31.3963 30.5404 31.4014 30.4844 31.3963 30.4234C31.432 30.4132 31.4626 30.4132 31.4932 30.3929C31.636 30.3013 31.6717 30.1081 31.5748 29.9708L31.5493 29.9352C31.5493 29.9352 31.5595 29.9352 31.5646 29.9352C31.5952 29.9352 31.6258 29.9352 31.6564 29.9199C31.6717 29.9148 31.687 29.9047 31.7023 29.8945C31.8503 29.8843 31.9625 29.7724 31.9778 29.63C32.09 29.5792 32.1614 29.4673 32.1563 29.335C32.1971 29.3249 32.2379 29.3147 32.2787 29.2842C32.345 29.2384 32.3756 29.1672 32.391 29.096C32.4114 29.0858 32.4318 29.0757 32.4471 29.0655C32.5644 29.0096 32.6307 28.8926 32.6256 28.7705L32.8194 28.6179C32.8449 28.5976 32.8653 28.5722 32.8857 28.5417L32.9827 28.5213C33.0541 28.5061 33.1051 28.4603 33.151 28.4094L33.202 28.3891C33.253 28.3687 33.2938 28.3281 33.3244 28.2823C33.3754 28.2619 33.4162 28.2314 33.4519 28.1907C33.4774 28.1755 33.4978 28.1602 33.5183 28.15C33.5795 28.1144 33.6407 28.0788 33.6968 28.0432C33.7784 27.9924 33.8243 27.9059 33.8345 27.8144C33.8855 27.789 33.9263 27.7534 33.9569 27.7076C33.9926 27.7228 34.0334 27.733 34.0742 27.733C34.0947 27.733 34.1202 27.733 34.1457 27.7228C34.1712 27.7178 34.1967 27.7025 34.2222 27.6872C34.3395 27.672 34.4364 27.5957 34.4721 27.4889C34.4823 27.4889 34.4976 27.4991 34.5078 27.4991C34.5486 27.4991 34.5894 27.4889 34.6303 27.4736L34.9822 27.3211C35.0638 27.2855 35.1199 27.2193 35.1454 27.1481C35.1607 27.1481 35.176 27.1583 35.1965 27.1583C35.2832 27.1583 35.3648 27.1227 35.4209 27.0566C35.4311 27.0464 35.4311 27.0312 35.4413 27.0159C35.579 26.9193 35.7269 26.8277 35.8698 26.7413C35.8698 26.7413 35.9055 26.7667 35.9259 26.7718C35.9565 26.782 35.9922 26.787 36.0228 26.787C36.0942 26.787 36.1554 26.7565 36.2115 26.7108H36.2727C36.2727 26.7108 36.288 26.7108 36.2931 26.7108C36.4156 26.7108 36.5227 26.6345 36.5686 26.5277H36.5839C36.5839 26.5277 36.6145 26.5328 36.6247 26.5328C36.6808 26.5328 36.7369 26.5175 36.7879 26.4819C36.8032 26.4717 36.8287 26.4565 36.8594 26.431L37.1246 26.3497L37.1348 26.3446L37.4664 26.2479C37.5378 26.2276 37.5939 26.1818 37.6347 26.1208L37.701 26.131C37.701 26.131 37.7265 26.131 37.7418 26.131C37.8285 26.131 37.9152 26.0903 37.9764 26.0242V26.0191C38.0326 26.014 38.0836 25.9937 38.1295 25.9581C38.1601 25.9581 38.1958 25.953 38.2264 25.9377C38.3845 25.8716 38.4559 25.6936 38.3896 25.5359L38.3386 25.4139L38.4457 25.3884C38.5018 25.4596 38.5886 25.5054 38.6855 25.5054C38.8487 25.5054 38.9711 25.3783 38.9864 25.2206C39.0935 25.2969 39.2109 25.3376 39.3231 25.3376C39.5067 25.3376 39.6955 25.246 39.8944 25.0579C40.0015 25.0172 40.0729 24.9205 40.0831 24.8087C40.1239 24.829 40.1698 24.8493 40.2157 24.8493C40.2566 24.8493 40.2974 24.8392 40.3382 24.8239C40.3892 24.8036 40.43 24.768 40.4606 24.7273C40.5269 24.7171 40.583 24.6713 40.6289 24.6205C40.634 24.6205 40.6391 24.6205 40.6493 24.6205C40.6952 24.6205 40.736 24.6103 40.7768 24.59L41.0421 24.4628C41.1594 24.4069 41.2257 24.2848 41.2155 24.1628C41.2257 24.1628 41.2308 24.1628 41.2359 24.1628C41.2665 24.1628 41.3022 24.1577 41.3328 24.1475L41.5624 24.0712C41.7205 24.0204 41.8123 23.8474 41.7562 23.6847C41.7409 23.6389 41.7154 23.6033 41.6848 23.5728C41.6695 23.5118 41.6389 23.4558 41.5879 23.4151C41.5981 23.3897 41.5981 23.3643 41.6032 23.3389C41.746 23.3389 41.8684 23.2626 41.9858 23.1659C42.0011 23.2015 42.0266 23.2371 42.0521 23.2626C42.1133 23.3185 42.1898 23.349 42.2663 23.349C42.3428 23.349 42.4244 23.3185 42.4857 23.2575L42.7917 22.9422C42.8325 22.9015 42.8529 22.8506 42.8631 22.7998C42.9243 22.7794 42.9855 22.7489 43.0263 22.693C43.0468 22.6675 43.0621 22.637 43.0825 22.6116L43.0978 22.6014C43.1692 22.5607 43.2151 22.4997 43.2355 22.4285C43.2508 22.4285 43.2661 22.4285 43.2814 22.4183C43.3885 22.3929 43.4752 22.3115 43.5058 22.2047C43.5262 22.1437 43.5211 22.0725 43.5007 22.0115L43.6334 21.747C43.7456 21.7317 43.8476 21.6961 43.9241 21.6453C43.9496 21.63 43.9751 21.6097 43.9955 21.5893C44.1281 21.4774 44.2047 21.3249 44.2557 21.1774C44.3322 21.1469 44.3934 21.1011 44.4291 21.0248L44.4852 20.9027C44.4852 20.9027 44.4852 20.8824 44.4954 20.8722C44.5515 20.8265 44.5872 20.7603 44.5974 20.6841C44.628 20.6586 44.6535 20.6281 44.6739 20.5925C44.725 20.5569 44.7658 20.5111 44.7913 20.4501C44.8576 20.2823 44.9188 20.1144 44.98 19.9466C45.031 19.9263 45.0769 19.8958 45.1126 19.8551C45.1432 19.8296 45.1738 19.7991 45.1942 19.7635C45.235 19.6923 45.2401 19.6109 45.2248 19.5397C45.2299 19.5245 45.235 19.5092 45.2452 19.494C45.2758 19.4787 45.3065 19.4584 45.3269 19.4482C45.4238 19.3923 45.4748 19.2855 45.4748 19.1736C45.4748 19.1125 45.4442 19.0566 45.4085 19.0057L45.4289 18.9701C45.5156 18.9498 45.5921 18.8989 45.6329 18.8125L45.7706 18.5175C45.791 18.4666 45.7961 18.4158 45.791 18.37C45.8267 18.2886 45.8318 18.192 45.7859 18.1106C45.7655 18.0699 45.7298 18.0445 45.6941 18.014C45.74 17.9581 45.7808 17.897 45.8012 17.8258C45.8625 17.775 45.9033 17.6987 45.9084 17.6122C45.9084 17.6122 45.9084 17.602 45.9084 17.597C46.0104 17.5868 46.1073 17.5308 46.1532 17.4291L46.1736 17.3834C46.2348 17.3478 46.2807 17.2918 46.3062 17.2206C46.3215 17.1748 46.3215 17.124 46.3113 17.0782C46.3521 16.9714 46.3266 16.8544 46.2552 16.768C46.3725 16.7375 46.4695 16.6459 46.4848 16.5188C46.495 16.4374 46.5103 16.3509 46.5256 16.2696C46.5256 16.2492 46.5307 16.234 46.5358 16.2136C46.5409 16.1984 46.5613 16.1882 46.5613 16.1678L46.5868 16.0661C46.6123 15.9797 46.6276 15.9034 46.6429 15.8322C46.6531 15.761 46.6378 15.6949 46.6021 15.6389C46.6021 15.6287 46.6021 15.6237 46.6021 15.6135C46.6021 15.6084 46.6021 15.6033 46.6021 15.5982L46.6582 15.4813C46.6837 15.4304 46.6888 15.3745 46.6837 15.3236C46.6888 15.3134 46.699 15.3033 46.699 15.2931L46.7755 15.0846C46.801 15.0185 46.7959 14.9472 46.7755 14.8811C46.7806 14.8608 46.7806 14.8455 46.7857 14.8252C46.7908 14.7998 46.801 14.7794 46.8112 14.754C46.8112 14.7286 46.8112 14.7031 46.8214 14.6777C46.8469 14.6421 46.8622 14.5963 46.8673 14.5506L46.8826 14.4132C46.8826 14.3624 46.8826 14.3217 46.8622 14.2759C46.8622 14.2708 46.8622 14.2657 46.8622 14.2607C46.8928 14.2098 46.9132 14.1488 46.9081 14.0827C46.903 14.0013 46.8979 13.9199 46.8928 13.8385C46.8928 13.8233 46.8928 13.808 46.8928 13.7928C46.9336 13.7368 46.9591 13.6707 46.954 13.5995C46.954 13.5588 46.9438 13.513 46.9438 13.4724C46.954 13.4368 46.9642 13.4062 46.9642 13.3656V13.1214L47 13.2028ZM5.52956 38.6879C5.60608 38.6879 5.67239 38.6523 5.7285 38.6014C5.7489 38.6319 5.76931 38.6574 5.80501 38.6828C5.88153 38.7387 5.95294 38.7591 6.02945 38.7591C6.08556 38.7591 6.14167 38.7489 6.19778 38.7387C6.2641 38.7286 6.32021 38.693 6.36101 38.6472C6.37632 38.6472 6.39162 38.6574 6.40692 38.6574H6.57525L6.58545 38.6624C6.65176 38.6624 6.70787 38.637 6.75888 38.6014C6.79459 38.6167 6.8303 38.6319 6.866 38.6319C6.92721 38.6319 6.99353 38.6116 7.04454 38.5709L7.18226 38.4692C7.23837 38.4183 7.26387 38.3573 7.27918 38.2912C7.34039 38.2708 7.3863 38.2352 7.4271 38.1793C7.4373 38.1793 7.44751 38.1793 7.45771 38.1793C7.46791 38.1793 7.47811 38.1793 7.48831 38.1793C7.52402 38.3064 7.63114 38.398 7.76886 38.4031H7.77907C7.93719 38.4031 8.06472 38.2861 8.08002 38.1284C8.08002 38.1284 8.08512 38.1386 8.09022 38.1437C8.15143 38.2047 8.22795 38.2352 8.30956 38.2352C8.39117 38.2352 8.46259 38.2047 8.5238 38.1488C8.534 38.1386 8.5442 38.1284 8.5544 38.1183C8.56461 38.1183 8.57481 38.1233 8.58501 38.1233C8.67172 38.1233 8.75844 38.0877 8.81965 38.0115C8.84005 37.9911 8.86046 37.9606 8.88086 37.9199C8.91147 37.925 8.93697 37.9301 8.96758 37.9301C9.05939 37.9301 9.13081 37.8996 9.17671 37.864C9.25323 37.8131 9.28894 37.7419 9.30934 37.6758H9.36035C9.45726 37.6707 9.54908 37.6199 9.60009 37.5385C9.61029 37.5232 9.61539 37.5029 9.62049 37.4825C9.6358 37.4825 9.6562 37.4927 9.6715 37.4927C9.69701 37.4927 9.72761 37.4927 9.75312 37.4825C9.88064 37.4469 9.96225 37.335 9.97246 37.213C9.98776 37.213 9.99796 37.2232 10.0133 37.2232C10.0388 37.2232 10.0694 37.2232 10.0949 37.213C10.1714 37.1926 10.2887 37.1316 10.3448 36.9536C10.4468 36.9231 10.5336 36.8468 10.5642 36.7349V36.7197C10.5642 36.7197 10.5795 36.7044 10.5897 36.6993C10.6254 36.7095 10.656 36.7247 10.6917 36.7247C10.7376 36.7247 10.7886 36.7146 10.8294 36.6891C10.9365 36.6332 10.9977 36.5213 10.9926 36.4043C11.013 36.4043 11.0334 36.4145 11.0538 36.4145C11.1355 36.4145 11.212 36.384 11.2732 36.323C11.2987 36.2975 11.3191 36.2619 11.3344 36.2314C11.4109 36.2009 11.4772 36.15 11.5129 36.0738C11.5486 35.9975 11.5537 35.9212 11.5537 35.85C11.6098 35.85 11.666 35.8296 11.717 35.794L11.9873 35.6008C12.074 35.5397 12.1148 35.438 12.1097 35.3414C12.1403 35.3516 12.1658 35.3567 12.1965 35.3567C12.3291 35.3567 12.4515 35.2702 12.4872 35.138C12.4974 35.1075 12.4974 35.0769 12.4974 35.0413C12.5127 35.0413 12.528 35.0413 12.5433 35.0413C12.6504 35.021 12.8545 34.9854 12.9361 34.782C12.9616 34.7209 12.9616 34.665 12.9565 34.609L13.1248 34.5938C13.2268 34.5836 13.3136 34.5277 13.3646 34.4412C13.4156 34.3548 13.4156 34.253 13.3748 34.1666C13.3748 34.1615 13.3901 34.1564 13.3901 34.1462C13.5329 34.1717 13.6706 34.0903 13.7216 33.953C13.7828 33.9428 13.844 33.9225 13.8951 33.8716L14.0787 33.6885C14.0787 33.6885 14.0991 33.7038 14.1093 33.7089C14.1093 33.8157 14.1501 33.9174 14.247 33.9784C14.298 34.0089 14.3541 34.0242 14.4102 34.0242C14.4817 34.0242 14.5429 33.9937 14.599 33.9479C14.7622 34.0903 14.9203 34.2073 15.0785 34.3242L15.2366 34.4412C15.2927 34.4819 15.3539 34.5022 15.4202 34.5022C15.4355 34.5022 15.4508 34.4921 15.4661 34.4921C15.4763 34.5938 15.5375 34.6853 15.6294 34.7362C15.6753 34.7616 15.7212 34.7718 15.7722 34.7718C15.8079 34.7718 15.8385 34.7565 15.8742 34.7464C15.8997 34.8786 16.0068 34.9854 16.1497 34.9956H16.165C16.1803 35.0363 16.2058 35.0668 16.2364 35.0922C16.2007 35.1278 16.1701 35.1685 16.1548 35.2041C16.1395 35.2397 16.1293 35.2702 16.1293 35.3058C16.0782 35.3211 16.0272 35.3414 15.9864 35.3821C15.9711 35.3973 15.966 35.4126 15.9558 35.4279C15.9252 35.438 15.8895 35.4482 15.864 35.4635C15.8232 35.4889 15.7926 35.5245 15.7722 35.5652C15.7008 35.611 15.6549 35.6822 15.6396 35.7635C15.5478 35.7839 15.4763 35.85 15.4355 35.9364C15.3437 35.9873 15.2774 36.0788 15.2723 36.1907V36.2467C15.2264 36.2721 15.1805 36.2975 15.1448 36.323L15.0836 36.3637C15.002 36.4145 14.9458 36.4959 14.9356 36.5925L14.9101 36.8112L14.8234 36.8265C14.7214 36.8417 14.65 36.9282 14.6041 37.0197C14.5633 37.1113 14.5786 37.2384 14.6347 37.3249L14.6806 37.3961H14.6653C14.5378 37.3656 14.3133 37.3249 14.1756 37.5131C14.1552 37.5436 14.1501 37.5741 14.1348 37.6097H14.0787C13.941 37.6199 13.8338 37.7267 13.8032 37.8538L13.7777 37.8691C13.6451 37.9403 13.589 38.0928 13.6349 38.2301C13.6043 38.2454 13.5788 38.2556 13.5533 38.281C13.5431 38.2912 13.5431 38.3064 13.5329 38.3166C13.4054 38.342 13.3034 38.398 13.2523 38.5048C13.2319 38.5556 13.2166 38.6167 13.2268 38.693C13.2268 38.693 13.2166 38.693 13.2166 38.698C13.1605 38.7489 13.1299 38.815 13.1248 38.8862C13.1044 38.9015 13.084 38.9167 13.0687 38.932C13.0687 38.932 13.0687 38.932 13.0687 38.9371C13.0585 38.9371 13.0534 38.9371 13.0432 38.9371C12.9361 38.9778 12.8698 39.0693 12.8494 39.1761C12.8239 39.1914 12.7933 39.1965 12.7678 39.2168C12.681 39.2982 12.6504 39.4202 12.6861 39.5372C12.7371 39.7 12.7984 39.8322 12.8494 39.9593C12.8494 39.9695 12.8392 39.9797 12.8392 39.9898C12.829 40.061 12.8239 40.1322 12.8188 40.2034H12.7882C12.6249 40.1526 12.4566 40.2543 12.4158 40.4171C12.4056 40.4527 12.4056 40.4933 12.4107 40.5289C12.4107 40.534 12.4107 40.5391 12.4056 40.5442C12.375 40.6256 12.3852 40.7171 12.426 40.7934L12.5484 41.0121C12.5484 41.0121 12.5076 41.063 12.4872 41.0833C12.426 41.1596 12.4056 41.2664 12.4311 41.3579C12.4413 41.3884 12.4617 41.4088 12.477 41.4342C12.4515 41.4698 12.4311 41.5156 12.4209 41.5665C12.4209 41.597 12.4209 41.6326 12.4209 41.6631C12.4107 41.6936 12.4056 41.7292 12.4107 41.7648C12.4107 41.8309 12.4362 41.8869 12.477 41.9377C12.4566 42.0191 12.4617 42.1055 12.5127 42.1767C12.5382 42.2174 12.5739 42.248 12.6147 42.2734C12.6198 42.2886 12.6198 42.3039 12.63 42.3191L12.6402 42.3344C12.6198 42.3751 12.6045 42.4158 12.6045 42.4616C12.5943 42.609 12.6963 42.7362 12.8341 42.7718C12.8341 42.782 12.8341 42.7921 12.8341 42.8023C12.8341 42.8125 12.8341 42.8277 12.829 42.8379C12.7882 42.8735 12.7525 42.9193 12.7269 42.9803C12.6759 43.1176 12.7218 43.2346 12.778 43.3363C12.7474 43.3973 12.7371 43.4685 12.7525 43.5397C12.7423 43.5601 12.7269 43.5804 12.7167 43.6008C12.6657 43.733 12.6861 43.8703 12.7729 44.0178C12.7525 44.0585 12.7423 44.0992 12.7371 44.1399C12.7371 44.1806 12.7371 44.2162 12.7525 44.2467C12.7423 44.2721 12.732 44.2924 12.732 44.3179C12.681 44.3738 12.6555 44.4501 12.6606 44.5315C12.5892 44.562 12.528 44.6129 12.5025 44.6891C12.4923 44.7095 12.5025 44.7349 12.5025 44.7603C12.4821 44.7807 12.4668 44.8061 12.4515 44.8315L12.2781 44.8773C12.2118 44.8926 12.1556 44.9282 12.1148 44.979C12.0689 44.9994 12.0281 45.0248 11.9975 45.0604C11.9924 45.0706 11.9873 45.0808 11.9822 45.0909C11.9057 45.0299 11.8037 44.9994 11.7017 45.0299C11.6864 45.035 11.6711 45.0452 11.6558 45.0553C11.5078 45.0095 11.3446 45.0808 11.2834 45.2282C11.2222 45.1316 11.0998 45.0757 10.9824 45.0604C10.8957 45.0655 10.8243 45.0909 10.7682 45.1469C10.758 45.1316 10.7529 45.1164 10.7376 45.1011C10.7274 45.0909 10.7172 45.0909 10.707 45.0808C10.6764 45.0248 10.6305 44.974 10.5642 44.9434C10.503 44.918 10.4315 44.9078 10.3703 44.9231C10.3295 44.8671 10.2734 44.8265 10.202 44.7959C10.1765 44.7858 10.1459 44.7807 10.1153 44.7756C10.0949 44.7502 10.0745 44.7247 10.049 44.7044C10.0388 44.6942 10.0184 44.6942 10.0031 44.6841C9.97246 44.6485 9.90615 44.6027 9.80413 44.5874C9.79393 44.5773 9.78372 44.5671 9.77352 44.5569C9.77352 44.5366 9.77352 44.5213 9.76842 44.501C9.73781 44.4094 9.6664 44.3484 9.58479 44.3179C9.57459 44.2619 9.54908 44.2009 9.50317 44.1602C9.44196 44.1043 9.36545 44.0738 9.28893 44.0738C9.25833 44.0229 9.21242 43.9873 9.15631 43.9619C9.14611 43.9415 9.13081 43.9212 9.1155 43.9059C9.21242 43.8805 9.29914 43.8042 9.32974 43.7025L9.42156 43.3973C9.44706 43.3923 9.47257 43.3923 9.49807 43.377C9.61029 43.3109 9.6664 43.1837 9.646 43.0617C9.77352 42.9803 9.82963 42.8176 9.76332 42.6752C9.73781 42.6141 9.68681 42.5734 9.6358 42.5429C9.6358 42.5073 9.6358 42.4717 9.6358 42.4361C9.6358 42.3853 9.61539 42.3395 9.59499 42.2988C9.61029 42.2327 9.60009 42.1615 9.56948 42.0954C9.59499 41.9835 9.55928 41.8614 9.46237 41.7851C9.43686 41.7648 9.41646 41.7495 9.39605 41.7343C9.37055 41.6376 9.29914 41.5715 9.21242 41.5359C9.21242 41.5359 9.21242 41.5359 9.21242 41.5308C9.20222 41.5156 9.19202 41.5003 9.18182 41.4851C9.22262 41.4495 9.25833 41.4088 9.27363 41.3528C9.28893 41.3071 9.29914 41.2562 9.31444 41.2054C9.32974 41.1392 9.35015 41.068 9.38075 40.9816C9.42666 40.8443 9.37055 40.6917 9.24303 40.6205C9.18692 40.59 9.1206 40.5798 9.05939 40.5849C9.04919 40.4679 8.97778 40.3662 8.86046 40.3255C8.70233 40.2696 8.5238 40.3509 8.46769 40.5137C8.43198 40.6103 8.41158 40.6917 8.40138 40.7731C8.40138 40.7731 8.39117 40.7781 8.38607 40.7832C8.32996 40.7019 8.25855 40.6408 8.16163 40.6256C8.10042 40.6154 8.04431 40.6205 7.9933 40.6357C7.93209 40.6001 7.86578 40.5798 7.79437 40.59C7.71275 40.6001 7.63624 40.6459 7.58523 40.7171C7.51382 40.8137 7.45771 40.9206 7.3965 41.0223C7.3965 41.0324 7.3863 41.0375 7.3812 41.0477C7.37099 41.0477 7.36079 41.0579 7.34549 41.0579C7.26387 40.9663 7.13635 40.9256 7.01393 40.9714C6.88131 41.0172 6.80989 41.1392 6.81499 41.2715C6.72318 41.2562 6.60586 41.2969 6.52424 41.3579C6.40692 41.302 6.2692 41.3172 6.17228 41.4139C6.14167 41.3427 6.09066 41.2816 6.01415 41.246C5.85602 41.1748 5.67749 41.246 5.61118 41.3986L5.59078 41.4393C5.58057 41.3935 5.57037 41.3478 5.56527 41.2969C5.53977 41.1443 5.40714 41.0426 5.25412 41.0426L5.1623 40.9612C5.1623 40.9612 5.1419 40.9511 5.13169 40.946C5.10619 40.8392 5.01947 40.7527 4.90215 40.7273C4.88175 40.6917 4.85625 40.6561 4.82564 40.6307C4.78483 40.6001 4.73892 40.5798 4.69302 40.5696C4.65731 40.534 4.6165 40.5137 4.57059 40.4984C4.57059 40.473 4.56039 40.4527 4.55019 40.4272C4.51959 40.356 4.46347 40.3052 4.39206 40.2747C4.40226 40.2187 4.40226 40.1628 4.38696 40.1119C4.36146 40.0305 4.29004 39.9797 4.21863 39.9441C4.20333 39.8678 4.16252 39.8068 4.12682 39.7712C4.11151 39.7559 4.10131 39.7508 4.08601 39.7406C4.08601 39.644 4.0401 39.5525 3.94828 39.4965C3.93808 39.4914 3.93298 39.4813 3.92278 39.4762C3.95849 39.405 3.95849 39.3287 3.93808 39.2575C3.93808 39.2321 3.94318 39.2066 3.93808 39.1812C3.93808 39.171 3.93808 39.1659 3.93808 39.1558C3.93808 39.1456 3.93808 39.1405 3.93298 39.1354C3.93808 39.1354 3.94828 39.1253 3.95338 39.1202C3.95849 39.1202 3.96359 39.1202 3.96869 39.1202C4.07071 39.0998 4.14722 39.0185 4.18803 38.9218C4.20333 38.9116 4.21353 38.8964 4.22373 38.8811L4.28494 38.9015C4.28494 38.9015 4.29515 38.8862 4.30025 38.876L4.5808 38.8303C4.5808 38.8303 4.6216 38.815 4.64711 38.8048C4.67261 38.8303 4.69812 38.8506 4.73382 38.8659L4.85625 38.9218C4.89705 38.9422 4.94296 38.9523 4.98377 38.9523C4.98377 38.9523 4.99397 38.9523 4.99907 38.9523C5.01437 38.9523 5.02457 38.9625 5.03988 38.9625C5.06028 38.9625 5.08579 38.9625 5.10619 38.9574C5.21331 38.932 5.30002 38.8506 5.33573 38.7438C5.33573 38.7438 5.37144 38.7489 5.39184 38.7489C5.43265 38.7489 5.47345 38.7387 5.50916 38.7235C5.51426 38.7235 5.51936 38.7286 5.52956 38.7286V38.6879ZM20.1386 33.6987C20.1386 33.6987 20.1386 33.6987 20.1335 33.6987C20.1335 33.6987 20.1386 33.6987 20.1437 33.6987H20.1386ZM21.0567 33.4291L21.0057 33.3732C20.9598 33.3223 20.9088 33.2613 20.8323 33.1698C20.7609 33.0833 20.6538 33.0426 20.5466 33.063C20.4395 33.0782 20.3477 33.1545 20.3069 33.2562L20.2865 33.3071C20.2508 33.2206 20.1794 33.1545 20.0876 33.1291L19.9243 33.0833L19.9039 33.1342C19.9039 33.1342 19.8835 33.1392 19.8784 33.1443C19.7968 33.1698 19.7662 33.1647 19.7815 33.1647C19.7152 33.0121 19.5367 32.9358 19.3785 33.0019C19.2306 33.063 19.1643 33.2257 19.2102 33.3783C19.1949 33.3681 19.1847 33.3579 19.1694 33.3528L19.1082 33.3274C19.1031 33.2766 19.0878 33.2308 19.0521 33.1901C18.9501 33.0528 18.8327 32.9867 18.7256 32.9663L18.6389 32.8493C18.5879 32.7832 18.5165 32.7425 18.4349 32.7324C18.3533 32.7222 18.2716 32.7425 18.2053 32.7934C18.1696 32.8188 18.1543 32.8443 18.1288 32.8748C18.0931 32.8595 18.0523 32.8493 18.0115 32.8392L17.9962 32.7731C17.9605 32.6103 17.7973 32.5035 17.634 32.5391C17.5728 32.5493 17.5269 32.5849 17.4861 32.6256C17.4147 32.5544 17.3178 32.5188 17.2208 32.534L17.1341 32.5493L16.9913 32.4221C16.8638 32.3102 16.6699 32.3255 16.5577 32.4527C16.522 32.4933 16.5067 32.5391 16.4914 32.5849C16.4812 32.5086 16.4455 32.4323 16.3792 32.3815L16.2313 32.2645C16.1293 32.1831 15.9915 32.178 15.8844 32.239C15.8487 32.1933 15.813 32.1475 15.7773 32.1017C15.8385 32.0204 15.8589 31.9136 15.8181 31.8118C15.7773 31.7152 15.6906 31.6542 15.5988 31.6338C15.5937 31.6186 15.5937 31.6033 15.5835 31.5931C15.5069 31.4609 15.4202 31.3999 15.3386 31.3795L15.3692 31.3185C15.4355 31.1761 15.3845 31.0083 15.2519 30.9269L15.155 30.8659C15.0989 30.8303 15.0377 30.8252 14.9764 30.8252C14.9662 30.815 14.9611 30.7998 14.9509 30.7896L14.8438 30.6879C14.8489 30.6472 14.8489 30.6065 14.8438 30.5658C14.803 30.4031 14.6398 30.3013 14.4715 30.342L14.3643 30.3675C14.3133 30.3827 14.2623 30.3929 14.2113 30.4082C14.2113 30.4082 14.2062 30.4031 14.2011 30.4031C14.2011 30.4031 14.196 30.4031 14.1909 30.4031C14.1858 30.3675 14.1756 30.337 14.1552 30.3014C14.1042 30.2149 14.0634 30.1284 14.0328 30.0369C14.0073 29.9606 13.9512 29.9047 13.89 29.8741L13.9104 29.8233C13.9665 29.686 13.9104 29.5283 13.7879 29.452C13.7879 29.4062 13.7624 29.3605 13.7369 29.3198C13.7777 29.2588 13.8032 29.1825 13.7879 29.1011C13.7777 29.0248 13.7369 28.9689 13.6859 28.9231C13.7318 28.8366 13.7369 28.7349 13.6859 28.6434C13.64 28.5569 13.6043 28.4552 13.5788 28.3586C13.6349 28.3382 13.691 28.3128 13.7267 28.2619C13.7981 28.1755 13.8134 28.0534 13.7675 27.9517C13.7114 27.8195 13.6757 27.7127 13.6655 27.6567C13.6706 27.6567 13.6808 27.6567 13.6859 27.6567L13.8491 27.5855C13.9053 27.5601 13.9461 27.5245 13.9767 27.4787C14.0634 27.4228 14.1195 27.3211 14.1144 27.2041C14.1144 27.1125 14.1144 27.0363 14.1144 26.9549C14.1246 26.9447 14.1399 26.9396 14.1501 26.9294C14.2419 26.8481 14.497 26.604 14.3745 26.2327C14.3745 26.2225 14.3847 26.2123 14.3898 26.2073C14.4153 26.2123 14.4358 26.2225 14.4613 26.2225C14.5786 26.2225 14.6959 26.1513 14.7418 26.0343C14.752 26.014 14.7622 25.9937 14.7673 25.9784C14.7877 25.9631 14.8081 25.9479 14.8234 25.9225L15.0785 25.5461C15.104 25.5054 15.1193 25.4647 15.1244 25.424L15.1652 25.3884C15.1652 25.3884 15.1856 25.3579 15.1958 25.3427C15.2519 25.3325 15.3029 25.3071 15.3488 25.2715L15.4712 25.1545C15.5018 25.124 15.5273 25.0884 15.5426 25.0528L15.5886 25.0223C15.6651 24.9714 15.711 24.8849 15.7212 24.7934C15.7212 24.7883 15.7212 24.7781 15.7212 24.7731C15.8691 24.7731 15.9966 24.6612 16.017 24.5086V24.4984C16.1089 24.4883 16.1905 24.4374 16.2415 24.3509C16.3027 24.3255 16.3486 24.2797 16.3792 24.2238L16.5169 24.1272C16.573 24.0916 16.6036 24.0356 16.624 23.9797C16.624 23.9797 16.6342 23.9797 16.6393 23.9797C16.7822 23.9237 16.8536 23.7712 16.8179 23.6237C16.8383 23.5982 16.8638 23.583 16.8791 23.5525C16.9199 23.466 16.9097 23.3694 16.8689 23.2931C16.8944 23.2982 16.9199 23.3083 16.9454 23.3083C16.9556 23.3083 16.9709 23.3083 16.9811 23.3083C17.0831 23.2982 17.1647 23.227 17.2106 23.1405C17.2821 23.0947 17.3586 23.0337 17.4555 22.9625C17.4555 22.9625 17.4657 22.9625 17.4708 22.9625C17.481 22.9625 17.4912 22.9625 17.5065 22.9625C17.6799 22.9625 17.7717 22.8303 17.8789 22.6726L17.9095 22.6268C17.9095 22.6268 17.9248 22.5912 17.9299 22.576C17.9401 22.5709 17.9503 22.5658 17.9554 22.5556L18.0472 22.4387C18.0982 22.3776 18.1237 22.2963 18.1135 22.2149L18.0982 22.0674C18.1645 22.0521 18.2206 22.0165 18.2665 21.9606C18.4094 21.7724 18.4706 21.6097 18.4859 21.4724C18.5624 21.335 18.5777 21.157 18.5777 20.9841C18.5777 20.9434 18.5675 20.9027 18.5573 20.8671C18.5573 20.8315 18.5573 20.801 18.5522 20.7654C18.593 20.7197 18.6236 20.6586 18.6287 20.5874C18.6287 20.5722 18.6287 20.5518 18.6236 20.5366C18.6491 20.4247 18.644 20.323 18.6236 20.2212C18.6287 20.2111 18.644 20.206 18.6491 20.1958C18.7001 20.089 18.6848 19.972 18.6236 19.8856C18.6593 19.8246 18.6644 19.7534 18.6542 19.6872C18.6695 19.6211 18.6695 19.5499 18.6338 19.4889L18.5828 19.3821C18.5828 19.3821 18.5522 19.3516 18.542 19.3312C18.5879 19.2499 18.5981 19.1532 18.5624 19.0617C18.5726 18.965 18.5267 18.8684 18.4502 18.8074C18.5063 18.7057 18.4961 18.5734 18.4196 18.4768L18.241 18.2479C18.241 18.0954 18.2359 17.9479 18.2206 17.8207L18.2104 17.6733C18.2104 17.6173 18.1849 17.5614 18.1543 17.5156L17.986 17.2766C18.0166 17.2359 18.0421 17.185 18.0472 17.1291C18.0472 17.0782 18.0574 17.0324 18.0676 16.9816L18.0778 16.9104C18.0829 16.8748 18.0778 16.8392 18.0727 16.8087C18.088 16.6968 18.0421 16.5798 17.9452 16.5137L17.6901 16.3408C17.7156 16.295 17.7462 16.2492 17.7768 16.2085C17.8483 16.1068 17.8483 15.9746 17.787 15.8729C17.8075 15.8169 17.8177 15.761 17.8075 15.7C17.833 15.6389 17.8483 15.5779 17.8432 15.5016C17.833 15.4202 17.8024 15.3592 17.7564 15.3033C17.787 15.2575 17.8177 15.2066 17.8534 15.1609L17.8993 15.0947C17.9503 15.0235 17.9605 14.932 17.9452 14.8506C17.9554 14.7794 17.9656 14.698 17.9707 14.5912H17.9503L17.9605 14.5607C18.0013 14.4438 17.9656 14.3268 17.884 14.2454C17.9299 14.2047 17.9605 14.1488 17.9758 14.0877C17.9911 14.0216 18.0064 13.9504 18.0268 13.8843L18.0523 13.7979C18.0625 13.7521 18.0625 13.7063 18.0523 13.6605C18.088 13.5944 18.1186 13.513 18.1033 13.4164C18.1033 13.4062 18.1033 13.3961 18.0982 13.3859C18.1441 13.33 18.1747 13.2638 18.1747 13.1876L18.1645 12.9383C18.1645 12.9027 18.1492 12.8722 18.1339 12.8417L18.1696 12.7705C18.1696 12.7705 18.1696 12.7603 18.1696 12.7553C18.2716 12.6891 18.3226 12.5722 18.3022 12.4552C18.3277 12.4399 18.3533 12.4247 18.3737 12.3993C18.4451 12.3128 18.4604 12.1907 18.4196 12.089L18.3686 11.967C18.3532 11.9364 18.3481 11.9059 18.3328 11.8754C18.3941 11.8754 18.4502 11.85 18.5012 11.8093C18.6185 11.7127 18.644 11.5448 18.5675 11.4177C18.6338 11.3973 18.695 11.3668 18.7409 11.3058C18.7715 11.2651 18.7868 11.2193 18.7919 11.1685C18.848 11.1125 18.8837 11.0363 18.8837 10.9498C18.9246 10.904 18.9603 10.8481 18.9705 10.782C18.9756 10.726 18.996 10.6701 19.0062 10.6192C19.0878 10.5836 19.1541 10.5124 19.1796 10.4158C19.1796 10.4005 19.1796 10.3954 19.1796 10.3802C19.2051 10.3446 19.2255 10.309 19.2357 10.2632C19.251 10.2123 19.2408 10.1615 19.2306 10.1106C19.2765 10.0903 19.3173 10.0699 19.3632 10.0394C19.3734 10.0343 19.3887 10.0293 19.3989 10.0191C19.4091 10.014 19.4091 10.0038 19.4142 9.99366C19.455 9.95806 19.4857 9.91228 19.5112 9.85634C19.5316 9.84108 19.5469 9.82583 19.5673 9.80548C19.6234 9.73428 19.6387 9.64782 19.6234 9.55628C19.7407 9.52576 19.8325 9.43422 19.8529 9.31216C19.9243 9.23587 19.9498 9.13415 19.9294 9.03752L19.9549 8.95615C19.9549 8.95615 19.9549 8.91546 19.96 8.89512C19.9702 8.89512 19.9804 8.89003 19.9906 8.88495C20.011 8.88495 20.0314 8.89512 20.0519 8.89512C20.0825 8.89512 20.1131 8.89512 20.1437 8.87986C20.3069 8.829 20.3936 8.65609 20.3426 8.49842L20.3018 8.36619C20.3018 8.36619 20.3222 8.34076 20.3273 8.32551C20.3528 8.31025 20.3783 8.29499 20.3987 8.26956C20.3987 8.26956 20.3987 8.26448 20.4038 8.25939C20.4395 8.26956 20.4854 8.27974 20.5262 8.27974C20.5619 8.27974 20.5926 8.27973 20.6334 8.26448C20.8374 8.20853 20.9139 8.02544 20.9496 7.91356C20.9904 7.8627 21.0312 7.80167 21.072 7.73555C21.1639 7.71521 21.2506 7.66435 21.2914 7.57281V7.55755C21.3985 7.52703 21.4801 7.45075 21.5056 7.34394C21.5056 7.33886 21.5056 7.33377 21.5056 7.32869C21.6484 7.30834 21.7913 7.23714 21.9188 7.11508C21.9596 7.08457 21.9953 7.04897 22.0208 7.00319C22.0412 6.97776 22.0616 6.95742 22.082 6.93199C22.1228 6.87605 22.1381 6.81502 22.1381 6.7489C22.1789 6.73364 22.2146 6.7133 22.2503 6.68787C22.2554 6.68787 22.2656 6.68787 22.2707 6.68787C22.3371 6.68787 22.4085 6.66753 22.4646 6.61667L22.536 6.56073C22.5972 6.54547 22.6533 6.52513 22.6992 6.47427C22.7451 6.42849 22.7604 6.36747 22.7706 6.31152C22.7706 6.31152 22.7757 6.31152 22.7808 6.31152C22.7808 6.31152 22.8216 6.30135 22.842 6.29626C22.842 6.29626 22.8421 6.29626 22.8472 6.29626C22.8523 6.29626 22.8574 6.29626 22.8625 6.29626C22.9441 6.29626 23.0206 6.25558 23.0767 6.19455C23.1226 6.14369 23.1532 6.08775 23.1787 6.03689C23.1787 6.03689 23.2093 6.03689 23.2195 6.03689C23.3674 6.03689 23.5001 5.925 23.5205 5.77242C23.5205 5.76734 23.5205 5.75717 23.5205 5.75208C23.6174 5.75208 23.699 5.69614 23.7551 5.61476L24.2193 5.36556C24.2193 5.36556 24.2499 5.38082 24.2703 5.38082C24.3009 5.38082 24.3264 5.38082 24.357 5.37064L24.51 5.32487C24.6376 5.28927 24.7243 5.17738 24.7294 5.04515C24.7294 4.97395 24.7396 4.90275 24.7447 4.83155H24.7498C24.7498 4.83155 24.7549 4.8468 24.76 4.85698C24.8212 4.94343 24.913 4.98412 25.0099 4.98412C25.0711 4.98412 25.1324 4.96378 25.1885 4.92818L25.5863 4.64846C25.7394 4.58743 25.8924 4.53657 26.0505 4.48063C26.1678 4.46537 26.2852 4.42977 26.3872 4.36365C26.4229 4.34839 26.4637 4.33822 26.4994 4.32296C26.581 4.29245 26.6422 4.23142 26.6728 4.16022C26.6881 4.16022 26.6983 4.16022 26.7136 4.16022C26.8157 4.16022 26.9024 4.10936 26.9585 4.03307C26.984 4.02799 27.0146 4.01781 27.035 4.00764L27.336 4.01781H27.3462C27.4839 4.01781 27.6012 3.93136 27.642 3.79912L27.6573 3.74827C27.7083 3.78387 27.7644 3.80421 27.8256 3.80421C27.8919 3.80421 27.9583 3.78387 28.0144 3.73809C28.0807 3.68724 28.1215 3.61095 28.1266 3.52958C28.147 3.555 28.1725 3.58043 28.2031 3.60078C28.2541 3.63129 28.3102 3.64655 28.3663 3.64655C28.4531 3.64655 28.5296 3.60586 28.5908 3.53466C28.6214 3.51432 28.6469 3.48889 28.6724 3.45329C28.6928 3.45329 28.7132 3.46346 28.7336 3.46346C28.7897 3.46346 28.8407 3.44312 28.8866 3.41769C28.9325 3.44312 28.9784 3.45837 29.0295 3.45837C29.055 3.45837 29.0805 3.45837 29.106 3.4482C29.2386 3.4126 29.3712 3.38717 29.5038 3.36174L29.7487 3.31089C29.8201 3.29563 29.8813 3.24986 29.9221 3.19391C29.968 3.15322 30.0088 3.10237 30.0241 3.04134C30.0241 3.03116 30.0241 3.02608 30.0241 3.01591C30.0394 3.01591 30.0496 3.00574 30.0649 3.00574C30.1159 3.11254 30.2231 3.17865 30.3353 3.17865C30.3761 3.17865 30.4169 3.16848 30.4526 3.15322L30.723 3.04134C30.723 3.04134 30.7332 3.03116 30.7434 3.02608C30.7587 3.02608 30.7791 3.03625 30.7944 3.03625C30.8199 3.03625 30.8454 3.02608 30.876 3.02099C30.9117 3.04642 30.9525 3.06677 30.9984 3.07185C31.0137 3.07185 31.029 3.07185 31.0443 3.07185C31.182 3.07185 31.2994 2.98031 31.3351 2.84808C31.3555 2.86842 31.381 2.89385 31.4065 2.90402L31.4728 2.93962C31.5187 2.95996 31.5646 2.97014 31.6105 2.97014C31.6564 2.97014 31.6972 2.95488 31.7431 2.93962C31.8707 2.97522 31.9982 2.97013 32.0645 2.96505C32.1002 2.96505 32.1308 2.94979 32.1614 2.93962C32.192 2.93962 32.2175 2.94979 32.2481 2.94979C32.3552 2.94979 32.4573 2.93453 32.5593 2.90402C32.5797 2.91419 32.6052 2.92436 32.6307 2.92945C32.6613 2.93962 32.6919 2.94471 32.7276 2.94471C32.7786 2.94471 32.8347 2.92945 32.8806 2.90402H32.8908C32.9316 2.91419 32.9725 2.92436 33.0235 2.92436C33.1 2.92436 33.1918 2.90402 33.304 2.8379C33.3499 2.81247 33.3805 2.77687 33.406 2.73619C33.4162 2.73619 33.4315 2.73619 33.4417 2.73619C33.457 2.75144 33.4723 2.7667 33.4927 2.77687L33.6407 2.85316C33.6815 2.8735 33.7223 2.88368 33.7631 2.88368C33.8498 2.88368 33.9314 2.8379 33.9977 2.77687C34.0079 2.77687 34.0232 2.78196 34.0334 2.78196C34.0539 2.78196 34.0692 2.77179 34.0896 2.77179C34.1253 2.78705 34.161 2.79722 34.1967 2.79722C34.2069 2.81247 34.2069 2.83282 34.2222 2.84808C34.2834 2.92436 34.3701 2.96505 34.4619 2.96505C34.5282 2.96505 34.5945 2.94471 34.6507 2.89893L34.921 2.68533C34.9822 2.63956 35.0128 2.56836 35.0281 2.49207C35.0434 2.49207 35.0536 2.4819 35.0689 2.4819C35.0944 2.51241 35.1301 2.54293 35.1709 2.56327C35.1658 2.59378 35.1556 2.61921 35.1556 2.65481C35.1607 2.75144 35.2118 2.8379 35.2934 2.89385L35.3954 2.95996C35.4464 2.99556 35.5076 3.01082 35.5637 3.01082C35.6606 3.01082 35.7576 2.96505 35.8188 2.8735C35.829 2.85825 35.829 2.84299 35.8392 2.82773C35.8902 2.86333 35.9514 2.88876 36.0177 2.88876C36.0432 2.88876 36.0687 2.88876 36.0942 2.87859C36.135 2.89893 36.1758 2.90911 36.2268 2.90911C36.3238 2.90911 36.4054 2.86333 36.4564 2.79213L36.4768 2.80739C36.4768 2.80739 36.4768 2.81247 36.4819 2.81756C36.4462 2.91928 36.4564 3.03625 36.5278 3.12271C36.5635 3.18374 36.6349 3.3058 36.7726 3.3414C36.8798 3.37192 36.9869 3.39734 37.0991 3.41769C37.1756 3.43294 37.247 3.4482 37.3235 3.46855C37.349 3.47363 37.3796 3.47872 37.4051 3.47872C37.4256 3.47872 37.446 3.47363 37.4664 3.46855C37.5021 3.52958 37.5531 3.58043 37.6296 3.60586C37.6653 3.61603 37.6959 3.62621 37.7316 3.62621C37.7367 3.62621 37.7418 3.62621 37.7469 3.62621C37.7571 3.63129 37.7622 3.64655 37.7775 3.65164L37.956 3.73809C37.9968 3.75844 38.0428 3.76861 38.0836 3.76861C38.1652 3.76861 38.2366 3.72792 38.2927 3.66689C38.2978 3.66689 38.3029 3.66689 38.308 3.66689C38.3386 3.70249 38.3743 3.73301 38.4202 3.75335C38.4559 3.76861 38.4967 3.77878 38.5324 3.77878C38.5733 3.83981 38.6345 3.88558 38.711 3.90084C38.7416 3.92627 38.7773 3.94153 38.8181 3.9517C38.8385 4.01273 38.8742 4.06867 38.9303 4.10427C39.0782 4.2009 39.216 4.31279 39.3537 4.41959L39.4149 4.46537C39.4557 4.49588 39.5067 4.51623 39.5526 4.52131C39.5832 4.60777 39.6393 4.68406 39.7312 4.71457C39.7669 4.72474 39.8026 4.73492 39.8332 4.73492C39.8944 4.73492 39.9556 4.70949 40.0066 4.67389C40.0219 4.71966 40.0423 4.76543 40.078 4.80103L40.1902 4.91292C40.2259 4.94852 40.2668 4.97395 40.3127 4.98921C40.3484 5.09092 40.4402 5.16721 40.5524 5.18755C40.5677 5.18755 40.583 5.18755 40.5983 5.18755C40.6391 5.18755 40.6799 5.17738 40.7156 5.16213C40.7615 5.21298 40.8228 5.2435 40.8891 5.25876C40.9095 5.30453 40.935 5.35539 40.9758 5.39607V5.50796C40.986 5.59951 41.0319 5.68597 41.1084 5.73682C41.1492 5.76734 41.2002 5.7826 41.2512 5.78768C41.3124 5.91483 41.3839 6.00129 41.4604 6.06232C41.4961 6.11826 41.542 6.16403 41.6032 6.18946C41.6389 6.20472 41.6797 6.20981 41.7154 6.20981C41.7358 6.20981 41.7511 6.19963 41.7664 6.19455C41.7817 6.22506 41.8021 6.25049 41.8225 6.27592C41.8123 6.35729 41.8327 6.44375 41.8888 6.50987C41.9297 6.56073 41.9858 6.58616 42.047 6.60141C42.0419 6.6421 42.0419 6.68279 42.047 6.72347C42.0674 6.8201 42.1337 6.89131 42.2153 6.93199C42.2408 7.07439 42.3632 7.1812 42.5112 7.1812H42.5877C42.5877 7.1812 42.5622 7.23206 42.5622 7.25748L42.5469 7.37446C42.5316 7.51686 42.6183 7.64401 42.7458 7.68978C42.7356 7.79658 42.7815 7.90338 42.8733 7.96441C42.9294 8.0051 42.9804 8.04579 43.0366 8.08647L43.0876 8.12716C43.1284 8.32042 43.1896 8.50351 43.2457 8.66626L43.2661 8.72729C43.2814 8.76289 43.2967 8.79849 43.3222 8.829L43.3783 8.89512C43.3885 8.99175 43.4497 9.06804 43.5313 9.1189C43.5415 9.14941 43.5619 9.17993 43.5823 9.20535C43.5721 9.25113 43.567 9.2969 43.5823 9.34776C43.5926 9.39353 43.6079 9.4393 43.6181 9.47999C43.6334 9.53593 43.6538 9.59696 43.6589 9.65799C43.664 9.70885 43.6895 9.74954 43.715 9.79023C43.7252 9.83091 43.7405 9.86651 43.7609 9.90211L43.7405 9.93771C43.664 10.0801 43.715 10.253 43.8527 10.3395C43.8527 10.4005 43.8782 10.4514 43.9139 10.5022C43.868 10.5684 43.8425 10.6548 43.8629 10.7413C43.8782 10.8226 43.9292 10.8837 43.9904 10.9244C43.9496 11.0159 43.9496 11.1176 44.0057 11.2092L44.1639 11.4635C44.1485 11.494 44.1383 11.5245 44.1281 11.555C44.1179 11.5753 44.1077 11.6008 44.0975 11.6211C44.0924 11.6313 44.0771 11.6364 44.072 11.6516C44.072 11.6618 44.072 11.672 44.072 11.6872C44.072 11.6974 44.0618 11.7076 44.0567 11.7228C44.0057 11.8398 44.0363 11.972 44.123 12.0585C44.1077 12.1297 44.1026 12.1958 44.0975 12.2467L44.0873 12.3433C44.0822 12.3891 44.0873 12.4349 44.0975 12.4755C44.0363 12.562 44.021 12.6739 44.0669 12.7756L44.1639 12.979C44.1639 12.979 44.1485 12.9943 44.1434 13.0096C44.072 13.1774 44.0618 13.3147 44.0924 13.4266C44.0618 13.5029 44.0516 13.5893 44.0771 13.6911C44.0822 13.7165 44.0975 13.747 44.1128 13.7775C44.0567 13.8436 44.0261 13.925 44.0363 14.0165L44.0873 14.3878C44.0873 14.3878 44.072 14.4387 44.0618 14.4641C44.0516 14.4844 44.0516 14.4997 44.0516 14.52C43.9445 14.6065 43.9088 14.7438 43.9598 14.871C43.9241 14.8913 43.8935 14.9167 43.868 14.9472C43.8068 15.0388 43.7966 15.1558 43.8476 15.2524C43.8476 15.2829 43.8578 15.3134 43.868 15.3439C43.7813 15.4202 43.7507 15.5372 43.7813 15.6491C43.7252 15.7 43.6895 15.7762 43.6895 15.8576C43.6283 15.9542 43.6283 16.0763 43.6895 16.1729C43.6385 16.1984 43.5976 16.2289 43.567 16.2797C43.5364 16.3306 43.5211 16.3865 43.5211 16.4425C43.4599 16.4984 43.4242 16.5849 43.4242 16.6713L43.4344 17.0477C43.4344 17.0477 43.4395 17.063 43.4395 17.068C43.2865 17.1138 43.2202 17.2664 43.1845 17.3579C43.1845 17.3579 43.1845 17.3681 43.1845 17.3732L43.1437 17.4291C43.1437 17.4291 43.1437 17.4495 43.1335 17.4546C43.1131 17.4902 43.0978 17.5308 43.0927 17.5715C43.0927 17.5868 43.0927 17.602 43.0927 17.6173C43.0927 17.658 43.1029 17.6987 43.1182 17.7343C43.1182 17.7394 43.1182 17.7445 43.1182 17.7495C43.1182 17.7495 43.1182 17.7648 43.1131 17.7699C43.0825 17.775 43.0518 17.7851 43.0212 17.7953C42.9345 17.836 42.8886 17.9021 42.8529 17.9733C42.8376 18.0089 42.8223 18.0394 42.8121 18.075C42.7815 18.0954 42.756 18.1208 42.7305 18.1513C42.6897 18.2123 42.6795 18.2785 42.6846 18.3497C42.654 18.3954 42.6285 18.4412 42.6183 18.4921C42.5469 18.5277 42.4959 18.5938 42.4704 18.6701C42.3938 18.726 42.3479 18.8125 42.3479 18.9142C42.2714 18.9701 42.2153 19.0515 42.2102 19.1532L42.2 19.3058C42.2 19.3058 42.1745 19.3109 42.1643 19.3211C42.047 19.3923 42.0062 19.5296 42.0368 19.6567C41.9654 19.7686 41.8888 19.8754 41.8021 19.9771C41.7562 20.028 41.7409 20.089 41.7358 20.15C41.7103 20.1755 41.6899 20.206 41.6746 20.2416C41.6032 20.2263 41.5216 20.2314 41.4502 20.2721L41.2716 20.3738C41.2359 20.3942 41.2053 20.4247 41.1798 20.4552C41.1543 20.4705 41.1339 20.4908 41.1135 20.5111C41.0625 20.5773 41.0421 20.6586 41.0574 20.74L41.0676 20.8112C41.0676 20.8112 41.0625 20.8214 41.0574 20.8315C41.0472 20.8468 41.0472 20.8621 41.0421 20.8773L41.0115 20.9129C40.8432 20.8926 40.6799 21.0045 40.6544 21.1672C40.6544 21.1774 40.6544 21.1876 40.6544 21.1977C40.4453 21.2282 40.2566 21.3503 40.0882 21.5588C40.0219 21.5893 39.9607 21.63 39.8944 21.6758L39.8434 21.7114C39.7771 21.7572 39.7414 21.8233 39.7261 21.8945C39.6801 21.8996 39.6342 21.9148 39.5934 21.9403C39.5934 21.9403 39.5475 21.9708 39.5271 21.9911L39.3078 22.0877C39.2211 22.1233 39.165 22.1996 39.1446 22.281C39.1139 22.281 39.0833 22.281 39.0527 22.2963C38.9609 22.2963 38.864 22.3319 38.7977 22.398L38.66 22.5353C38.66 22.5353 38.66 22.5353 38.66 22.5404C38.5018 22.5251 38.3488 22.6268 38.3182 22.7896C38.3182 22.8048 38.3182 22.815 38.3182 22.8303C38.1754 22.7896 38.0224 22.8455 37.956 22.9828C37.9458 23.0032 37.9458 23.0235 37.9407 23.0439C37.8897 22.9981 37.8285 22.9676 37.752 22.9625C37.6041 22.9625 37.4715 23.0642 37.4409 23.2117C37.3796 23.171 37.3031 23.1558 37.2266 23.171L37.0328 23.2066C36.9563 23.2219 36.9002 23.2677 36.8542 23.3236C36.8287 23.3338 36.8032 23.3439 36.7828 23.3643L36.6655 23.466C36.5737 23.4457 36.4768 23.4609 36.4003 23.527C36.3799 23.5423 36.3748 23.5575 36.3595 23.5779C36.2982 23.5677 36.2319 23.5779 36.1758 23.6084L36.0126 23.6949C35.9106 23.7 35.8035 23.7457 35.7065 23.8576L35.6096 23.9085C35.5331 23.9339 35.4566 23.9644 35.3852 23.9898H35.3342C35.2628 23.9949 35.2067 24.0254 35.1556 24.0712C35.0179 24.1221 34.8751 24.1678 34.7374 24.2187C34.6762 24.2187 34.615 24.239 34.5639 24.2797C34.5078 24.3001 34.4568 24.3153 34.4058 24.3357C34.3089 24.3713 34.2426 24.4577 34.2171 24.5493H34.0896C34.0896 24.5493 34.0641 24.5544 34.0539 24.5595C33.9008 24.5595 33.7682 24.6408 33.6407 24.8087C33.6101 24.8392 33.5999 24.8748 33.5846 24.9155C33.4672 24.8697 33.3295 24.9002 33.2428 25.007L33.1051 25.1748C33.0031 25.1748 32.9112 25.2308 32.8551 25.3172L32.8398 25.3071C32.7276 25.2359 32.595 25.246 32.493 25.3223C32.3808 25.3834 32.3093 25.5054 32.3297 25.6376V25.6478C32.2736 25.6783 32.2277 25.719 32.192 25.7546C32.1716 25.7394 32.1512 25.7241 32.1308 25.7139C31.9982 25.658 31.8503 25.7139 31.7686 25.8258C31.7125 25.8411 31.6615 25.8614 31.6156 25.9072C31.5595 25.9682 31.5289 26.0496 31.534 26.1259C31.4983 26.1157 31.4626 26.1106 31.4269 26.1157C31.3453 26.1259 31.2688 26.1666 31.2228 26.2327C31.1004 26.3853 31.0647 26.5328 31.0392 26.6446C31.029 26.6752 31.0188 26.7209 30.9882 26.7413C30.9117 26.7667 30.8556 26.8226 30.825 26.8888C30.7587 26.8786 30.6974 26.8888 30.6362 26.9193C30.6107 26.9193 30.5903 26.9193 30.575 26.9244C30.4373 26.9498 30.3608 27.0515 30.2792 27.1481C30.2435 27.1888 30.2231 27.2448 30.218 27.2956C30.167 27.3516 30.1108 27.4075 30.0598 27.4635C29.9629 27.5703 29.9578 27.7178 30.0343 27.8296C29.9374 27.9059 29.8405 27.9822 29.7334 28.0738C29.713 28.089 29.7028 28.1094 29.6875 28.1297C29.6518 28.1399 29.6212 28.145 29.5855 28.1551C29.4579 28.1907 29.3763 28.3026 29.3661 28.4247C29.3508 28.4501 29.3406 28.4806 29.3304 28.5111C29.2845 28.5213 29.2437 28.5366 29.2029 28.562C29.1009 28.6383 29.0601 28.7705 29.0958 28.8875C29.0805 28.8977 29.0652 28.8977 29.055 28.9078C28.907 29.0299 28.7336 29.1672 28.7234 29.3961C28.7234 29.3961 28.7234 29.4012 28.7234 29.4062C28.6163 29.4825 28.5347 29.5893 28.4633 29.7063C28.4326 29.7572 28.4224 29.8182 28.4224 29.8741C28.4173 29.8741 28.4122 29.8792 28.4071 29.8843L28.2949 29.9453C28.1929 30.0013 28.1419 30.1081 28.1419 30.2149C28.0501 30.2505 27.9787 30.3217 27.9532 30.4183L27.9379 30.4743C27.846 30.5251 27.7746 30.6167 27.7389 30.7438C27.7032 30.7845 27.6828 30.8303 27.6726 30.8811C27.6522 30.8964 27.6318 30.9066 27.6114 30.9269C27.5451 30.9269 27.4788 30.9523 27.4227 30.9981C27.3104 31.0998 27.1829 31.2066 27.0554 31.3033C26.9993 31.3439 26.9687 31.3999 26.9534 31.4609C26.8616 31.4609 26.7748 31.4965 26.7187 31.5626C26.6677 31.583 26.6218 31.6084 26.5861 31.6542L26.4382 31.8373C26.4382 31.8373 26.4382 31.8424 26.4382 31.8474C26.326 31.8678 26.2291 31.9441 26.1933 32.061L26.1729 32.1272C26.1423 32.1068 26.1066 32.0966 26.0709 32.0865L26.0097 32.0763C25.8873 32.056 25.77 32.1068 25.7037 32.2085C25.6986 32.2187 25.6884 32.2289 25.6833 32.239C25.4894 32.239 25.316 32.2899 25.1681 32.3967C25.1273 32.3967 25.0813 32.3967 25.0405 32.4171C24.8824 32.4781 24.8008 32.6459 24.862 32.8036C24.8773 32.8493 24.9079 32.9002 24.9436 32.946C24.9181 32.9511 24.8977 32.9612 24.8773 32.9714C24.7549 33.0019 24.6631 33.1087 24.6529 33.2359C24.6121 33.1698 24.5458 33.124 24.4692 33.1036C24.408 33.068 24.3417 33.0477 24.2652 33.063C24.2244 33.007 24.1632 32.9663 24.0867 32.9511C24 32.9307 23.9132 32.9562 23.8418 33.007C23.7602 32.9765 23.6684 32.9816 23.5919 33.0223C23.5205 32.9663 23.4287 32.9358 23.3317 32.9511C23.2246 32.9765 23.1481 33.0528 23.1124 33.1545C23.1022 33.1545 23.092 33.1545 23.0818 33.1545L22.8114 33.2003C22.7451 33.2104 22.689 33.246 22.6431 33.2918C22.5972 33.2715 22.5411 33.2562 22.485 33.2613C22.434 33.2613 22.3932 33.2867 22.3524 33.3122C22.2707 33.2613 22.1738 33.241 22.0769 33.2816C21.98 33.3172 21.8882 33.3528 21.7964 33.3834H21.679C21.5872 33.3834 21.5056 33.4291 21.4495 33.5003C21.4342 33.5003 21.424 33.5105 21.4087 33.5105C21.3628 33.4952 21.3169 33.4851 21.271 33.4902C21.2251 33.4902 21.1792 33.4952 21.1383 33.5003C21.1281 33.4596 21.1077 33.419 21.0771 33.3884L21.0567 33.4291ZM15.1499 43.7076C15.1499 43.7076 15.1397 43.6822 15.1295 43.6669C15.1295 43.6669 15.1295 43.6669 15.1346 43.6618C15.1499 43.672 15.1601 43.6822 15.1754 43.6872C15.1652 43.6923 15.1601 43.7025 15.1499 43.7127V43.7076ZM20.3834 35.1431C20.3834 35.1431 20.3936 35.1634 20.3987 35.1736C20.3885 35.1736 20.3834 35.1685 20.3732 35.1634C20.3732 35.1583 20.3732 35.1481 20.3783 35.1431H20.3834Z" fill="#424242"/>
<path d="M34.3088 19.2549C34.3088 19.2549 34.3088 19.2498 34.3088 19.2447C34.3088 19.2244 34.319 19.2041 34.319 19.1837C34.319 19.1329 34.3139 19.082 34.2935 19.0362C34.2935 19.021 34.2935 19.0108 34.2935 18.9955C34.3343 18.9142 34.3497 18.8226 34.3241 18.7311C34.3088 18.665 34.2731 18.6141 34.2272 18.5683C34.2272 18.5531 34.2272 18.5378 34.2221 18.5276C34.2629 18.4158 34.2476 18.2886 34.1762 18.1818C34.1558 18.1513 34.1303 18.131 34.1048 18.1106C34.0538 17.9631 33.9212 17.8716 33.7732 17.8563C33.7579 17.8411 33.7426 17.8258 33.7273 17.8156C33.7273 17.7037 33.6814 17.5969 33.5896 17.5257C33.5692 17.48 33.5386 17.4342 33.4876 17.3935C33.4315 17.3477 33.1611 17.1646 32.799 17.4444C32.7735 17.3732 32.7276 17.3172 32.6664 17.2714C32.6459 17.2206 32.6153 17.1748 32.5694 17.1341C32.4368 17.0172 32.2532 17.0172 32.1155 17.1087C32.0185 17.0172 31.8808 16.9765 31.7482 17.0121C31.7023 17.0273 31.6564 17.0477 31.6207 17.0782C31.5339 17.1036 31.4676 17.1596 31.4166 17.2308C31.3962 17.2511 31.3758 17.2664 31.3605 17.2918C31.3095 17.2969 31.2534 17.3121 31.2075 17.3426C31.182 17.3579 31.1667 17.3833 31.1514 17.4037C31.0953 17.4037 31.0341 17.4189 30.9831 17.4495C30.9473 17.4698 30.9218 17.5003 30.8963 17.5257C30.8861 17.5308 30.8759 17.5359 30.8657 17.541C30.8198 17.5766 30.7943 17.6224 30.7688 17.6732C30.728 17.6987 30.6872 17.7343 30.6617 17.78C30.626 17.8105 30.5954 17.8461 30.5699 17.8868C30.5342 17.9224 30.5036 17.9631 30.4832 18.014C30.4679 18.0445 30.4679 18.0801 30.4628 18.1157C30.4066 18.1615 30.3556 18.2225 30.3352 18.2988C30.3352 18.2988 30.3352 18.3039 30.3352 18.309C30.3199 18.3395 30.3046 18.37 30.2944 18.4005C30.2944 18.4107 30.2842 18.4208 30.2791 18.431C30.2434 18.5226 30.2536 18.6192 30.2893 18.7056C30.2128 18.7514 30.1567 18.8277 30.1363 18.9549C30.1261 19.0057 30.1312 19.0515 30.1363 19.0922C30.1363 19.0922 30.1363 19.0973 30.1363 19.1023C30.1363 19.1125 30.1312 19.1227 30.1261 19.1329C30.1261 19.1837 30.1312 19.2346 30.1516 19.2803C30.1516 19.3363 30.1516 19.3922 30.1771 19.4482C30.1771 19.4533 30.1771 19.4584 30.1771 19.4634V19.4736C30.1771 19.4736 30.1771 19.4838 30.1771 19.4889C30.1771 19.5092 30.1822 19.5296 30.1873 19.5499C30.1873 19.5652 30.1822 19.5804 30.1873 19.5957C30.1873 19.6313 30.2077 19.6669 30.223 19.7025C30.223 19.7279 30.223 19.7584 30.2281 19.7889C30.2077 19.855 30.2026 19.9212 30.2128 19.9924C30.2128 19.9924 30.2128 20.0025 30.2179 20.0025C30.2179 20.0432 30.2281 20.089 30.2485 20.1297C30.2638 20.1653 30.2842 20.1958 30.3097 20.2212C30.3097 20.2314 30.3199 20.2416 30.3199 20.2467C30.3199 20.2619 30.3199 20.2721 30.3301 20.2873L30.3505 20.3331C30.4066 20.4501 30.5138 20.5111 30.6311 20.5264C30.6056 20.6484 30.6311 20.7756 30.728 20.8722C30.7994 20.9434 30.8861 20.9739 30.978 20.979C30.9984 21.1011 31.08 21.213 31.2024 21.2638C31.2534 21.2842 31.3044 21.2943 31.3503 21.2943C31.4166 21.2943 31.4829 21.274 31.5442 21.2384C31.6105 21.3401 31.7278 21.4113 31.8553 21.4113C31.8604 21.4113 31.8655 21.4113 31.8706 21.4113C31.9165 21.4113 31.9573 21.3961 31.9981 21.3808C32.0287 21.391 32.0593 21.3961 32.0899 21.3961C32.1563 21.4317 32.2277 21.452 32.2991 21.4469C32.3297 21.452 32.3603 21.4571 32.3858 21.4571C32.4062 21.4571 32.4215 21.452 32.4419 21.4469C32.4827 21.4571 32.5184 21.4622 32.5541 21.4622C32.651 21.4622 32.7327 21.4266 32.7888 21.3859C32.85 21.3452 32.8908 21.2943 32.9214 21.2384C32.9622 21.2536 33.0081 21.2689 33.054 21.2689C33.1356 21.2689 33.2224 21.2435 33.2938 21.1875C33.3499 21.1723 33.406 21.1519 33.4519 21.1112C33.4825 21.0858 33.5029 21.0553 33.5233 21.0197C33.5284 21.0197 33.5386 21.0146 33.5437 21.0095C33.5641 20.9943 33.5794 20.9739 33.5947 20.9536C33.6049 20.9434 33.6202 20.9383 33.6355 20.9282C33.6559 20.9129 33.661 20.8926 33.6763 20.8722C33.6967 20.857 33.7222 20.8468 33.7375 20.8264C33.7477 20.8163 33.7477 20.801 33.7579 20.7908C33.7988 20.7603 33.8345 20.7196 33.86 20.6739C33.8753 20.6586 33.8906 20.6433 33.9059 20.6281C33.9059 20.6281 33.9059 20.6281 33.911 20.6281C33.9314 20.6027 33.9365 20.5772 33.9467 20.5518C33.9467 20.5467 33.9518 20.5416 33.9569 20.5365C33.9569 20.5315 33.962 20.5264 33.9671 20.5213C34.0028 20.4806 34.0283 20.4348 34.0436 20.3789C34.0997 20.3382 34.1507 20.2823 34.1813 20.2111C34.2017 20.1551 34.2068 20.1043 34.2068 20.0483C34.2221 20.0229 34.2323 19.9974 34.2425 19.9669C34.2782 19.9212 34.3139 19.8754 34.3241 19.8144C34.3343 19.7686 34.3343 19.7228 34.3292 19.677C34.3292 19.6414 34.3292 19.6109 34.3292 19.5753C34.3445 19.5397 34.3599 19.5041 34.365 19.4634C34.3752 19.3872 34.3548 19.321 34.3292 19.26L34.3088 19.2549Z" fill="white"/>
<path d="M36.7521 10.7413C36.8338 10.7413 36.9205 10.7158 36.9919 10.6599C37.048 10.6446 37.1041 10.6243 37.15 10.5836C37.1806 10.5582 37.201 10.5277 37.2214 10.4921C37.2265 10.4921 37.2367 10.487 37.2418 10.4819C37.2622 10.4666 37.2775 10.4463 37.2928 10.426C37.303 10.4158 37.3184 10.4107 37.3337 10.4005C37.3541 10.3853 37.3592 10.3649 37.3745 10.3446C37.3949 10.3293 37.4204 10.3192 37.4357 10.2988C37.4459 10.2886 37.4459 10.2734 37.4561 10.2632C37.4969 10.2327 37.5326 10.192 37.5581 10.1462C37.5734 10.131 37.5887 10.1157 37.604 10.0954C37.604 10.0954 37.604 10.0954 37.6091 10.0954C37.6244 10.075 37.6295 10.0547 37.6397 10.0343C37.6397 10.0242 37.6499 10.0191 37.655 10.0089C37.655 10.0038 37.6601 9.99875 37.6652 9.99366C37.7009 9.95298 37.7264 9.9072 37.7417 9.85126C37.7978 9.81057 37.8488 9.75463 37.8795 9.68343C37.8999 9.62748 37.905 9.57662 37.905 9.52068C37.9203 9.49525 37.9305 9.46982 37.9407 9.44439C37.9764 9.39862 38.0121 9.35285 38.0274 9.29182C38.0376 9.24605 38.0376 9.20027 38.0325 9.1545C38.0325 9.1189 38.0325 9.08838 38.0325 9.05278C38.0478 9.01718 38.0631 8.98158 38.0682 8.9409C38.0784 8.86969 38.058 8.79849 38.0325 8.73746C38.0325 8.73746 38.0325 8.73238 38.0325 8.72729C38.0325 8.70695 38.0427 8.68661 38.0427 8.66626C38.0427 8.6154 38.0325 8.56455 38.0172 8.51369C38.0172 8.50352 38.0172 8.48826 38.0172 8.47809C38.058 8.39671 38.0733 8.30517 38.0478 8.21362C38.0325 8.14751 37.9968 8.09665 37.9509 8.05088C37.9509 8.03562 37.9509 8.02545 37.9509 8.01019C37.9917 7.8983 37.9764 7.76607 37.905 7.66435C37.8845 7.63384 37.859 7.6135 37.8335 7.59315C37.7825 7.44566 37.6499 7.35412 37.502 7.33886C37.4867 7.3236 37.4714 7.30835 37.4561 7.29818C37.4561 7.18629 37.4102 7.08457 37.3234 7.00828C37.303 6.96251 37.2724 6.91674 37.2214 6.87097C37.1653 6.82519 36.8899 6.6421 36.5277 6.92182C36.5022 6.85062 36.4563 6.79468 36.3951 6.74891C36.3747 6.69805 36.3441 6.65228 36.2982 6.61667C36.1655 6.4997 35.9819 6.4997 35.8442 6.59125C35.7473 6.4997 35.6095 6.45901 35.4769 6.49462C35.431 6.50987 35.3851 6.53022 35.3494 6.56073C35.2627 6.58616 35.1964 6.6421 35.1505 6.71331C35.125 6.73365 35.1097 6.75399 35.0893 6.77434C35.0382 6.77942 34.9821 6.79468 34.9362 6.82519C34.9107 6.84045 34.8954 6.86588 34.875 6.88622C34.8189 6.88622 34.7577 6.90148 34.7067 6.932C34.671 6.95234 34.6455 6.97777 34.62 7.00828C34.6098 7.01337 34.5996 7.01845 34.5894 7.02863C34.5435 7.06423 34.5129 7.11509 34.4924 7.16086C34.4516 7.18629 34.4108 7.22189 34.3853 7.26766C34.3445 7.29818 34.3139 7.33378 34.2935 7.37446C34.2578 7.41006 34.2272 7.45075 34.2068 7.50161C34.1915 7.53212 34.1915 7.56772 34.1864 7.59824C34.1303 7.64401 34.0793 7.70504 34.0589 7.78133C34.0589 7.78133 34.0589 7.78641 34.0589 7.7915C34.0385 7.82201 34.0283 7.85253 34.0181 7.88813C34.0181 7.89322 34.0079 7.8983 34.0079 7.90847C34.0079 7.90847 34.0079 7.91356 34.0028 7.91865C33.9671 8.01019 33.9773 8.10682 34.013 8.19328C33.9364 8.23905 33.8803 8.31534 33.8599 8.44249C33.8497 8.49334 33.8548 8.53912 33.8599 8.5798C33.8599 8.5798 33.8599 8.58489 33.8599 8.58997C33.8599 8.60015 33.8497 8.61032 33.8497 8.62557C33.8497 8.67643 33.8548 8.72729 33.8752 8.77306C33.8752 8.82901 33.8752 8.88495 33.9007 8.9409C33.9007 8.94598 33.9007 8.95107 33.9007 8.95615V8.96633C33.9007 8.96633 33.9007 8.9765 33.9007 8.98667C33.9007 9.02227 33.9109 9.05278 33.9211 9.08839H33.9058C33.9058 9.12907 33.9262 9.15959 33.9415 9.19519C33.9415 9.22062 33.9415 9.25113 33.9466 9.28165C33.9262 9.34268 33.916 9.41388 33.9313 9.47999C33.9313 9.47999 33.9313 9.49017 33.9364 9.49525C33.9364 9.54102 33.9466 9.58171 33.9671 9.62748C33.9824 9.66308 34.0028 9.68851 34.0232 9.71394C34.0232 9.72411 34.0334 9.73428 34.0385 9.74446C34.0385 9.75971 34.0385 9.76989 34.0487 9.78514L34.0691 9.83092C34.1252 9.94789 34.2272 10.0038 34.3445 10.0191C34.319 10.1412 34.3496 10.2683 34.4414 10.3649C34.5128 10.4361 34.6047 10.4717 34.6965 10.4768C34.722 10.5938 34.8036 10.6955 34.926 10.7464C34.9719 10.7667 35.0178 10.7769 35.0688 10.7769C35.1352 10.7769 35.1964 10.7565 35.2576 10.726C35.3239 10.8328 35.4412 10.9091 35.5789 10.9091C35.584 10.9091 35.5891 10.9091 35.5942 10.9091C35.6401 10.9091 35.681 10.8939 35.7167 10.8786C35.7473 10.8888 35.7779 10.8939 35.8136 10.8939C35.8799 10.9295 35.9513 10.9498 36.0176 10.9447C36.0482 10.9498 36.0788 10.9549 36.1043 10.9549C36.1247 10.9549 36.14 10.9498 36.1604 10.9447C36.2013 10.9549 36.237 10.96 36.2727 10.96C36.3696 10.96 36.4461 10.9244 36.5073 10.8888C36.5685 10.8481 36.6093 10.7972 36.6399 10.7413C36.6807 10.7565 36.7266 10.7718 36.7726 10.7718L36.7521 10.7413Z" fill="white"/>
<path d="M40.8941 15.0236C40.9094 14.988 40.9247 14.9524 40.9299 14.9117C40.9401 14.8354 40.9196 14.7693 40.8941 14.7082C40.8941 14.7082 40.8941 14.7032 40.8941 14.6981C40.8941 14.6777 40.9043 14.6574 40.9043 14.637C40.9043 14.5862 40.8992 14.5353 40.8788 14.4896C40.8788 14.4743 40.8788 14.4641 40.8788 14.4489C40.9196 14.3675 40.935 14.276 40.9094 14.1844C40.8941 14.1183 40.8584 14.0674 40.8125 14.0217C40.8125 14.0064 40.8125 13.9962 40.8125 13.981C40.8533 13.8691 40.838 13.7369 40.7666 13.6351C40.7462 13.6046 40.7207 13.5843 40.6952 13.5639C40.6952 13.5639 40.6952 13.5639 40.6952 13.5589C40.6442 13.4164 40.5116 13.3249 40.3688 13.3096C40.3534 13.2944 40.3381 13.2791 40.3177 13.269C40.3177 13.1622 40.2718 13.0554 40.1851 12.9791C40.1647 12.9333 40.129 12.8875 40.078 12.8418C40.0219 12.796 39.7515 12.6129 39.3894 12.8926C39.3639 12.8214 39.318 12.7655 39.2568 12.7197C39.2363 12.6688 39.2057 12.6231 39.1598 12.5824C39.0272 12.4654 38.8436 12.4654 38.7008 12.5569C38.6089 12.4654 38.4712 12.4247 38.3335 12.4603C38.2876 12.4756 38.2417 12.4959 38.206 12.5213C38.1193 12.5468 38.0478 12.6027 38.0019 12.6739C37.9764 12.6943 37.9611 12.7146 37.9407 12.7349C37.8846 12.74 37.8336 12.7553 37.7826 12.7858C37.7571 12.8011 37.7469 12.8214 37.7265 12.8418C37.6704 12.8418 37.6143 12.857 37.5633 12.8875C37.5275 12.9079 37.502 12.9333 37.4765 12.9638C37.4663 12.9689 37.4561 12.974 37.4459 12.9842C37.4 13.0198 37.3745 13.0706 37.349 13.1164C37.3082 13.1418 37.2725 13.1774 37.2419 13.2232C37.2062 13.2537 37.1756 13.2893 37.1501 13.33C37.1144 13.3656 37.0838 13.4063 37.0634 13.4571C37.0481 13.4876 37.0481 13.5233 37.043 13.5538C36.9869 13.5995 36.9358 13.6606 36.9154 13.7419C36.9154 13.7419 36.9154 13.747 36.9154 13.7521C36.9001 13.7826 36.8848 13.8131 36.8746 13.8437C36.8746 13.8538 36.8644 13.864 36.8593 13.8742C36.8236 13.9657 36.8338 14.0623 36.8695 14.1488C36.793 14.1946 36.7369 14.2709 36.7165 14.398C36.7063 14.4489 36.7114 14.4946 36.7165 14.5353C36.7165 14.5353 36.7165 14.5353 36.7165 14.5404C36.7165 14.5404 36.7165 14.5455 36.7165 14.5506C36.7165 14.5608 36.7114 14.5709 36.7063 14.5811C36.7063 14.632 36.7114 14.6828 36.7267 14.7286C36.7267 14.7896 36.7267 14.8456 36.7522 14.9015C36.7522 14.9117 36.7522 14.9219 36.7522 14.932V14.9422C36.7522 14.9422 36.7522 14.9422 36.7522 14.9524C36.7522 14.9727 36.7573 14.988 36.7624 15.0032C36.7624 15.0185 36.7573 15.0287 36.7624 15.0439C36.7624 15.0795 36.7828 15.1151 36.7981 15.1507C36.7981 15.1761 36.7981 15.2067 36.8032 15.2372C36.7828 15.3033 36.7726 15.3694 36.7879 15.4406C36.7879 15.4457 36.7879 15.4508 36.793 15.4559C36.793 15.4965 36.8032 15.5423 36.8236 15.583C36.8389 15.6186 36.8593 15.6491 36.8848 15.6796C36.8848 15.6898 36.8899 15.6949 36.895 15.7C36.895 15.7152 36.895 15.7305 36.9052 15.7407L36.9256 15.7864C36.9817 15.9034 37.0838 15.9594 37.2011 15.9746C37.1756 16.0967 37.2062 16.2238 37.298 16.3205C37.3694 16.3917 37.4561 16.4273 37.5479 16.4273C37.5684 16.5493 37.65 16.6612 37.7673 16.7121C37.8183 16.7324 37.8693 16.7426 37.9152 16.7426C37.9815 16.7426 38.0478 16.7222 38.109 16.6866C38.1754 16.7884 38.2927 16.8596 38.4202 16.8596C38.4202 16.8596 38.4304 16.8596 38.4355 16.8596C38.4814 16.8596 38.5222 16.8443 38.563 16.829C38.5936 16.8392 38.6242 16.8443 38.6548 16.8443C38.7212 16.8799 38.7875 16.9002 38.864 16.8952C38.8946 16.9002 38.9252 16.9053 38.9507 16.9053C38.9711 16.9053 38.9864 16.9002 39.0017 16.8952C39.0425 16.9053 39.0782 16.9104 39.1139 16.9104C39.2108 16.9104 39.2874 16.8748 39.3486 16.8341C39.4098 16.7934 39.4506 16.7426 39.4812 16.6866C39.522 16.7019 39.5679 16.7171 39.6138 16.7171C39.6954 16.7171 39.7821 16.6917 39.8485 16.6358C39.9046 16.6205 39.9607 16.6002 40.0066 16.5595C40.0372 16.5341 40.0576 16.4985 40.078 16.4679C40.0831 16.4679 40.0933 16.4629 40.0984 16.4578C40.1188 16.4425 40.1341 16.4222 40.1494 16.4018C40.1596 16.3917 40.1749 16.3917 40.1851 16.3815C40.2055 16.3662 40.2106 16.3459 40.2259 16.3255C40.2463 16.3103 40.2718 16.3001 40.2871 16.2798C40.2973 16.2696 40.2973 16.2543 40.3075 16.2442C40.3483 16.2137 40.3841 16.173 40.4096 16.1272C40.4249 16.1119 40.4402 16.0967 40.4555 16.0763C40.4555 16.0763 40.4555 16.0763 40.4606 16.0763C40.481 16.0509 40.4861 16.0255 40.4963 16C40.4963 15.995 40.5014 15.9899 40.5065 15.9848C40.5065 15.9797 40.5116 15.9746 40.5167 15.9695C40.5524 15.9288 40.5779 15.8831 40.5932 15.8271C40.6493 15.7864 40.7003 15.7305 40.7309 15.6593C40.7513 15.6084 40.7615 15.5576 40.7564 15.5016C40.7717 15.4762 40.7819 15.4508 40.7921 15.4203C40.8278 15.3745 40.8635 15.3287 40.8788 15.2677C40.889 15.2219 40.889 15.1761 40.8839 15.1304C40.8839 15.0948 40.8839 15.0643 40.8839 15.0337L40.8941 15.0236Z" fill="white"/>
</g>
<defs>
<clipPath id="clip0_1207_1296">
<rect width="46" height="48" fill="white" transform="translate(1)"/>
</clipPath>
</defs>
</svg>
